<?xml version="1.0" encoding="UTF-8" standalone="no"?>
<svg
   version="1.1"
   id="svg670"
   xml:space="preserve"
   width="1228.7999"
   height="768"
   viewBox="0 0 1228.8 768"
   sodipodi:docname="dampcoef.svg"
   xmlns:inkscape="http://www.inkscape.org/namespaces/inkscape"
   xmlns:sodipodi="http://sodipodi.sourceforge.net/DTD/sodipodi-0.dtd"
   xmlns="http://www.w3.org/2000/svg"
   xmlns:svg="http://www.w3.org/2000/svg"
   xmlns:rdf="http://www.w3.org/1999/02/22-rdf-syntax-ns#"
   xmlns:cc="http://creativecommons.org/ns#"
   xmlns:dc="http://purl.org/dc/elements/1.1/"><metadata
     id="metadata676"><rdf:RDF><cc:Work
         rdf:about=""><dc:format>image/svg+xml</dc:format><dc:type
           rdf:resource="http://purl.org/dc/dcmitype/StillImage" /></cc:Work></rdf:RDF></metadata><defs
     id="defs674" /><sodipodi:namedview
     pagecolor="#ffffff"
     bordercolor="#666666"
     borderopacity="1"
     objecttolerance="10"
     gridtolerance="10"
     guidetolerance="10"
     inkscape:pageopacity="0"
     inkscape:pageshadow="2"
     inkscape:window-width="640"
     inkscape:window-height="480"
     id="namedview672"
     inkscape:showpageshadow="2"
     inkscape:pagecheckerboard="0"
     inkscape:deskcolor="#d1d1d1" /><g
     id="g678"
     inkscape:groupmode="layer"
     inkscape:label="ink_ext_XXXXXX"
     transform="matrix(1.3333333,0,0,-1.3333333,0,767.99998)"><g
       id="g680"
       transform="scale(0.1)"><path
         d="M 0,0 H 9216 V 5760 H 0 Z"
         style="fill:#ffffff;fill-opacity:1;fill-rule:nonzero;stroke:none"
         id="path682" /><path
         d="M 0,0 H 9216 V 5760 H 0 Z"
         style="fill:#ffffff;fill-opacity:1;fill-rule:nonzero;stroke:none"
         id="path684" /><path
         d="M 1200,4236 H 4284 V 5268 H 1200 Z"
         style="fill:#ffffff;fill-opacity:1;fill-rule:nonzero;stroke:none"
         id="path686" /><path
         d="M 1200,4236 H 4284"
         style="fill:none;stroke:#262626;stroke-width:4.998;stroke-linecap:square;stroke-linejoin:round;stroke-miterlimit:10;stroke-dasharray:none;stroke-opacity:1"
         id="path688" /><path
         d="M 1200,5268 H 4284"
         style="fill:none;stroke:#262626;stroke-width:4.998;stroke-linecap:square;stroke-linejoin:round;stroke-miterlimit:10;stroke-dasharray:none;stroke-opacity:1"
         id="path690" /><path
         d="m 1200,4236 v 30.84"
         style="fill:none;stroke:#262626;stroke-width:4.998;stroke-linecap:square;stroke-linejoin:round;stroke-miterlimit:10;stroke-dasharray:none;stroke-opacity:1"
         id="path692" /><path
         d="m 1691.08,4236 v 30.84"
         style="fill:none;stroke:#262626;stroke-width:4.998;stroke-linecap:square;stroke-linejoin:round;stroke-miterlimit:10;stroke-dasharray:none;stroke-opacity:1"
         id="path694" /><path
         d="m 2182.16,4236 v 30.84"
         style="fill:none;stroke:#262626;stroke-width:4.998;stroke-linecap:square;stroke-linejoin:round;stroke-miterlimit:10;stroke-dasharray:none;stroke-opacity:1"
         id="path696" /><path
         d="m 2673.25,4236 v 30.84"
         style="fill:none;stroke:#262626;stroke-width:4.998;stroke-linecap:square;stroke-linejoin:round;stroke-miterlimit:10;stroke-dasharray:none;stroke-opacity:1"
         id="path698" /><path
         d="m 3164.34,4236 v 30.84"
         style="fill:none;stroke:#262626;stroke-width:4.998;stroke-linecap:square;stroke-linejoin:round;stroke-miterlimit:10;stroke-dasharray:none;stroke-opacity:1"
         id="path700" /><path
         d="m 3655.42,4236 v 30.84"
         style="fill:none;stroke:#262626;stroke-width:4.998;stroke-linecap:square;stroke-linejoin:round;stroke-miterlimit:10;stroke-dasharray:none;stroke-opacity:1"
         id="path702" /><path
         d="m 4146.5,4236 v 30.84"
         style="fill:none;stroke:#262626;stroke-width:4.998;stroke-linecap:square;stroke-linejoin:round;stroke-miterlimit:10;stroke-dasharray:none;stroke-opacity:1"
         id="path704" /><path
         d="m 1200,5268 v -30.84"
         style="fill:none;stroke:#262626;stroke-width:4.998;stroke-linecap:square;stroke-linejoin:round;stroke-miterlimit:10;stroke-dasharray:none;stroke-opacity:1"
         id="path706" /><path
         d="m 1691.08,5268 v -30.84"
         style="fill:none;stroke:#262626;stroke-width:4.998;stroke-linecap:square;stroke-linejoin:round;stroke-miterlimit:10;stroke-dasharray:none;stroke-opacity:1"
         id="path708" /><path
         d="m 2182.16,5268 v -30.84"
         style="fill:none;stroke:#262626;stroke-width:4.998;stroke-linecap:square;stroke-linejoin:round;stroke-miterlimit:10;stroke-dasharray:none;stroke-opacity:1"
         id="path710" /><path
         d="m 2673.25,5268 v -30.84"
         style="fill:none;stroke:#262626;stroke-width:4.998;stroke-linecap:square;stroke-linejoin:round;stroke-miterlimit:10;stroke-dasharray:none;stroke-opacity:1"
         id="path712" /><path
         d="m 3164.34,5268 v -30.84"
         style="fill:none;stroke:#262626;stroke-width:4.998;stroke-linecap:square;stroke-linejoin:round;stroke-miterlimit:10;stroke-dasharray:none;stroke-opacity:1"
         id="path714" /><path
         d="m 3655.42,5268 v -30.84"
         style="fill:none;stroke:#262626;stroke-width:4.998;stroke-linecap:square;stroke-linejoin:round;stroke-miterlimit:10;stroke-dasharray:none;stroke-opacity:1"
         id="path716" /><path
         d="m 4146.5,5268 v -30.84"
         style="fill:none;stroke:#262626;stroke-width:4.998;stroke-linecap:square;stroke-linejoin:round;stroke-miterlimit:10;stroke-dasharray:none;stroke-opacity:1"
         id="path718" /><g
         id="g720"
         transform="scale(10)"><text
           transform="matrix(1,0,0,-1,115.8,403)"
           style="font-variant:normal;font-weight:bold;font-size:15px;font-family:Helvetica;-inkscape-font-specification:Helvetica-Bold;writing-mode:lr-tb;fill:#262626;fill-opacity:1;fill-rule:nonzero;stroke:none"
           id="text724"><tspan
             x="0 49.1082 98.2164 147.32504 196.43324 245.54144 294.64966"
             y="0"
             sodipodi:role="line"
             id="tspan722">0123456</tspan></text></g><path
         d="m 2432.35,3814.12 c -6.31,0 -10.89,2.33 -13.74,6.99 -2.84,4.66 -4.26,10.33 -4.26,17.02 0,4.43 0.4,8.78 1.21,13.02 0.82,4.26 2.02,8.55 3.61,12.9 1.6,4.34 3.44,8.42 5.53,12.23 2.1,3.81 4.43,7.5 6.99,11.07 0.5,0.74 1.15,1.12 1.96,1.12 4.69,0 7.26,-0.22 7.7,-0.66 0.43,-0.43 0.65,-0.97 0.65,-1.59 0,-0.63 -0.16,-1.16 -0.47,-1.59 -10.19,-14.07 -15.28,-27.04 -15.28,-38.91 0,-5.13 1.19,-9.55 3.56,-13.27 2.38,-3.72 4,-5.57 4.88,-5.57 4.19,0 8.08,1.23 11.67,3.7 3.59,2.47 6.7,5.61 9.33,9.42 0,2 0.33,5.08 0.98,9.23 0.65,4.16 1.72,7.86 3.19,11.12 1.47,3.24 3.2,4.87 5.2,4.87 6.57,0 9.84,-1.5 9.84,-4.5 0,-1.75 -0.35,-3.95 -1.07,-6.61 -0.72,-2.65 -1.53,-5.13 -2.44,-7.41 -0.91,-2.28 -2.01,-4.89 -3.33,-7.82 1.32,-8 3.32,-12 6,-12 3.88,0 7.77,1.12 11.67,3.37 3.91,2.25 7.37,5.21 10.37,8.86 3,3.66 5.35,7.58 7.07,11.77 1.72,4.18 2.58,8.18 2.58,12 0,3.37 -0.53,6 -1.6,7.87 -1.06,1.88 -2.46,3.86 -4.21,5.95 -1.75,2.1 -2.63,3.77 -2.63,5.02 0,2.19 0.94,4.19 2.82,6 1.87,1.81 3.87,2.72 6,2.72 6.68,0 10.6,-1.25 11.76,-3.75 1.16,-2.5 1.74,-5.35 1.74,-8.54 0,-5.12 -1.02,-11.59 -3.05,-19.4 -2.03,-7.81 -4.36,-14.31 -6.98,-19.5 -3.63,-7.06 -8.16,-13.02 -13.6,-17.86 -5.44,-4.85 -13.56,-7.27 -24.37,-7.27 -4.32,0 -7.81,1.3 -10.46,3.9 -2.65,2.59 -3.98,3.88 -3.98,3.88 0,0 -1.97,-1.29 -5.91,-3.88 -3.93,-2.6 -10.24,-3.9 -18.93,-3.9"
         style="fill:#262626;fill-opacity:1;fill-rule:nonzero;stroke:none"
         id="path726" /><g
         id="g728"
         transform="scale(10)"><text
           transform="matrix(1,0,0,-1,256.587,381.6)"
           style="font-variant:normal;font-weight:bold;font-size:16.5px;font-family:Helvetica;-inkscape-font-specification:Helvetica-Bold;writing-mode:lr-tb;fill:#262626;fill-opacity:1;fill-rule:nonzero;stroke:none"
           id="text732"><tspan
             x="0 5.4945002 11.913 21.087 31.168501 35.755501 44.929501"
             y="0"
             sodipodi:role="line"
             id="tspan730">[rad/s]</tspan></text></g><path
         d="M 1200,4236 V 5268"
         style="fill:none;stroke:#262626;stroke-width:4.998;stroke-linecap:square;stroke-linejoin:round;stroke-miterlimit:10;stroke-dasharray:none;stroke-opacity:1"
         id="path734" /><path
         d="M 4284,4236 V 5268"
         style="fill:none;stroke:#262626;stroke-width:4.998;stroke-linecap:square;stroke-linejoin:round;stroke-miterlimit:10;stroke-dasharray:none;stroke-opacity:1"
         id="path736" /><path
         d="m 1200,4297.42 h 30.84"
         style="fill:none;stroke:#262626;stroke-width:4.998;stroke-linecap:square;stroke-linejoin:round;stroke-miterlimit:10;stroke-dasharray:none;stroke-opacity:1"
         id="path738" /><path
         d="m 1200,4744.84 h 30.84"
         style="fill:none;stroke:#262626;stroke-width:4.998;stroke-linecap:square;stroke-linejoin:round;stroke-miterlimit:10;stroke-dasharray:none;stroke-opacity:1"
         id="path740" /><path
         d="m 1200,5192.26 h 30.84"
         style="fill:none;stroke:#262626;stroke-width:4.998;stroke-linecap:square;stroke-linejoin:round;stroke-miterlimit:10;stroke-dasharray:none;stroke-opacity:1"
         id="path742" /><path
         d="m 4284,4297.42 h -30.84"
         style="fill:none;stroke:#262626;stroke-width:4.998;stroke-linecap:square;stroke-linejoin:round;stroke-miterlimit:10;stroke-dasharray:none;stroke-opacity:1"
         id="path744" /><path
         d="m 4284,4744.84 h -30.84"
         style="fill:none;stroke:#262626;stroke-width:4.998;stroke-linecap:square;stroke-linejoin:round;stroke-miterlimit:10;stroke-dasharray:none;stroke-opacity:1"
         id="path746" /><path
         d="m 4284,5192.26 h -30.84"
         style="fill:none;stroke:#262626;stroke-width:4.998;stroke-linecap:square;stroke-linejoin:round;stroke-miterlimit:10;stroke-dasharray:none;stroke-opacity:1"
         id="path748" /><g
         id="g750"
         transform="scale(10)"><text
           transform="matrix(1,0,0,-1,106.6,423.742)"
           style="font-variant:normal;font-weight:bold;font-size:15px;font-family:Helvetica;-inkscape-font-specification:Helvetica-Bold;writing-mode:lr-tb;fill:#262626;fill-opacity:1;fill-rule:nonzero;stroke:none"
           id="text758"><tspan
             x="0"
             y="0"
             id="tspan752">0</tspan><tspan
             x="0"
             y="-44.742199"
             id="tspan754">5</tspan><tspan
             x="-8.3999996 -0.059999999"
             y="-89.484398"
             sodipodi:role="line"
             id="tspan756">10</tspan></text><text
           transform="matrix(0,1,1,0,84.6,462.6)"
           style="font-variant:normal;font-weight:bold;font-size:16.5px;font-family:Helvetica;-inkscape-font-specification:Helvetica-Bold;writing-mode:lr-tb;fill:#262626;fill-opacity:1;fill-rule:nonzero;stroke:none"
           id="text762"><tspan
             x="0"
             y="0"
             id="tspan760">b</tspan></text><text
           transform="matrix(0,1,1,0,92.4,472.8)"
           style="font-variant:normal;font-weight:bold;font-size:13.2px;font-family:Helvetica;-inkscape-font-specification:Helvetica-Bold;writing-mode:lr-tb;fill:#262626;fill-opacity:1;fill-rule:nonzero;stroke:none"
           id="text766"><tspan
             x="0 7.3392"
             y="0"
             sodipodi:role="line"
             id="tspan764">11</tspan></text></g><path
         d="m 1222.03,5308.31 c 0,0.82 0.25,1.53 0.75,2.16 l 31.22,31.03 -31.22,31.22 c -0.5,0.5 -0.75,1.16 -0.75,1.97 0,0.75 0.3,1.44 0.89,2.06 0.6,0.63 1.3,0.94 2.11,0.94 4.69,0 7.44,-0.31 8.25,-0.94 l 28.03,-28.03 27.94,28.03 c 0.88,0.63 1.63,0.94 2.25,0.94 4.81,0 7.52,-0.3 8.11,-0.89 0.59,-0.6 0.89,-1.3 0.89,-2.11 0,-0.81 -0.25,-1.47 -0.75,-1.97 l -31.22,-31.22 31.22,-31.03 c 0.5,-0.63 0.75,-1.34 0.75,-2.16 0,-0.81 -0.3,-1.51 -0.89,-2.11 -0.59,-0.59 -3.3,-0.89 -8.11,-0.89 -0.75,0 -1.5,0.38 -2.25,1.13 l -27.94,27.84 -28.03,-27.84 c -0.69,-0.75 -3.44,-1.13 -8.25,-1.13 -0.81,0 -1.51,0.32 -2.11,0.94 -0.59,0.63 -0.89,1.31 -0.89,2.06"
         style="fill:#262626;fill-opacity:1;fill-rule:nonzero;stroke:none"
         id="path768" /><g
         id="g770"
         transform="scale(10)"><text
           transform="matrix(1,0,0,-1,132.6,530.4)"
           style="font-variant:normal;font-weight:bold;font-size:15px;font-family:Helvetica;-inkscape-font-specification:Helvetica-Bold;writing-mode:lr-tb;fill:#262626;fill-opacity:1;fill-rule:nonzero;stroke:none"
           id="text774"><tspan
             x="0 8.3400002"
             y="0"
             sodipodi:role="line"
             id="tspan772">10</tspan></text><text
           transform="matrix(1,0,0,-1,149.4,537.6)"
           style="font-variant:normal;font-weight:bold;font-size:12px;font-family:Helvetica;-inkscape-font-specification:Helvetica-Bold;writing-mode:lr-tb;fill:#262626;fill-opacity:1;fill-rule:nonzero;stroke:none"
           id="text778"><tspan
             x="0"
             y="0"
             id="tspan776">5</tspan></text></g><path
         d="m 1230.84,4297.42 h 30.84 l 30.84,0.02 30.84,0.1 30.84,0.42 30.84,1.29 30.84,3.27 30.84,7.17 30.84,13.96 30.84,24.85 30.84,40.75 30.84,61.98 30.84,87.35 30.84,113.3 30.84,133.79 30.84,141.8 30.84,132.52 30.84,106.51 30.84,69.86 30.84,30.75 30.84,-3.52 30.84,-29.65 30.84,-47.07 30.84,-56.95 30.84,-61.23 30.84,-61.62 30.84,-59.53 30.84,-56.06 30.84,-51.85 30.84,-47.43 30.84,-43.04 30.84,-38.88 30.84,-35.02 30.84,-31.51 30.84,-28.33 30.84,-25.51 30.84,-22.99 30.84,-20.77 30.84,-18.79 30.84,-17.06 30.84,-15.54 30.84,-14.19 30.84,-13.02 30.84,-11.99 30.84,-11.1 30.84,-10.32 30.84,-9.67 30.84,-9.12 30.84,-8.69 30.84,-8.35 30.84,-8.12 30.84,-8.05 30.84,-8.1 30.84,-8.36 30.84,-8.88 30.84,-9.76 30.84,-11.18 30.84,-13.38 30.84,-16.77 30.84,-21.5 30.84,-26.18 30.84,-22.03 30.84,7.5 30.84,33.27 30.84,26.29 30.84,12.23 30.84,1.69 30.84,-13.3 30.84,11.69 30.84,35.86 30.84,-9.63 30.84,-7.01 30.84,-8.03 30.84,-14.18 30.84,-47.04 30.84,79.51 30.84,-15.08 30.84,-10.09 30.84,-11.58 30.84,-5.73 30.84,22.08 30.84,-5.58 30.84,-7 30.84,-7.81 30.84,-5.79 30.84,3.87 30.84,4.17 30.84,-3.69 30.84,-2.99 30.84,-0.4 30.84,1.38 30.84,0.96 30.84,0.08 30.84,-0.19 30.84,-0.02 30.84,0.72 30.84,-0.23 30.84,1.93 30.84,0.31 30.84,-3.22"
         style="fill:none;stroke:#0000ff;stroke-width:19.998;stroke-linecap:butt;stroke-linejoin:round;stroke-miterlimit:10;stroke-dasharray:none;stroke-opacity:1"
         id="path780" /><path
         d="m 1230.84,4297.42 h 30.84 l 30.84,0.02 30.84,0.1 30.84,0.42 30.84,1.29 30.84,3.27 30.84,7.13 30.84,13.9 30.84,24.65 30.84,40.31 30.84,61.05 30.84,85.54 30.84,110.21 30.84,129.16 30.84,135.85 30.84,126.16 30.84,101.08 30.84,66.53 30.84,30.27 30.84,-1.53 30.84,-25.72 30.84,-41.98 30.84,-51.37 30.84,-55.61 30.84,-56.3 30.84,-54.66 30.84,-51.7 30.84,-48.11 30.84,-44.22 30.84,-40.33 30.84,-36.61 30.84,-33.15 30.84,-29.92 30.84,-26.95 30.84,-24.2 30.84,-21.75 30.84,-19.56 30.84,-17.58 30.84,-15.8 30.84,-14.29 30.84,-13.02 30.84,-11.97 30.84,-11.06 30.84,-10.31 30.84,-9.63 30.84,-9.02 30.84,-8.44 30.84,-7.84 30.84,-7.19 30.84,-6.56 30.84,-5.96 30.84,-5.42 30.84,-4.98 30.84,-4.62 30.84,-4.43 30.84,-4.32 30.84,-4.23 30.84,-4.17 30.84,-4.03 30.84,-3.85 30.84,-3.59 30.84,-3.27 30.84,-2.96 30.84,-2.72 30.84,-2.61 30.84,-2.6 30.84,-2.65 30.84,-2.7 30.84,-2.76 30.84,-2.69 30.84,-2.49 30.84,-2.26 30.84,-2.08 30.84,-2 30.84,-2.03 30.84,-2.13 30.84,-2.29 30.84,-2.42 30.84,-2.43 30.84,-2.34 30.84,-2.25 30.84,-2.31 30.84,-2.51 30.84,-2.34 30.84,-2.13 30.84,1.31 30.84,-2.74 30.84,-1 30.84,-3.5 30.84,-2.71 30.84,0.53 30.84,3.11 30.84,-1.96 30.84,-2.53 30.84,-1.1 30.84,-1.65 30.84,-2.03 30.84,-1.53 30.84,0.91"
         style="fill:none;stroke:#ff0000;stroke-width:19.998;stroke-linecap:butt;stroke-linejoin:bevel;stroke-miterlimit:10;stroke-dasharray:72, 72;stroke-dashoffset:0;stroke-opacity:1"
         id="path782" /><path
         d="m 1230.84,4297.42 h 30.84 l 30.84,0.02 30.84,0.1 30.84,0.42 30.84,1.29 30.84,3.28 30.84,7.16 30.84,13.98 30.84,24.86 30.84,40.77 30.84,62.02 30.84,87.36 30.84,113.3 30.84,133.79 30.84,141.8 30.84,132.57 30.84,106.63 30.84,70.06 30.84,31.17 30.84,-3.1 30.84,-29.19 30.84,-46.62 30.84,-56.56 30.84,-60.92 30.84,-61.41 30.84,-59.4 30.84,-56.06 30.84,-52.03 30.84,-47.75 30.84,-43.53 30.84,-39.57 30.84,-35.97 30.84,-32.7 30.84,-29.87 30.84,-27.65 30.84,-26.47 30.84,-27.9 30.84,-43.32 30.84,-16.7 30.84,55.07 30.84,-25.51 30.84,-17.64 30.84,-14.62 30.84,-13.03 30.84,-12.1 30.84,-11.28 30.84,-11 30.84,-10.94 30.84,-11.53 30.84,-13.34 30.84,-18.41 30.84,-41.72 30.84,-29.37 30.84,113.78 30.84,-11.73 30.84,-11.08 30.84,-9.54 30.84,-9.09 30.84,-8.92 30.84,-9.6 30.84,-12.51 30.84,-18.41 30.84,-32.55 30.84,7.71 30.84,72.57 30.84,-1.81 30.84,-10.04 30.84,-9.74 30.84,-10.2 30.84,-11.7 30.84,-15.2 30.84,-21.35 30.84,-8.87 30.84,54.01 30.84,16.36 30.84,-6.97 30.84,-10.48 30.84,-11.72 30.84,-13.95 30.84,-16.62 30.84,-9.92 30.84,29.84 30.84,25.51 30.84,-1.94 30.84,-10.01 30.84,-12.44 30.84,-14.2 30.84,-12.42 30.84,6.65 30.84,27.17 30.84,8.75 30.84,-6.53 30.84,-11.46 30.84,-12.9 30.84,-9.36 30.84,7.07 30.84,19.72 30.84,6.15 30.84,-6.39"
         style="fill:none;stroke:#00ff00;stroke-width:19.998;stroke-linecap:butt;stroke-linejoin:bevel;stroke-miterlimit:10;stroke-dasharray:72, 18, 36, 18;stroke-dashoffset:0;stroke-opacity:1"
         id="path784" /><path
         d="m 2388,4656 h 1818 v 540 H 2388 Z"
         style="fill:#ffffff;fill-opacity:1;fill-rule:nonzero;stroke:none"
         id="path786" /><g
         id="g788"
         transform="scale(10)"><text
           transform="matrix(1,0,0,-1,274.079,504.327)"
           style="font-variant:normal;font-weight:bold;font-size:13.5px;font-family:Helvetica;-inkscape-font-specification:Helvetica-Bold;writing-mode:lr-tb;fill:#000000;fill-opacity:1;fill-rule:nonzero;stroke:none"
           id="text792"><tspan
             x="0 9.7469997 18.751499 28.498501 38.245499 48.748501 57.752998 66.001503 75.748497 85.495499 89.248497 99.751503 103.5045 108 116.2485 120.0015 123.7545 133.5015"
             y="0"
             sodipodi:role="line"
             id="tspan790">HYDROSTAR with IRR</tspan></text></g><path
         d="m 2418.02,5097.28 h 300.25"
         style="fill:none;stroke:#0000ff;stroke-width:19.998;stroke-linecap:butt;stroke-linejoin:round;stroke-miterlimit:10;stroke-dasharray:none;stroke-opacity:1"
         id="path794" /><g
         id="g796"
         transform="scale(10)"><text
           transform="matrix(1,0,0,-1,274.079,487.2)"
           style="font-variant:normal;font-weight:bold;font-size:13.5px;font-family:Helvetica;-inkscape-font-specification:Helvetica-Bold;writing-mode:lr-tb;fill:#000000;fill-opacity:1;fill-rule:nonzero;stroke:none"
           id="text800"><tspan
             x="0 9.7469997 18.751499 29.997 40.5 50.247002 54 64.502998 68.255997 72.751503 81 84.752998 88.505997 98.252998"
             y="0"
             sodipodi:role="line"
             id="tspan798">NEMOH with IRR</tspan></text></g><path
         d="m 2418.02,4926 h 300.25"
         style="fill:none;stroke:#ff0000;stroke-width:19.998;stroke-linecap:butt;stroke-linejoin:bevel;stroke-miterlimit:10;stroke-dasharray:72, 72;stroke-dashoffset:0;stroke-opacity:1"
         id="path802" /><g
         id="g804"
         transform="scale(10)"><text
           transform="matrix(1,0,0,-1,274.079,470.073)"
           style="font-variant:normal;font-weight:bold;font-size:13.5px;font-family:Helvetica;-inkscape-font-specification:Helvetica-Bold;writing-mode:lr-tb;fill:#000000;fill-opacity:1;fill-rule:nonzero;stroke:none"
           id="text808"><tspan
             x="0 9.7469997 18.751499 29.997 40.5 50.247002 54 64.502998 68.255997 76.504501 84.752998 93.001503 97.497002 101.25 105.003 114.75"
             y="0"
             sodipodi:role="line"
             id="tspan806">NEMOH wihout IRR</tspan></text></g><path
         d="m 2418.02,4754.72 h 300.25"
         style="fill:none;stroke:#00ff00;stroke-width:19.998;stroke-linecap:butt;stroke-linejoin:bevel;stroke-miterlimit:10;stroke-dasharray:72, 18, 36, 18;stroke-dashoffset:0;stroke-opacity:1"
         id="path810" /><path
         d="m 2388,4656 h 1818 v 540 H 2388 Z"
         style="fill:none;stroke:#262626;stroke-width:4.998;stroke-linecap:butt;stroke-linejoin:miter;stroke-miterlimit:10;stroke-dasharray:none;stroke-opacity:1"
         id="path812" /><path
         d="M 5256,4236 H 8340 V 5268 H 5256 Z"
         style="fill:#ffffff;fill-opacity:1;fill-rule:nonzero;stroke:none"
         id="path814" /><path
         d="M 5256,4236 H 8340"
         style="fill:none;stroke:#262626;stroke-width:4.998;stroke-linecap:square;stroke-linejoin:round;stroke-miterlimit:10;stroke-dasharray:none;stroke-opacity:1"
         id="path816" /><path
         d="M 5256,5268 H 8340"
         style="fill:none;stroke:#262626;stroke-width:4.998;stroke-linecap:square;stroke-linejoin:round;stroke-miterlimit:10;stroke-dasharray:none;stroke-opacity:1"
         id="path818" /><path
         d="m 5256,4236 v 30.84"
         style="fill:none;stroke:#262626;stroke-width:4.998;stroke-linecap:square;stroke-linejoin:round;stroke-miterlimit:10;stroke-dasharray:none;stroke-opacity:1"
         id="path820" /><path
         d="m 5747.08,4236 v 30.84"
         style="fill:none;stroke:#262626;stroke-width:4.998;stroke-linecap:square;stroke-linejoin:round;stroke-miterlimit:10;stroke-dasharray:none;stroke-opacity:1"
         id="path822" /><path
         d="m 6238.16,4236 v 30.84"
         style="fill:none;stroke:#262626;stroke-width:4.998;stroke-linecap:square;stroke-linejoin:round;stroke-miterlimit:10;stroke-dasharray:none;stroke-opacity:1"
         id="path824" /><path
         d="m 6729.25,4236 v 30.84"
         style="fill:none;stroke:#262626;stroke-width:4.998;stroke-linecap:square;stroke-linejoin:round;stroke-miterlimit:10;stroke-dasharray:none;stroke-opacity:1"
         id="path826" /><path
         d="m 7220.34,4236 v 30.84"
         style="fill:none;stroke:#262626;stroke-width:4.998;stroke-linecap:square;stroke-linejoin:round;stroke-miterlimit:10;stroke-dasharray:none;stroke-opacity:1"
         id="path828" /><path
         d="m 7711.42,4236 v 30.84"
         style="fill:none;stroke:#262626;stroke-width:4.998;stroke-linecap:square;stroke-linejoin:round;stroke-miterlimit:10;stroke-dasharray:none;stroke-opacity:1"
         id="path830" /><path
         d="m 8202.5,4236 v 30.84"
         style="fill:none;stroke:#262626;stroke-width:4.998;stroke-linecap:square;stroke-linejoin:round;stroke-miterlimit:10;stroke-dasharray:none;stroke-opacity:1"
         id="path832" /><path
         d="m 5256,5268 v -30.84"
         style="fill:none;stroke:#262626;stroke-width:4.998;stroke-linecap:square;stroke-linejoin:round;stroke-miterlimit:10;stroke-dasharray:none;stroke-opacity:1"
         id="path834" /><path
         d="m 5747.08,5268 v -30.84"
         style="fill:none;stroke:#262626;stroke-width:4.998;stroke-linecap:square;stroke-linejoin:round;stroke-miterlimit:10;stroke-dasharray:none;stroke-opacity:1"
         id="path836" /><path
         d="m 6238.16,5268 v -30.84"
         style="fill:none;stroke:#262626;stroke-width:4.998;stroke-linecap:square;stroke-linejoin:round;stroke-miterlimit:10;stroke-dasharray:none;stroke-opacity:1"
         id="path838" /><path
         d="m 6729.25,5268 v -30.84"
         style="fill:none;stroke:#262626;stroke-width:4.998;stroke-linecap:square;stroke-linejoin:round;stroke-miterlimit:10;stroke-dasharray:none;stroke-opacity:1"
         id="path840" /><path
         d="m 7220.34,5268 v -30.84"
         style="fill:none;stroke:#262626;stroke-width:4.998;stroke-linecap:square;stroke-linejoin:round;stroke-miterlimit:10;stroke-dasharray:none;stroke-opacity:1"
         id="path842" /><path
         d="m 7711.42,5268 v -30.84"
         style="fill:none;stroke:#262626;stroke-width:4.998;stroke-linecap:square;stroke-linejoin:round;stroke-miterlimit:10;stroke-dasharray:none;stroke-opacity:1"
         id="path844" /><path
         d="m 8202.5,5268 v -30.84"
         style="fill:none;stroke:#262626;stroke-width:4.998;stroke-linecap:square;stroke-linejoin:round;stroke-miterlimit:10;stroke-dasharray:none;stroke-opacity:1"
         id="path846" /><g
         id="g848"
         transform="scale(10)"><text
           transform="matrix(1,0,0,-1,521.4,403)"
           style="font-variant:normal;font-weight:bold;font-size:15px;font-family:Helvetica;-inkscape-font-specification:Helvetica-Bold;writing-mode:lr-tb;fill:#262626;fill-opacity:1;fill-rule:nonzero;stroke:none"
           id="text852"><tspan
             x="0 49.1082 98.2164 147.32504 196.43324 245.54144 294.64966"
             y="0"
             sodipodi:role="line"
             id="tspan850">0123456</tspan></text></g><path
         d="m 6488.35,3814.12 c -6.31,0 -10.89,2.33 -13.74,6.99 -2.84,4.66 -4.26,10.33 -4.26,17.02 0,4.43 0.4,8.78 1.21,13.02 0.82,4.26 2.02,8.55 3.61,12.9 1.6,4.34 3.44,8.42 5.53,12.23 2.1,3.81 4.43,7.5 6.99,11.07 0.5,0.74 1.15,1.12 1.96,1.12 4.69,0 7.26,-0.22 7.7,-0.66 0.43,-0.43 0.65,-0.97 0.65,-1.59 0,-0.63 -0.16,-1.16 -0.47,-1.59 -10.19,-14.07 -15.28,-27.04 -15.28,-38.91 0,-5.13 1.19,-9.55 3.56,-13.27 2.38,-3.72 4,-5.57 4.88,-5.57 4.19,0 8.08,1.23 11.67,3.7 3.59,2.47 6.7,5.61 9.33,9.42 0,2 0.33,5.08 0.98,9.23 0.66,4.16 1.72,7.86 3.19,11.12 1.47,3.24 3.2,4.87 5.2,4.87 6.57,0 9.84,-1.5 9.84,-4.5 0,-1.75 -0.35,-3.95 -1.07,-6.61 -0.72,-2.65 -1.53,-5.13 -2.44,-7.41 -0.91,-2.28 -2.01,-4.89 -3.33,-7.82 1.32,-8 3.32,-12 6,-12 3.88,0 7.77,1.12 11.67,3.37 3.91,2.25 7.37,5.21 10.37,8.86 3,3.66 5.35,7.58 7.07,11.77 1.72,4.18 2.58,8.18 2.58,12 0,3.37 -0.53,6 -1.6,7.87 -1.06,1.88 -2.46,3.86 -4.21,5.95 -1.75,2.1 -2.63,3.77 -2.63,5.02 0,2.19 0.94,4.19 2.82,6 1.87,1.81 3.87,2.72 6,2.72 6.68,0 10.6,-1.25 11.76,-3.75 1.16,-2.5 1.74,-5.35 1.74,-8.54 0,-5.12 -1.02,-11.59 -3.05,-19.4 -2.03,-7.81 -4.36,-14.31 -6.98,-19.5 -3.63,-7.06 -8.16,-13.02 -13.6,-17.86 -5.44,-4.85 -13.56,-7.27 -24.37,-7.27 -4.32,0 -7.8,1.3 -10.46,3.9 -2.65,2.59 -3.98,3.88 -3.98,3.88 0,0 -1.97,-1.29 -5.91,-3.88 -3.93,-2.6 -10.24,-3.9 -18.93,-3.9"
         style="fill:#262626;fill-opacity:1;fill-rule:nonzero;stroke:none"
         id="path854" /><g
         id="g856"
         transform="scale(10)"><text
           transform="matrix(1,0,0,-1,662.187,381.6)"
           style="font-variant:normal;font-weight:bold;font-size:16.5px;font-family:Helvetica;-inkscape-font-specification:Helvetica-Bold;writing-mode:lr-tb;fill:#262626;fill-opacity:1;fill-rule:nonzero;stroke:none"
           id="text860"><tspan
             x="0 5.4945002 11.913 21.087 31.168501 35.755501 44.929501"
             y="0"
             sodipodi:role="line"
             id="tspan858">[rad/s]</tspan></text></g><path
         d="M 5256,4236 V 5268"
         style="fill:none;stroke:#262626;stroke-width:4.998;stroke-linecap:square;stroke-linejoin:round;stroke-miterlimit:10;stroke-dasharray:none;stroke-opacity:1"
         id="path862" /><path
         d="M 8340,4236 V 5268"
         style="fill:none;stroke:#262626;stroke-width:4.998;stroke-linecap:square;stroke-linejoin:round;stroke-miterlimit:10;stroke-dasharray:none;stroke-opacity:1"
         id="path864" /><path
         d="m 5256,4296.79 h 30.84"
         style="fill:none;stroke:#262626;stroke-width:4.998;stroke-linecap:square;stroke-linejoin:round;stroke-miterlimit:10;stroke-dasharray:none;stroke-opacity:1"
         id="path866" /><path
         d="m 5256,4744.68 h 30.84"
         style="fill:none;stroke:#262626;stroke-width:4.998;stroke-linecap:square;stroke-linejoin:round;stroke-miterlimit:10;stroke-dasharray:none;stroke-opacity:1"
         id="path868" /><path
         d="m 5256,5192.57 h 30.84"
         style="fill:none;stroke:#262626;stroke-width:4.998;stroke-linecap:square;stroke-linejoin:round;stroke-miterlimit:10;stroke-dasharray:none;stroke-opacity:1"
         id="path870" /><path
         d="m 8340,4296.79 h -30.84"
         style="fill:none;stroke:#262626;stroke-width:4.998;stroke-linecap:square;stroke-linejoin:round;stroke-miterlimit:10;stroke-dasharray:none;stroke-opacity:1"
         id="path872" /><path
         d="m 8340,4744.68 h -30.84"
         style="fill:none;stroke:#262626;stroke-width:4.998;stroke-linecap:square;stroke-linejoin:round;stroke-miterlimit:10;stroke-dasharray:none;stroke-opacity:1"
         id="path874" /><path
         d="m 8340,5192.57 h -30.84"
         style="fill:none;stroke:#262626;stroke-width:4.998;stroke-linecap:square;stroke-linejoin:round;stroke-miterlimit:10;stroke-dasharray:none;stroke-opacity:1"
         id="path876" /><g
         id="g878"
         transform="scale(10)"><text
           transform="matrix(1,0,0,-1,512.2,423.679)"
           style="font-variant:normal;font-weight:bold;font-size:15px;font-family:Helvetica;-inkscape-font-specification:Helvetica-Bold;writing-mode:lr-tb;fill:#262626;fill-opacity:1;fill-rule:nonzero;stroke:none"
           id="text886"><tspan
             x="0"
             y="0"
             id="tspan880">0</tspan><tspan
             x="0"
             y="-44.789501"
             id="tspan882">5</tspan><tspan
             x="-8.3999996 -0.059999999"
             y="-89.579002"
             sodipodi:role="line"
             id="tspan884">10</tspan></text><text
           transform="matrix(0,1,1,0,490.2,462.6)"
           style="font-variant:normal;font-weight:bold;font-size:16.5px;font-family:Helvetica;-inkscape-font-specification:Helvetica-Bold;writing-mode:lr-tb;fill:#262626;fill-opacity:1;fill-rule:nonzero;stroke:none"
           id="text890"><tspan
             x="0"
             y="0"
             id="tspan888">b</tspan></text><text
           transform="matrix(0,1,1,0,498,472.8)"
           style="font-variant:normal;font-weight:bold;font-size:13.2px;font-family:Helvetica;-inkscape-font-specification:Helvetica-Bold;writing-mode:lr-tb;fill:#262626;fill-opacity:1;fill-rule:nonzero;stroke:none"
           id="text894"><tspan
             x="0 7.3392"
             y="0"
             sodipodi:role="line"
             id="tspan892">22</tspan></text></g><path
         d="m 5278.03,5308.31 c 0,0.82 0.25,1.53 0.75,2.16 l 31.22,31.03 -31.22,31.22 c -0.5,0.5 -0.75,1.16 -0.75,1.97 0,0.75 0.3,1.44 0.89,2.06 0.6,0.63 1.3,0.94 2.11,0.94 4.69,0 7.44,-0.31 8.25,-0.94 l 28.04,-28.03 27.93,28.03 c 0.88,0.63 1.63,0.94 2.25,0.94 4.81,0 7.52,-0.3 8.11,-0.89 0.59,-0.6 0.89,-1.3 0.89,-2.11 0,-0.81 -0.25,-1.47 -0.75,-1.97 l -31.22,-31.22 31.22,-31.03 c 0.5,-0.63 0.75,-1.34 0.75,-2.16 0,-0.81 -0.3,-1.51 -0.89,-2.11 -0.59,-0.59 -3.3,-0.89 -8.11,-0.89 -0.75,0 -1.5,0.38 -2.25,1.13 l -27.93,27.84 -28.04,-27.84 c -0.69,-0.75 -3.44,-1.13 -8.25,-1.13 -0.81,0 -1.51,0.32 -2.11,0.94 -0.59,0.63 -0.89,1.31 -0.89,2.06"
         style="fill:#262626;fill-opacity:1;fill-rule:nonzero;stroke:none"
         id="path896" /><g
         id="g898"
         transform="scale(10)"><text
           transform="matrix(1,0,0,-1,538.2,530.4)"
           style="font-variant:normal;font-weight:bold;font-size:15px;font-family:Helvetica;-inkscape-font-specification:Helvetica-Bold;writing-mode:lr-tb;fill:#262626;fill-opacity:1;fill-rule:nonzero;stroke:none"
           id="text902"><tspan
             x="0 8.3400002"
             y="0"
             sodipodi:role="line"
             id="tspan900">10</tspan></text><text
           transform="matrix(1,0,0,-1,555,537.6)"
           style="font-variant:normal;font-weight:bold;font-size:12px;font-family:Helvetica;-inkscape-font-specification:Helvetica-Bold;writing-mode:lr-tb;fill:#262626;fill-opacity:1;fill-rule:nonzero;stroke:none"
           id="text906"><tspan
             x="0"
             y="0"
             id="tspan904">5</tspan></text></g><path
         d="m 5286.84,4296.79 h 30.84 l 30.84,0.01 30.84,0.1 30.84,0.42 30.84,1.29 30.84,3.28 30.84,7.16 30.84,13.99 30.84,24.86 30.84,40.78 30.84,62.03 30.84,87.42 30.84,113.37 30.84,133.88 30.84,141.91 30.84,132.62 30.84,106.58 30.84,69.85 30.84,30.84 30.84,-3.51 30.84,-29.68 30.84,-47.07 30.84,-57 30.84,-61.28 30.84,-61.65 30.84,-59.58 30.84,-56.08 30.84,-51.88 30.84,-47.45 30.84,-43.07 30.84,-38.91 30.84,-35.04 30.84,-31.52 30.84,-28.35 30.84,-25.53 30.84,-23.01 30.84,-20.78 30.84,-18.81 30.84,-17.07 30.84,-15.55 30.84,-14.21 30.84,-13.03 30.84,-11.99 30.84,-11.11 30.84,-10.33 30.84,-9.67 30.84,-9.13 30.84,-8.68 30.84,-8.33 30.84,-8.12 30.84,-8.03 30.84,-8.09 30.84,-8.33 30.84,-8.84 30.84,-9.7 30.84,-11.1 30.84,-13.32 30.84,-16.71 30.84,-21.52 30.84,-26.23 30.84,-21.89 30.84,6.76 30.84,34.15 30.84,26.54 30.84,11.4 30.84,1.77 30.84,-13.22 30.84,9.31 30.84,38.01 30.84,-9.69 30.84,-6.93 30.84,-7.95 30.84,-13.86 30.84,-47.81 30.84,79.87 30.84,-14.98 30.84,-10.18 30.84,-11.46 30.84,-5.93 30.84,22.14 30.84,-5.59 30.84,-6.94 30.84,-7.86 30.84,-5.85 30.84,3.84 30.84,4.25 30.84,-3.7 30.84,-3.01 30.84,-0.44 30.84,1.33 30.84,0.95 30.84,0.06 30.84,-0.18 h 30.84 l 30.84,0.73 30.84,-0.22 30.84,1.96 30.84,0.3 30.84,-3.18"
         style="fill:none;stroke:#0000ff;stroke-width:19.998;stroke-linecap:butt;stroke-linejoin:round;stroke-miterlimit:10;stroke-dasharray:none;stroke-opacity:1"
         id="path908" /><path
         d="m 5286.84,4296.79 h 30.84 l 30.84,0.01 30.84,0.1 30.84,0.42 30.84,1.29 30.84,3.27 30.84,7.14 30.84,13.91 30.84,24.68 30.84,40.35 30.84,61.11 30.84,85.64 30.84,110.36 30.84,129.36 30.84,136.09 30.84,126.4 30.84,101.28 30.84,66.66 30.84,30.32 30.84,-1.58 30.84,-25.81 30.84,-42.13 30.84,-51.52 30.84,-55.77 30.84,-56.46 30.84,-54.8 30.84,-51.83 30.84,-48.23 30.84,-44.33 30.84,-40.42 30.84,-36.71 30.84,-33.22 30.84,-29.99 30.84,-27.02 30.84,-24.28 30.84,-21.82 30.84,-19.61 30.84,-17.65 30.84,-15.87 30.84,-14.36 30.84,-13.07 30.84,-12.05 30.84,-11.13 30.84,-10.37 30.84,-9.7 30.84,-9.08 30.84,-8.49 30.84,-7.9 30.84,-7.27 30.84,-6.63 30.84,-6.01 30.84,-5.47 30.84,-5.03 30.84,-4.7 30.84,-4.48 30.84,-4.37 30.84,-4.29 30.84,-4.22 30.84,-4.09 30.84,-3.9 30.84,-3.66 30.84,-3.34 30.84,-3.02 30.84,-2.77 30.84,-2.67 30.84,-2.67 30.84,-2.72 30.84,-2.78 30.84,-2.84 30.84,-2.78 30.84,-2.62 30.84,-2.38 30.84,-2.22 30.84,-2.16 30.84,-2.21 30.84,-2.35 30.84,-2.55 30.84,-2.73 30.84,-2.82 30.84,-2.83 30.84,-2.86 30.84,-3.06 30.84,-3.39 30.84,-3.08 30.84,-1.78 30.84,1.61 30.84,-2.62 30.84,5.61 30.84,-3.35 30.84,2.16 30.84,-0.21 30.84,-0.77 30.84,-4.07 30.84,-4.9 30.84,2.62 30.84,1.37 30.84,-2.84 30.84,2.49 30.84,-3.51"
         style="fill:none;stroke:#ff0000;stroke-width:19.998;stroke-linecap:butt;stroke-linejoin:bevel;stroke-miterlimit:10;stroke-dasharray:72, 72;stroke-dashoffset:0;stroke-opacity:1"
         id="path910" /><path
         d="m 5286.84,4296.79 h 30.84 l 30.84,0.01 30.84,0.1 30.84,0.42 30.84,1.3 30.84,3.27 30.84,7.17 30.84,13.99 30.84,24.88 30.84,40.79 30.84,62.05 30.84,87.42 30.84,113.37 30.84,133.87 30.84,141.89 30.84,132.66 30.84,106.72 30.84,70.1 30.84,31.2 30.84,-3.09 30.84,-29.21 30.84,-46.65 30.84,-56.59 30.84,-60.95 30.84,-61.42 30.84,-59.43 30.84,-56.08 30.84,-52.04 30.84,-47.76 30.84,-43.55 30.84,-39.6 30.84,-35.95 30.84,-32.71 30.84,-29.88 30.84,-27.63 30.84,-26.43 30.84,-27.82 30.84,-42.92 30.84,-16.69 30.84,54.09 30.84,-25.44 30.84,-17.6 30.84,-14.61 30.84,-13.02 30.84,-12.15 30.84,-11.19 30.84,-10.98 30.84,-10.95 30.84,-11.49 30.84,-13.27 30.84,-18.06 30.84,-41.54 30.84,-30.27 30.84,113.72 30.84,-11.5 30.84,-11.15 30.84,-9.58 30.84,-9.06 30.84,-8.8 30.84,-9.58 30.84,-12.39 30.84,-18.21 30.84,-32.46 30.84,7.18 30.84,72.56 30.84,-1.89 30.84,-9.89 30.84,-9.86 30.84,-10.09 30.84,-11.63 30.84,-15.01 30.84,-21.21 30.84,-9.43 30.84,54.25 30.84,16.23 30.84,-6.95 30.84,-10.5 30.84,-11.64 30.84,-13.84 30.84,-16.57 30.84,-10.16 30.84,29.96 30.84,25.44 30.84,-1.94 30.84,-10.01 30.84,-12.39 30.84,-14.13 30.84,-12.54 30.84,6.55 30.84,27.37 30.84,8.66 30.84,-6.52 30.84,-11.45 30.84,-12.88 30.84,-9.51 30.84,7.01 30.84,19.99 30.84,6.11 30.84,-6.42"
         style="fill:none;stroke:#00ff00;stroke-width:19.998;stroke-linecap:butt;stroke-linejoin:bevel;stroke-miterlimit:10;stroke-dasharray:72, 18, 36, 18;stroke-dashoffset:0;stroke-opacity:1"
         id="path912" /><path
         d="M 1200,2508 H 4284 V 3540 H 1200 Z"
         style="fill:#ffffff;fill-opacity:1;fill-rule:nonzero;stroke:none"
         id="path914" /><path
         d="M 1200,2508 H 4284"
         style="fill:none;stroke:#262626;stroke-width:4.998;stroke-linecap:square;stroke-linejoin:round;stroke-miterlimit:10;stroke-dasharray:none;stroke-opacity:1"
         id="path916" /><path
         d="M 1200,3540 H 4284"
         style="fill:none;stroke:#262626;stroke-width:4.998;stroke-linecap:square;stroke-linejoin:round;stroke-miterlimit:10;stroke-dasharray:none;stroke-opacity:1"
         id="path918" /><path
         d="m 1200,2508 v 30.84"
         style="fill:none;stroke:#262626;stroke-width:4.998;stroke-linecap:square;stroke-linejoin:round;stroke-miterlimit:10;stroke-dasharray:none;stroke-opacity:1"
         id="path920" /><path
         d="m 1691.08,2508 v 30.84"
         style="fill:none;stroke:#262626;stroke-width:4.998;stroke-linecap:square;stroke-linejoin:round;stroke-miterlimit:10;stroke-dasharray:none;stroke-opacity:1"
         id="path922" /><path
         d="m 2182.16,2508 v 30.84"
         style="fill:none;stroke:#262626;stroke-width:4.998;stroke-linecap:square;stroke-linejoin:round;stroke-miterlimit:10;stroke-dasharray:none;stroke-opacity:1"
         id="path924" /><path
         d="m 2673.25,2508 v 30.84"
         style="fill:none;stroke:#262626;stroke-width:4.998;stroke-linecap:square;stroke-linejoin:round;stroke-miterlimit:10;stroke-dasharray:none;stroke-opacity:1"
         id="path926" /><path
         d="m 3164.34,2508 v 30.84"
         style="fill:none;stroke:#262626;stroke-width:4.998;stroke-linecap:square;stroke-linejoin:round;stroke-miterlimit:10;stroke-dasharray:none;stroke-opacity:1"
         id="path928" /><path
         d="m 3655.42,2508 v 30.84"
         style="fill:none;stroke:#262626;stroke-width:4.998;stroke-linecap:square;stroke-linejoin:round;stroke-miterlimit:10;stroke-dasharray:none;stroke-opacity:1"
         id="path930" /><path
         d="m 4146.5,2508 v 30.84"
         style="fill:none;stroke:#262626;stroke-width:4.998;stroke-linecap:square;stroke-linejoin:round;stroke-miterlimit:10;stroke-dasharray:none;stroke-opacity:1"
         id="path932" /><path
         d="m 1200,3540 v -30.84"
         style="fill:none;stroke:#262626;stroke-width:4.998;stroke-linecap:square;stroke-linejoin:round;stroke-miterlimit:10;stroke-dasharray:none;stroke-opacity:1"
         id="path934" /><path
         d="m 1691.08,3540 v -30.84"
         style="fill:none;stroke:#262626;stroke-width:4.998;stroke-linecap:square;stroke-linejoin:round;stroke-miterlimit:10;stroke-dasharray:none;stroke-opacity:1"
         id="path936" /><path
         d="m 2182.16,3540 v -30.84"
         style="fill:none;stroke:#262626;stroke-width:4.998;stroke-linecap:square;stroke-linejoin:round;stroke-miterlimit:10;stroke-dasharray:none;stroke-opacity:1"
         id="path938" /><path
         d="m 2673.25,3540 v -30.84"
         style="fill:none;stroke:#262626;stroke-width:4.998;stroke-linecap:square;stroke-linejoin:round;stroke-miterlimit:10;stroke-dasharray:none;stroke-opacity:1"
         id="path940" /><path
         d="m 3164.34,3540 v -30.84"
         style="fill:none;stroke:#262626;stroke-width:4.998;stroke-linecap:square;stroke-linejoin:round;stroke-miterlimit:10;stroke-dasharray:none;stroke-opacity:1"
         id="path942" /><path
         d="m 3655.42,3540 v -30.84"
         style="fill:none;stroke:#262626;stroke-width:4.998;stroke-linecap:square;stroke-linejoin:round;stroke-miterlimit:10;stroke-dasharray:none;stroke-opacity:1"
         id="path944" /><path
         d="m 4146.5,3540 v -30.84"
         style="fill:none;stroke:#262626;stroke-width:4.998;stroke-linecap:square;stroke-linejoin:round;stroke-miterlimit:10;stroke-dasharray:none;stroke-opacity:1"
         id="path946" /><g
         id="g948"
         transform="scale(10)"><text
           transform="matrix(1,0,0,-1,115.8,230.2)"
           style="font-variant:normal;font-weight:bold;font-size:15px;font-family:Helvetica;-inkscape-font-specification:Helvetica-Bold;writing-mode:lr-tb;fill:#262626;fill-opacity:1;fill-rule:nonzero;stroke:none"
           id="text952"><tspan
             x="0 49.1082 98.2164 147.32504 196.43324 245.54144 294.64966"
             y="0"
             sodipodi:role="line"
             id="tspan950">0123456</tspan></text></g><path
         d="m 2432.35,2086.12 c -6.31,0 -10.89,2.33 -13.74,6.99 -2.84,4.66 -4.26,10.33 -4.26,17.02 0,4.43 0.4,8.78 1.21,13.02 0.82,4.26 2.02,8.55 3.61,12.9 1.6,4.34 3.44,8.42 5.53,12.23 2.1,3.81 4.43,7.5 6.99,11.07 0.5,0.74 1.15,1.12 1.96,1.12 4.69,0 7.26,-0.22 7.7,-0.66 0.43,-0.43 0.65,-0.97 0.65,-1.59 0,-0.63 -0.16,-1.16 -0.47,-1.59 -10.19,-14.07 -15.28,-27.04 -15.28,-38.91 0,-5.13 1.19,-9.55 3.56,-13.27 2.38,-3.72 4,-5.57 4.88,-5.57 4.19,0 8.08,1.23 11.67,3.7 3.59,2.47 6.7,5.61 9.33,9.42 0,2 0.33,5.08 0.98,9.23 0.65,4.16 1.72,7.86 3.19,11.12 1.47,3.24 3.2,4.87 5.2,4.87 6.57,0 9.84,-1.5 9.84,-4.5 0,-1.75 -0.35,-3.95 -1.07,-6.61 -0.72,-2.65 -1.53,-5.13 -2.44,-7.41 -0.91,-2.28 -2.01,-4.89 -3.33,-7.82 1.32,-8 3.32,-12 6,-12 3.88,0 7.77,1.12 11.67,3.37 3.91,2.25 7.37,5.21 10.37,8.86 3,3.66 5.35,7.58 7.07,11.77 1.72,4.18 2.58,8.18 2.58,12 0,3.37 -0.53,6 -1.6,7.87 -1.06,1.88 -2.46,3.86 -4.21,5.95 -1.75,2.1 -2.63,3.77 -2.63,5.02 0,2.19 0.94,4.19 2.82,6 1.87,1.81 3.87,2.72 6,2.72 6.68,0 10.6,-1.25 11.76,-3.75 1.16,-2.5 1.74,-5.35 1.74,-8.54 0,-5.12 -1.02,-11.59 -3.05,-19.4 -2.03,-7.81 -4.36,-14.31 -6.98,-19.5 -3.63,-7.06 -8.16,-13.02 -13.6,-17.86 -5.44,-4.85 -13.56,-7.27 -24.37,-7.27 -4.32,0 -7.81,1.3 -10.46,3.9 -2.65,2.59 -3.98,3.88 -3.98,3.88 0,0 -1.97,-1.29 -5.91,-3.88 -3.93,-2.6 -10.24,-3.9 -18.93,-3.9"
         style="fill:#262626;fill-opacity:1;fill-rule:nonzero;stroke:none"
         id="path954" /><g
         id="g956"
         transform="scale(10)"><text
           transform="matrix(1,0,0,-1,256.587,208.8)"
           style="font-variant:normal;font-weight:bold;font-size:16.5px;font-family:Helvetica;-inkscape-font-specification:Helvetica-Bold;writing-mode:lr-tb;fill:#262626;fill-opacity:1;fill-rule:nonzero;stroke:none"
           id="text960"><tspan
             x="0 5.4945002 11.913 21.087 31.168501 35.755501 44.929501"
             y="0"
             sodipodi:role="line"
             id="tspan958">[rad/s]</tspan></text></g><path
         d="M 1200,2508 V 3540"
         style="fill:none;stroke:#262626;stroke-width:4.998;stroke-linecap:square;stroke-linejoin:round;stroke-miterlimit:10;stroke-dasharray:none;stroke-opacity:1"
         id="path962" /><path
         d="M 4284,2508 V 3540"
         style="fill:none;stroke:#262626;stroke-width:4.998;stroke-linecap:square;stroke-linejoin:round;stroke-miterlimit:10;stroke-dasharray:none;stroke-opacity:1"
         id="path964" /><path
         d="m 1200,2532.05 h 30.84"
         style="fill:none;stroke:#262626;stroke-width:4.998;stroke-linecap:square;stroke-linejoin:round;stroke-miterlimit:10;stroke-dasharray:none;stroke-opacity:1"
         id="path966" /><path
         d="m 1200,2805.52 h 30.84"
         style="fill:none;stroke:#262626;stroke-width:4.998;stroke-linecap:square;stroke-linejoin:round;stroke-miterlimit:10;stroke-dasharray:none;stroke-opacity:1"
         id="path968" /><path
         d="m 1200,3078.98 h 30.84"
         style="fill:none;stroke:#262626;stroke-width:4.998;stroke-linecap:square;stroke-linejoin:round;stroke-miterlimit:10;stroke-dasharray:none;stroke-opacity:1"
         id="path970" /><path
         d="m 1200,3352.45 h 30.84"
         style="fill:none;stroke:#262626;stroke-width:4.998;stroke-linecap:square;stroke-linejoin:round;stroke-miterlimit:10;stroke-dasharray:none;stroke-opacity:1"
         id="path972" /><path
         d="m 4284,2532.05 h -30.84"
         style="fill:none;stroke:#262626;stroke-width:4.998;stroke-linecap:square;stroke-linejoin:round;stroke-miterlimit:10;stroke-dasharray:none;stroke-opacity:1"
         id="path974" /><path
         d="m 4284,2805.52 h -30.84"
         style="fill:none;stroke:#262626;stroke-width:4.998;stroke-linecap:square;stroke-linejoin:round;stroke-miterlimit:10;stroke-dasharray:none;stroke-opacity:1"
         id="path976" /><path
         d="m 4284,3078.98 h -30.84"
         style="fill:none;stroke:#262626;stroke-width:4.998;stroke-linecap:square;stroke-linejoin:round;stroke-miterlimit:10;stroke-dasharray:none;stroke-opacity:1"
         id="path978" /><path
         d="m 4284,3352.45 h -30.84"
         style="fill:none;stroke:#262626;stroke-width:4.998;stroke-linecap:square;stroke-linejoin:round;stroke-miterlimit:10;stroke-dasharray:none;stroke-opacity:1"
         id="path980" /><g
         id="g982"
         transform="scale(10)"><text
           transform="matrix(1,0,0,-1,106.6,247.205)"
           style="font-variant:normal;font-weight:bold;font-size:15px;font-family:Helvetica;-inkscape-font-specification:Helvetica-Bold;writing-mode:lr-tb;fill:#262626;fill-opacity:1;fill-rule:nonzero;stroke:none"
           id="text992"><tspan
             x="0"
             y="0"
             id="tspan984">0</tspan><tspan
             x="0"
             y="-27.3465"
             id="tspan986">1</tspan><tspan
             x="0"
             y="-54.693401"
             id="tspan988">2</tspan><tspan
             x="0"
             y="-82.039902"
             id="tspan990">3</tspan></text><text
           transform="matrix(0,1,1,0,93,289.8)"
           style="font-variant:normal;font-weight:bold;font-size:16.5px;font-family:Helvetica;-inkscape-font-specification:Helvetica-Bold;writing-mode:lr-tb;fill:#262626;fill-opacity:1;fill-rule:nonzero;stroke:none"
           id="text996"><tspan
             x="0"
             y="0"
             id="tspan994">b</tspan></text><text
           transform="matrix(0,1,1,0,100.8,300)"
           style="font-variant:normal;font-weight:bold;font-size:13.2px;font-family:Helvetica;-inkscape-font-specification:Helvetica-Bold;writing-mode:lr-tb;fill:#262626;fill-opacity:1;fill-rule:nonzero;stroke:none"
           id="text1000"><tspan
             x="0 7.3392"
             y="0"
             sodipodi:role="line"
             id="tspan998">33</tspan></text></g><path
         d="m 1222.03,3580.31 c 0,0.82 0.25,1.53 0.75,2.16 l 31.22,31.03 -31.22,31.22 c -0.5,0.5 -0.75,1.16 -0.75,1.97 0,0.75 0.3,1.44 0.89,2.06 0.6,0.63 1.3,0.94 2.11,0.94 4.69,0 7.44,-0.31 8.25,-0.94 l 28.03,-28.03 27.94,28.03 c 0.88,0.63 1.63,0.94 2.25,0.94 4.81,0 7.52,-0.3 8.11,-0.89 0.59,-0.6 0.89,-1.3 0.89,-2.11 0,-0.81 -0.25,-1.47 -0.75,-1.97 l -31.22,-31.22 31.22,-31.03 c 0.5,-0.63 0.75,-1.34 0.75,-2.16 0,-0.81 -0.3,-1.51 -0.89,-2.11 -0.59,-0.59 -3.3,-0.89 -8.11,-0.89 -0.75,0 -1.5,0.38 -2.25,1.13 l -27.94,27.84 -28.03,-27.84 c -0.69,-0.75 -3.44,-1.13 -8.25,-1.13 -0.81,0 -1.51,0.32 -2.11,0.94 -0.59,0.63 -0.89,1.31 -0.89,2.06"
         style="fill:#262626;fill-opacity:1;fill-rule:nonzero;stroke:none"
         id="path1002" /><g
         id="g1004"
         transform="scale(10)"><text
           transform="matrix(1,0,0,-1,132.6,357.6)"
           style="font-variant:normal;font-weight:bold;font-size:15px;font-family:Helvetica;-inkscape-font-specification:Helvetica-Bold;writing-mode:lr-tb;fill:#262626;fill-opacity:1;fill-rule:nonzero;stroke:none"
           id="text1008"><tspan
             x="0 8.3400002"
             y="0"
             sodipodi:role="line"
             id="tspan1006">10</tspan></text><text
           transform="matrix(1,0,0,-1,149.4,364.8)"
           style="font-variant:normal;font-weight:bold;font-size:12px;font-family:Helvetica;-inkscape-font-specification:Helvetica-Bold;writing-mode:lr-tb;fill:#262626;fill-opacity:1;fill-rule:nonzero;stroke:none"
           id="text1012"><tspan
             x="0"
             y="0"
             id="tspan1010">4</tspan></text></g><path
         d="m 1230.84,2536.52 30.84,29.75 30.84,73 30.84,121.65 30.84,161.58 30.84,181.19 30.84,174.51 30.84,142.11 30.84,90.42 30.84,29.27 30.84,-30.7 30.84,-80.6 30.84,-114.88 30.84,-131.82 30.84,-133.18 30.84,-122.8 30.84,-105.32 30.84,-85.02 30.84,-65.09 30.84,-47.56 30.84,-33.27 30.84,-22.35 30.84,-14.46 30.84,-9.01 30.84,-5.4 30.84,-3.11 30.84,-1.72 30.84,-0.91 30.84,-0.44 30.84,-0.2 30.84,-0.07 30.84,-0.02 h 30.84 l 30.84,0.02 30.84,0.01 30.84,0.02 30.84,0.02 30.84,0.01 h 30.84 30.84 30.84 l 30.84,-0.01 h 30.84 l 30.84,-0.01 30.84,-0.02 30.84,-0.01 30.84,-0.01 30.84,-0.02 30.84,-0.03 30.84,-0.04 30.84,-0.04 30.84,-0.06 30.84,-0.09 30.84,-0.13 30.84,-0.19 30.84,-0.31 30.84,-0.52 30.84,-0.95 30.84,-1.91 30.84,-4.26 30.84,-9.21 30.84,-6.33 30.84,10.46 30.84,10.21 30.84,14.31 30.84,-3.22 30.84,-6.28 30.84,-1.48 30.84,-0.46 30.84,-0.15 30.84,-0.05 30.84,0.79 30.84,1.06 30.84,-1.18 30.84,-0.11 30.84,-0.08 30.84,0.38 30.84,1.7 30.84,-1.8 30.84,-0.12 30.84,0.09 30.84,0.07 30.84,0.14 30.84,-0.12 30.84,-0.06 30.84,0.04 30.84,0.06 30.84,0.05 h 30.84 l 30.84,-0.01 30.84,0.01 h 30.84 l 30.84,-0.01 30.84,-0.02 30.84,-0.03 30.84,-0.03 30.84,-0.06 30.84,-0.07 30.84,0.12 30.84,-0.06"
         style="fill:none;stroke:#0000ff;stroke-width:19.998;stroke-linecap:butt;stroke-linejoin:round;stroke-miterlimit:10;stroke-dasharray:none;stroke-opacity:1"
         id="path1014" /><path
         d="m 1230.84,2536.52 30.84,29.78 30.84,73.05 30.84,121.65 30.84,161.46 30.84,180.9 30.84,173.95 30.84,141.47 30.84,89.9 30.84,29.11 30.84,-30.24 30.84,-79.47 30.84,-113.24 30.84,-129.63 30.84,-131.79 30.84,-120.14 30.84,-105.04 30.84,-83.03 30.84,-67.24 30.84,-45.42 30.84,-37.92 30.84,-20.44 30.84,-17.02 30.84,-10.62 30.84,-6.8 30.84,-5.66 30.84,-0.75 30.84,-3.52 30.84,-2.14 30.84,2.45 30.84,-1.2 30.84,-1.11 30.84,0.64 30.84,1.4 30.84,0.18 30.84,0.29 30.84,0.47 30.84,0.55 30.84,0.42 30.84,0.32 30.84,0.2 30.84,0.11 30.84,0.07 h 30.84 l 30.84,-0.09 30.84,-0.11 30.84,-0.09 30.84,-0.07 30.84,-0.06 30.84,-0.03 h 30.84 l 30.84,0.03 30.84,0.05 30.84,0.06 30.84,0.04 30.84,0.03 h 30.84 l 30.84,-0.02 30.84,-0.02 30.84,-0.04 30.84,-0.02 30.84,-0.02 h 30.84 l 30.84,0.01 30.84,0.02 30.84,0.02 30.84,0.01 30.84,-0.01 30.84,-0.01 30.84,-0.02 30.84,-0.02 30.84,-0.01 h 30.84 l 30.84,0.01 30.84,0.01 30.84,0.01 h 30.84 30.84 30.84 l 30.84,-0.01 30.84,0.02 30.84,0.03 30.84,0.05 30.84,0.08 30.84,0.09 30.84,0.19 30.84,-0.26 30.84,0.02 h 30.84 l 30.84,0.01 30.84,-0.07 30.84,0.01 h 30.84 l 30.84,-0.03 30.84,0.04 h 30.84 l 30.84,-0.08 30.84,0.01 30.84,-0.03 H 4284"
         style="fill:none;stroke:#ff0000;stroke-width:19.998;stroke-linecap:butt;stroke-linejoin:bevel;stroke-miterlimit:10;stroke-dasharray:72, 72;stroke-dashoffset:0;stroke-opacity:1"
         id="path1016" /><path
         d="m 1230.84,2536.52 30.84,29.79 30.84,73.06 30.84,121.74 30.84,161.65 30.84,181.24 30.84,174.45 30.84,142.01 30.84,90.3 30.84,29.19 30.84,-30.69 30.84,-80.48 30.84,-114.69 30.84,-131.3 30.84,-133.51 30.84,-121.46 30.84,-106.02 30.84,-83.41 30.84,-67.21 30.84,-44.96 30.84,-37.26 30.84,-19.63 30.84,-16.2 30.84,-9.82 30.84,-6.16 30.84,-5.06 30.84,-0.27 30.84,-3.16 30.84,-1.86 30.84,2.7 30.84,-1.01 30.84,-0.72 30.84,0.55 30.84,1.54 30.84,0.22 30.84,0.26 30.84,0.52 30.84,0.6 30.84,0.38 30.84,0.25 30.84,0.19 30.84,0.1 30.84,0.06 h 30.84 l 30.84,-0.04 30.84,-0.01 30.84,0.11 30.84,-0.71 30.84,0.02 30.84,0.11 30.84,0.04 30.84,0.08 30.84,0.05 30.84,0.03 30.84,0.04 30.84,0.04 30.84,0.1 30.84,0.07 30.84,0.11 30.84,-0.41 30.84,-0.26 30.84,0.12 30.84,0.07 30.84,0.06 30.84,0.05 30.84,0.04 30.84,0.05 30.84,0.09 30.84,0.08 30.84,-0.28 30.84,-0.23 30.84,0.06 30.84,0.08 30.84,0.07 30.84,0.06 30.84,0.06 30.84,0.07 30.84,0.01 30.84,-0.26 30.84,-0.12 30.84,0.05 30.84,0.08 30.84,0.08 30.84,0.07 30.84,0.06 30.84,-0.04 30.84,-0.19 30.84,-0.08 30.84,0.05 30.84,0.07 30.84,0.08 30.84,0.07 30.84,-0.01 30.84,-0.14 30.84,-0.09 30.84,0.02 30.84,0.07 30.84,0.07 30.84,0.05 30.84,-0.03"
         style="fill:none;stroke:#00ff00;stroke-width:19.998;stroke-linecap:butt;stroke-linejoin:bevel;stroke-miterlimit:10;stroke-dasharray:72, 18, 36, 18;stroke-dashoffset:0;stroke-opacity:1"
         id="path1018" /><path
         d="M 5256,2508 H 8340 V 3540 H 5256 Z"
         style="fill:#ffffff;fill-opacity:1;fill-rule:nonzero;stroke:none"
         id="path1020" /><path
         d="M 5256,2508 H 8340"
         style="fill:none;stroke:#262626;stroke-width:4.998;stroke-linecap:square;stroke-linejoin:round;stroke-miterlimit:10;stroke-dasharray:none;stroke-opacity:1"
         id="path1022" /><path
         d="M 5256,3540 H 8340"
         style="fill:none;stroke:#262626;stroke-width:4.998;stroke-linecap:square;stroke-linejoin:round;stroke-miterlimit:10;stroke-dasharray:none;stroke-opacity:1"
         id="path1024" /><path
         d="m 5256,2508 v 30.84"
         style="fill:none;stroke:#262626;stroke-width:4.998;stroke-linecap:square;stroke-linejoin:round;stroke-miterlimit:10;stroke-dasharray:none;stroke-opacity:1"
         id="path1026" /><path
         d="m 5747.08,2508 v 30.84"
         style="fill:none;stroke:#262626;stroke-width:4.998;stroke-linecap:square;stroke-linejoin:round;stroke-miterlimit:10;stroke-dasharray:none;stroke-opacity:1"
         id="path1028" /><path
         d="m 6238.16,2508 v 30.84"
         style="fill:none;stroke:#262626;stroke-width:4.998;stroke-linecap:square;stroke-linejoin:round;stroke-miterlimit:10;stroke-dasharray:none;stroke-opacity:1"
         id="path1030" /><path
         d="m 6729.25,2508 v 30.84"
         style="fill:none;stroke:#262626;stroke-width:4.998;stroke-linecap:square;stroke-linejoin:round;stroke-miterlimit:10;stroke-dasharray:none;stroke-opacity:1"
         id="path1032" /><path
         d="m 7220.34,2508 v 30.84"
         style="fill:none;stroke:#262626;stroke-width:4.998;stroke-linecap:square;stroke-linejoin:round;stroke-miterlimit:10;stroke-dasharray:none;stroke-opacity:1"
         id="path1034" /><path
         d="m 7711.42,2508 v 30.84"
         style="fill:none;stroke:#262626;stroke-width:4.998;stroke-linecap:square;stroke-linejoin:round;stroke-miterlimit:10;stroke-dasharray:none;stroke-opacity:1"
         id="path1036" /><path
         d="m 8202.5,2508 v 30.84"
         style="fill:none;stroke:#262626;stroke-width:4.998;stroke-linecap:square;stroke-linejoin:round;stroke-miterlimit:10;stroke-dasharray:none;stroke-opacity:1"
         id="path1038" /><path
         d="m 5256,3540 v -30.84"
         style="fill:none;stroke:#262626;stroke-width:4.998;stroke-linecap:square;stroke-linejoin:round;stroke-miterlimit:10;stroke-dasharray:none;stroke-opacity:1"
         id="path1040" /><path
         d="m 5747.08,3540 v -30.84"
         style="fill:none;stroke:#262626;stroke-width:4.998;stroke-linecap:square;stroke-linejoin:round;stroke-miterlimit:10;stroke-dasharray:none;stroke-opacity:1"
         id="path1042" /><path
         d="m 6238.16,3540 v -30.84"
         style="fill:none;stroke:#262626;stroke-width:4.998;stroke-linecap:square;stroke-linejoin:round;stroke-miterlimit:10;stroke-dasharray:none;stroke-opacity:1"
         id="path1044" /><path
         d="m 6729.25,3540 v -30.84"
         style="fill:none;stroke:#262626;stroke-width:4.998;stroke-linecap:square;stroke-linejoin:round;stroke-miterlimit:10;stroke-dasharray:none;stroke-opacity:1"
         id="path1046" /><path
         d="m 7220.34,3540 v -30.84"
         style="fill:none;stroke:#262626;stroke-width:4.998;stroke-linecap:square;stroke-linejoin:round;stroke-miterlimit:10;stroke-dasharray:none;stroke-opacity:1"
         id="path1048" /><path
         d="m 7711.42,3540 v -30.84"
         style="fill:none;stroke:#262626;stroke-width:4.998;stroke-linecap:square;stroke-linejoin:round;stroke-miterlimit:10;stroke-dasharray:none;stroke-opacity:1"
         id="path1050" /><path
         d="m 8202.5,3540 v -30.84"
         style="fill:none;stroke:#262626;stroke-width:4.998;stroke-linecap:square;stroke-linejoin:round;stroke-miterlimit:10;stroke-dasharray:none;stroke-opacity:1"
         id="path1052" /><g
         id="g1054"
         transform="scale(10)"><text
           transform="matrix(1,0,0,-1,521.4,230.2)"
           style="font-variant:normal;font-weight:bold;font-size:15px;font-family:Helvetica;-inkscape-font-specification:Helvetica-Bold;writing-mode:lr-tb;fill:#262626;fill-opacity:1;fill-rule:nonzero;stroke:none"
           id="text1058"><tspan
             x="0 49.1082 98.2164 147.32504 196.43324 245.54144 294.64966"
             y="0"
             sodipodi:role="line"
             id="tspan1056">0123456</tspan></text></g><path
         d="m 6488.35,2086.12 c -6.31,0 -10.89,2.33 -13.74,6.99 -2.84,4.66 -4.26,10.33 -4.26,17.02 0,4.43 0.4,8.78 1.21,13.02 0.82,4.26 2.02,8.55 3.61,12.9 1.6,4.34 3.44,8.42 5.53,12.23 2.1,3.81 4.43,7.5 6.99,11.07 0.5,0.74 1.15,1.12 1.96,1.12 4.69,0 7.26,-0.22 7.7,-0.66 0.43,-0.43 0.65,-0.97 0.65,-1.59 0,-0.63 -0.16,-1.16 -0.47,-1.59 -10.19,-14.07 -15.28,-27.04 -15.28,-38.91 0,-5.13 1.19,-9.55 3.56,-13.27 2.38,-3.72 4,-5.57 4.88,-5.57 4.19,0 8.08,1.23 11.67,3.7 3.59,2.47 6.7,5.61 9.33,9.42 0,2 0.33,5.08 0.98,9.23 0.66,4.16 1.72,7.86 3.19,11.12 1.47,3.24 3.2,4.87 5.2,4.87 6.57,0 9.84,-1.5 9.84,-4.5 0,-1.75 -0.35,-3.95 -1.07,-6.61 -0.72,-2.65 -1.53,-5.13 -2.44,-7.41 -0.91,-2.28 -2.01,-4.89 -3.33,-7.82 1.32,-8 3.32,-12 6,-12 3.88,0 7.77,1.12 11.67,3.37 3.91,2.25 7.37,5.21 10.37,8.86 3,3.66 5.35,7.58 7.07,11.77 1.72,4.18 2.58,8.18 2.58,12 0,3.37 -0.53,6 -1.6,7.87 -1.06,1.88 -2.46,3.86 -4.21,5.95 -1.75,2.1 -2.63,3.77 -2.63,5.02 0,2.19 0.94,4.19 2.82,6 1.87,1.81 3.87,2.72 6,2.72 6.68,0 10.6,-1.25 11.76,-3.75 1.16,-2.5 1.74,-5.35 1.74,-8.54 0,-5.12 -1.02,-11.59 -3.05,-19.4 -2.03,-7.81 -4.36,-14.31 -6.98,-19.5 -3.63,-7.06 -8.16,-13.02 -13.6,-17.86 -5.44,-4.85 -13.56,-7.27 -24.37,-7.27 -4.32,0 -7.8,1.3 -10.46,3.9 -2.65,2.59 -3.98,3.88 -3.98,3.88 0,0 -1.97,-1.29 -5.91,-3.88 -3.93,-2.6 -10.24,-3.9 -18.93,-3.9"
         style="fill:#262626;fill-opacity:1;fill-rule:nonzero;stroke:none"
         id="path1060" /><g
         id="g1062"
         transform="scale(10)"><text
           transform="matrix(1,0,0,-1,662.187,208.8)"
           style="font-variant:normal;font-weight:bold;font-size:16.5px;font-family:Helvetica;-inkscape-font-specification:Helvetica-Bold;writing-mode:lr-tb;fill:#262626;fill-opacity:1;fill-rule:nonzero;stroke:none"
           id="text1066"><tspan
             x="0 5.4945002 11.913 21.087 31.168501 35.755501 44.929501"
             y="0"
             sodipodi:role="line"
             id="tspan1064">[rad/s]</tspan></text></g><path
         d="M 5256,2508 V 3540"
         style="fill:none;stroke:#262626;stroke-width:4.998;stroke-linecap:square;stroke-linejoin:round;stroke-miterlimit:10;stroke-dasharray:none;stroke-opacity:1"
         id="path1068" /><path
         d="M 8340,2508 V 3540"
         style="fill:none;stroke:#262626;stroke-width:4.998;stroke-linecap:square;stroke-linejoin:round;stroke-miterlimit:10;stroke-dasharray:none;stroke-opacity:1"
         id="path1070" /><path
         d="m 5256,2542.29 h 30.84"
         style="fill:none;stroke:#262626;stroke-width:4.998;stroke-linecap:square;stroke-linejoin:round;stroke-miterlimit:10;stroke-dasharray:none;stroke-opacity:1"
         id="path1072" /><path
         d="m 5256,2991.62 h 30.84"
         style="fill:none;stroke:#262626;stroke-width:4.998;stroke-linecap:square;stroke-linejoin:round;stroke-miterlimit:10;stroke-dasharray:none;stroke-opacity:1"
         id="path1074" /><path
         d="m 5256,3440.95 h 30.84"
         style="fill:none;stroke:#262626;stroke-width:4.998;stroke-linecap:square;stroke-linejoin:round;stroke-miterlimit:10;stroke-dasharray:none;stroke-opacity:1"
         id="path1076" /><path
         d="m 8340,2542.29 h -30.84"
         style="fill:none;stroke:#262626;stroke-width:4.998;stroke-linecap:square;stroke-linejoin:round;stroke-miterlimit:10;stroke-dasharray:none;stroke-opacity:1"
         id="path1078" /><path
         d="m 8340,2991.62 h -30.84"
         style="fill:none;stroke:#262626;stroke-width:4.998;stroke-linecap:square;stroke-linejoin:round;stroke-miterlimit:10;stroke-dasharray:none;stroke-opacity:1"
         id="path1080" /><path
         d="m 8340,3440.95 h -30.84"
         style="fill:none;stroke:#262626;stroke-width:4.998;stroke-linecap:square;stroke-linejoin:round;stroke-miterlimit:10;stroke-dasharray:none;stroke-opacity:1"
         id="path1082" /><g
         id="g1084"
         transform="scale(10)"><text
           transform="matrix(1,0,0,-1,512.2,248.229)"
           style="font-variant:normal;font-weight:bold;font-size:15px;font-family:Helvetica;-inkscape-font-specification:Helvetica-Bold;writing-mode:lr-tb;fill:#262626;fill-opacity:1;fill-rule:nonzero;stroke:none"
           id="text1092"><tspan
             x="0"
             y="0"
             id="tspan1086">0</tspan><tspan
             x="0"
             y="-44.9328"
             id="tspan1088">1</tspan><tspan
             x="0"
             y="-89.865997"
             id="tspan1090">2</tspan></text><text
           transform="matrix(0,1,1,0,498.6,289.8)"
           style="font-variant:normal;font-weight:bold;font-size:16.5px;font-family:Helvetica;-inkscape-font-specification:Helvetica-Bold;writing-mode:lr-tb;fill:#262626;fill-opacity:1;fill-rule:nonzero;stroke:none"
           id="text1096"><tspan
             x="0"
             y="0"
             id="tspan1094">b</tspan></text><text
           transform="matrix(0,1,1,0,506.4,300)"
           style="font-variant:normal;font-weight:bold;font-size:13.2px;font-family:Helvetica;-inkscape-font-specification:Helvetica-Bold;writing-mode:lr-tb;fill:#262626;fill-opacity:1;fill-rule:nonzero;stroke:none"
           id="text1100"><tspan
             x="0 7.3392"
             y="0"
             sodipodi:role="line"
             id="tspan1098">44</tspan></text></g><path
         d="m 5278.03,3580.31 c 0,0.82 0.25,1.53 0.75,2.16 l 31.22,31.03 -31.22,31.22 c -0.5,0.5 -0.75,1.16 -0.75,1.97 0,0.75 0.3,1.44 0.89,2.06 0.6,0.63 1.3,0.94 2.11,0.94 4.69,0 7.44,-0.31 8.25,-0.94 l 28.04,-28.03 27.93,28.03 c 0.88,0.63 1.63,0.94 2.25,0.94 4.81,0 7.52,-0.3 8.11,-0.89 0.59,-0.6 0.89,-1.3 0.89,-2.11 0,-0.81 -0.25,-1.47 -0.75,-1.97 l -31.22,-31.22 31.22,-31.03 c 0.5,-0.63 0.75,-1.34 0.75,-2.16 0,-0.81 -0.3,-1.51 -0.89,-2.11 -0.59,-0.59 -3.3,-0.89 -8.11,-0.89 -0.75,0 -1.5,0.38 -2.25,1.13 l -27.93,27.84 -28.04,-27.84 c -0.69,-0.75 -3.44,-1.13 -8.25,-1.13 -0.81,0 -1.51,0.32 -2.11,0.94 -0.59,0.63 -0.89,1.31 -0.89,2.06"
         style="fill:#262626;fill-opacity:1;fill-rule:nonzero;stroke:none"
         id="path1102" /><g
         id="g1104"
         transform="scale(10)"><text
           transform="matrix(1,0,0,-1,538.2,357.6)"
           style="font-variant:normal;font-weight:bold;font-size:15px;font-family:Helvetica;-inkscape-font-specification:Helvetica-Bold;writing-mode:lr-tb;fill:#262626;fill-opacity:1;fill-rule:nonzero;stroke:none"
           id="text1108"><tspan
             x="0 8.3400002"
             y="0"
             sodipodi:role="line"
             id="tspan1106">10</tspan></text><text
           transform="matrix(1,0,0,-1,555,364.8)"
           style="font-variant:normal;font-weight:bold;font-size:12px;font-family:Helvetica;-inkscape-font-specification:Helvetica-Bold;writing-mode:lr-tb;fill:#262626;fill-opacity:1;fill-rule:nonzero;stroke:none"
           id="text1112"><tspan
             x="0"
             y="0"
             id="tspan1110">7</tspan></text></g><path
         d="m 5286.84,2542.29 h 30.84 l 30.84,0.03 30.84,0.2 30.84,0.8 30.84,2.45 30.84,6.05 30.84,12.86 30.84,24.21 30.84,41.34 30.84,64.68 30.84,93.1 30.84,122.94 30.84,147.44 30.84,157.79 30.84,146.42 30.84,111.6 30.84,60 30.84,3.9 30.84,-44.67 30.84,-78.84 30.84,-97.51 30.84,-103.24 30.84,-100.11 30.84,-91.68 30.84,-80.83 30.84,-69.37 30.84,-58.43 30.84,-48.55 30.84,-39.97 30.84,-32.69 30.84,-26.62 30.84,-21.65 30.84,-17.58 30.84,-14.3 30.84,-11.63 30.84,-9.5 30.84,-7.77 30.84,-6.4 30.84,-5.28 30.84,-4.39 30.84,-3.65 30.84,-3.06 30.84,-2.6 30.84,-2.21 30.84,-1.89 30.84,-1.65 30.84,-1.44 30.84,-1.29 30.84,-1.17 30.84,-1.09 30.84,-1.05 30.84,-1.04 30.84,-1.07 30.84,-1.2 30.84,-1.39 30.84,-1.73 30.84,-2.33 30.84,-3.35 30.84,-5.06 30.84,-7.59 30.84,-9.2 30.84,-4.03 30.84,5.81 30.84,7.46 30.84,4.31 30.84,1.81 30.84,0.93 30.84,78.48 30.84,-55.02 30.84,-7.19 30.84,-2.24 30.84,-1.35 30.84,-0.96 30.84,7.06 30.84,1.34 30.84,-4.55 30.84,-1.5 30.84,0.02 30.84,1.08 30.84,3.12 30.84,-3.1 30.84,-0.91 30.84,-0.5 30.84,0.01 30.84,0.89 30.84,0.11 30.84,-0.4 30.84,-0.07 30.84,0.21 30.84,0.29 30.84,0.18 30.84,0.03 30.84,-0.05 30.84,-0.11 30.84,-0.14 30.84,0.2 30.84,-0.14 30.84,-0.22 30.84,-0.52"
         style="fill:none;stroke:#0000ff;stroke-width:19.998;stroke-linecap:butt;stroke-linejoin:round;stroke-miterlimit:10;stroke-dasharray:none;stroke-opacity:1"
         id="path1114" /><path
         d="m 5286.84,2542.29 h 30.84 l 30.84,0.03 30.84,0.2 30.84,0.81 30.84,2.45 30.84,6.04 30.84,12.84 30.84,24.15 30.84,41.17 30.84,64.25 30.84,92.21 30.84,121.24 30.84,144.68 30.84,153.98 30.84,142.24 30.84,108.28 30.84,58.87 30.84,5.77 30.84,-40.11 30.84,-72.56 30.84,-90.37 30.84,-96.73 30.84,-94.04 30.84,-87.04 30.84,-77.6 30.84,-66.78 30.84,-57.25 30.84,-48.5 30.84,-40.32 30.84,-33.68 30.84,-28.22 30.84,-23.36 30.84,-19.25 30.84,-15.87 30.84,-12.86 30.84,-10.36 30.84,-8.4 30.84,-6.74 30.84,-5.36 30.84,-4.39 30.84,-3.81 30.84,-3.43 30.84,-3.17 30.84,-2.96 30.84,-2.79 30.84,-2.6 30.84,-2.35 30.84,-2.05 30.84,-1.68 30.84,-1.3 30.84,-0.98 30.84,-0.75 30.84,-0.61 30.84,-0.55 30.84,-0.57 30.84,-0.63 30.84,-0.69 30.84,-0.72 30.84,-0.7 30.84,-0.64 30.84,-0.52 30.84,-0.41 30.84,-0.29 30.84,-0.23 30.84,-0.24 30.84,-0.26 30.84,-0.32 30.84,-0.34 30.84,-0.37 30.84,-0.33 30.84,-0.28 30.84,-0.21 30.84,-0.17 30.84,-0.15 30.84,-0.16 30.84,-0.2 30.84,-0.22 30.84,-0.23 30.84,-0.21 30.84,-0.16 30.84,-0.09 30.84,-0.04 30.84,0.06 30.84,0.26 30.84,0.8 30.84,-0.48 30.84,0.2 30.84,0.22 30.84,-0.46 30.84,0.06 30.84,-0.16 30.84,-0.18 30.84,-0.39 30.84,0.11 30.84,0.21 30.84,-0.24 30.84,-0.14 30.84,0.09 30.84,-0.15"
         style="fill:none;stroke:#ff0000;stroke-width:19.998;stroke-linecap:butt;stroke-linejoin:bevel;stroke-miterlimit:10;stroke-dasharray:72, 72;stroke-dashoffset:0;stroke-opacity:1"
         id="path1116" /><path
         d="m 5286.84,2542.29 h 30.84 l 30.84,0.03 30.84,0.2 30.84,0.81 30.84,2.45 30.84,6.06 30.84,12.86 30.84,24.24 30.84,41.38 30.84,64.73 30.84,93.18 30.84,123.04 30.84,147.57 30.84,157.93 30.84,146.61 30.84,111.88 30.84,60.34 30.84,4.4 30.84,-44.21 30.84,-78.36 30.84,-96.93 30.84,-103.01 30.84,-99.51 30.84,-91.51 30.84,-80.92 30.84,-69.09 30.84,-58.75 30.84,-49.33 30.84,-40.65 30.84,-33.64 30.84,-27.98 30.84,-23.09 30.84,-18.96 30.84,-15.63 30.84,-12.95 30.84,-11.11 30.84,-10.78 30.84,-16.04 30.84,41.01 30.84,-17.08 30.84,-9.44 30.84,-5.21 30.84,-3.88 30.84,-3.31 30.84,-3.01 30.84,-2.67 30.84,-2.52 30.84,-2.29 30.84,-2.11 30.84,-2.1 30.84,-2.49 30.84,-5.3 30.84,4.73 30.84,11.75 30.84,-3.11 30.84,-1.9 30.84,-1.46 30.84,-1.32 30.84,-1.18 30.84,-1.16 30.84,-1.36 30.84,-1.72 30.84,-2.42 30.84,3.79 30.84,6.26 30.84,-1.21 30.84,-1.34 30.84,-1.13 30.84,-1.05 30.84,-1.1 30.84,-1.22 30.84,-1.42 30.84,0.46 30.84,5.05 30.84,0.61 30.84,-1 30.84,-1.06 30.84,-1.01 30.84,-1.09 30.84,-1.09 30.84,-0.19 30.84,2.88 30.84,1.64 30.84,-0.51 30.84,-0.96 30.84,-1 30.84,-1.01 30.84,-0.66 30.84,0.93 30.84,2.1 30.84,0.38 30.84,-0.69 30.84,-0.93 30.84,-0.89 30.84,-0.49 30.84,0.78 30.84,1.47 30.84,0.26 30.84,-0.59"
         style="fill:none;stroke:#00ff00;stroke-width:19.998;stroke-linecap:butt;stroke-linejoin:bevel;stroke-miterlimit:10;stroke-dasharray:72, 18, 36, 18;stroke-dashoffset:0;stroke-opacity:1"
         id="path1118" /><path
         d="M 1200,786 H 4284 V 1812 H 1200 Z"
         style="fill:#ffffff;fill-opacity:1;fill-rule:nonzero;stroke:none"
         id="path1120" /><path
         d="M 1200,786 H 4284"
         style="fill:none;stroke:#262626;stroke-width:4.998;stroke-linecap:square;stroke-linejoin:round;stroke-miterlimit:10;stroke-dasharray:none;stroke-opacity:1"
         id="path1122" /><path
         d="M 1200,1812 H 4284"
         style="fill:none;stroke:#262626;stroke-width:4.998;stroke-linecap:square;stroke-linejoin:round;stroke-miterlimit:10;stroke-dasharray:none;stroke-opacity:1"
         id="path1124" /><path
         d="m 1200,786 v 30.84"
         style="fill:none;stroke:#262626;stroke-width:4.998;stroke-linecap:square;stroke-linejoin:round;stroke-miterlimit:10;stroke-dasharray:none;stroke-opacity:1"
         id="path1126" /><path
         d="m 1691.08,786 v 30.84"
         style="fill:none;stroke:#262626;stroke-width:4.998;stroke-linecap:square;stroke-linejoin:round;stroke-miterlimit:10;stroke-dasharray:none;stroke-opacity:1"
         id="path1128" /><path
         d="m 2182.16,786 v 30.84"
         style="fill:none;stroke:#262626;stroke-width:4.998;stroke-linecap:square;stroke-linejoin:round;stroke-miterlimit:10;stroke-dasharray:none;stroke-opacity:1"
         id="path1130" /><path
         d="m 2673.25,786 v 30.84"
         style="fill:none;stroke:#262626;stroke-width:4.998;stroke-linecap:square;stroke-linejoin:round;stroke-miterlimit:10;stroke-dasharray:none;stroke-opacity:1"
         id="path1132" /><path
         d="m 3164.34,786 v 30.84"
         style="fill:none;stroke:#262626;stroke-width:4.998;stroke-linecap:square;stroke-linejoin:round;stroke-miterlimit:10;stroke-dasharray:none;stroke-opacity:1"
         id="path1134" /><path
         d="m 3655.42,786 v 30.84"
         style="fill:none;stroke:#262626;stroke-width:4.998;stroke-linecap:square;stroke-linejoin:round;stroke-miterlimit:10;stroke-dasharray:none;stroke-opacity:1"
         id="path1136" /><path
         d="m 4146.5,786 v 30.84"
         style="fill:none;stroke:#262626;stroke-width:4.998;stroke-linecap:square;stroke-linejoin:round;stroke-miterlimit:10;stroke-dasharray:none;stroke-opacity:1"
         id="path1138" /><path
         d="m 1200,1812 v -30.84"
         style="fill:none;stroke:#262626;stroke-width:4.998;stroke-linecap:square;stroke-linejoin:round;stroke-miterlimit:10;stroke-dasharray:none;stroke-opacity:1"
         id="path1140" /><path
         d="m 1691.08,1812 v -30.84"
         style="fill:none;stroke:#262626;stroke-width:4.998;stroke-linecap:square;stroke-linejoin:round;stroke-miterlimit:10;stroke-dasharray:none;stroke-opacity:1"
         id="path1142" /><path
         d="m 2182.16,1812 v -30.84"
         style="fill:none;stroke:#262626;stroke-width:4.998;stroke-linecap:square;stroke-linejoin:round;stroke-miterlimit:10;stroke-dasharray:none;stroke-opacity:1"
         id="path1144" /><path
         d="m 2673.25,1812 v -30.84"
         style="fill:none;stroke:#262626;stroke-width:4.998;stroke-linecap:square;stroke-linejoin:round;stroke-miterlimit:10;stroke-dasharray:none;stroke-opacity:1"
         id="path1146" /><path
         d="m 3164.34,1812 v -30.84"
         style="fill:none;stroke:#262626;stroke-width:4.998;stroke-linecap:square;stroke-linejoin:round;stroke-miterlimit:10;stroke-dasharray:none;stroke-opacity:1"
         id="path1148" /><path
         d="m 3655.42,1812 v -30.84"
         style="fill:none;stroke:#262626;stroke-width:4.998;stroke-linecap:square;stroke-linejoin:round;stroke-miterlimit:10;stroke-dasharray:none;stroke-opacity:1"
         id="path1150" /><path
         d="m 4146.5,1812 v -30.84"
         style="fill:none;stroke:#262626;stroke-width:4.998;stroke-linecap:square;stroke-linejoin:round;stroke-miterlimit:10;stroke-dasharray:none;stroke-opacity:1"
         id="path1152" /><g
         id="g1154"
         transform="scale(10)"><text
           transform="matrix(1,0,0,-1,115.8,58)"
           style="font-variant:normal;font-weight:bold;font-size:15px;font-family:Helvetica;-inkscape-font-specification:Helvetica-Bold;writing-mode:lr-tb;fill:#262626;fill-opacity:1;fill-rule:nonzero;stroke:none"
           id="text1158"><tspan
             x="0 49.1082 98.2164 147.32504 196.43324 245.54144 294.64966"
             y="0"
             sodipodi:role="line"
             id="tspan1156">0123456</tspan></text></g><path
         d="m 2432.35,364.121 c -6.31,0 -10.89,2.332 -13.74,6.992 -2.84,4.657 -4.26,10.328 -4.26,17.016 0,4.434 0.4,8.777 1.21,13.023 0.82,4.254 2.02,8.551 3.61,12.895 1.6,4.344 3.44,8.422 5.53,12.234 2.1,3.813 4.43,7.5 6.99,11.067 0.5,0.746 1.15,1.121 1.96,1.121 4.69,0 7.26,-0.219 7.7,-0.656 0.43,-0.438 0.65,-0.973 0.65,-1.594 0,-0.625 -0.16,-1.156 -0.47,-1.59 -10.19,-14.066 -15.28,-27.035 -15.28,-38.91 0,-5.125 1.19,-9.547 3.56,-13.266 2.38,-3.719 4,-5.574 4.88,-5.574 4.19,0 8.08,1.234 11.67,3.699 3.59,2.469 6.7,5.61 9.33,9.422 0,2 0.33,5.078 0.98,9.234 0.65,4.157 1.72,7.86 3.19,11.114 1.47,3.246 3.2,4.871 5.2,4.871 6.57,0 9.84,-1.5 9.84,-4.5 0,-1.75 -0.35,-3.949 -1.07,-6.606 -0.72,-2.656 -1.53,-5.129 -2.44,-7.41 -0.91,-2.281 -2.01,-4.89 -3.33,-7.824 1.32,-8 3.32,-12 6,-12 3.88,0 7.77,1.121 11.67,3.371 3.91,2.25 7.37,5.207 10.37,8.863 3,3.657 5.35,7.578 7.07,11.766 1.72,4.184 2.58,8.184 2.58,12 0,3.371 -0.53,5.996 -1.6,7.871 -1.06,1.875 -2.46,3.859 -4.21,5.953 -1.75,2.094 -2.63,3.766 -2.63,5.016 0,2.187 0.94,4.187 2.82,6 1.87,1.812 3.87,2.719 6,2.719 6.68,0 10.6,-1.25 11.76,-3.75 1.16,-2.5 1.74,-5.348 1.74,-8.536 0,-5.121 -1.02,-11.589 -3.05,-19.402 -2.03,-7.812 -4.36,-14.312 -6.98,-19.5 -3.63,-7.062 -8.16,-13.02 -13.6,-17.863 -5.44,-4.844 -13.56,-7.266 -24.37,-7.266 -4.32,0 -7.81,1.297 -10.46,3.895 -2.65,2.593 -3.98,3.886 -3.98,3.886 0,0 -1.97,-1.293 -5.91,-3.886 -3.93,-2.598 -10.24,-3.895 -18.93,-3.895"
         style="fill:#262626;fill-opacity:1;fill-rule:nonzero;stroke:none"
         id="path1160" /><g
         id="g1162"
         transform="scale(10)"><text
           transform="matrix(1,0,0,-1,256.587,36.6)"
           style="font-variant:normal;font-weight:bold;font-size:16.5px;font-family:Helvetica;-inkscape-font-specification:Helvetica-Bold;writing-mode:lr-tb;fill:#262626;fill-opacity:1;fill-rule:nonzero;stroke:none"
           id="text1166"><tspan
             x="0 5.4945002 11.913 21.087 31.168501 35.755501 44.929501"
             y="0"
             sodipodi:role="line"
             id="tspan1164">[rad/s]</tspan></text></g><path
         d="M 1200,786 V 1812"
         style="fill:none;stroke:#262626;stroke-width:4.998;stroke-linecap:square;stroke-linejoin:round;stroke-miterlimit:10;stroke-dasharray:none;stroke-opacity:1"
         id="path1168" /><path
         d="M 4284,786 V 1812"
         style="fill:none;stroke:#262626;stroke-width:4.998;stroke-linecap:square;stroke-linejoin:round;stroke-miterlimit:10;stroke-dasharray:none;stroke-opacity:1"
         id="path1170" /><path
         d="m 1200,820.133 h 30.84"
         style="fill:none;stroke:#262626;stroke-width:4.998;stroke-linecap:square;stroke-linejoin:round;stroke-miterlimit:10;stroke-dasharray:none;stroke-opacity:1"
         id="path1172" /><path
         d="m 1200,1266.75 h 30.84"
         style="fill:none;stroke:#262626;stroke-width:4.998;stroke-linecap:square;stroke-linejoin:round;stroke-miterlimit:10;stroke-dasharray:none;stroke-opacity:1"
         id="path1174" /><path
         d="m 1200,1713.36 h 30.84"
         style="fill:none;stroke:#262626;stroke-width:4.998;stroke-linecap:square;stroke-linejoin:round;stroke-miterlimit:10;stroke-dasharray:none;stroke-opacity:1"
         id="path1176" /><path
         d="m 4284,820.133 h -30.84"
         style="fill:none;stroke:#262626;stroke-width:4.998;stroke-linecap:square;stroke-linejoin:round;stroke-miterlimit:10;stroke-dasharray:none;stroke-opacity:1"
         id="path1178" /><path
         d="m 4284,1266.75 h -30.84"
         style="fill:none;stroke:#262626;stroke-width:4.998;stroke-linecap:square;stroke-linejoin:round;stroke-miterlimit:10;stroke-dasharray:none;stroke-opacity:1"
         id="path1180" /><path
         d="m 4284,1713.36 h -30.84"
         style="fill:none;stroke:#262626;stroke-width:4.998;stroke-linecap:square;stroke-linejoin:round;stroke-miterlimit:10;stroke-dasharray:none;stroke-opacity:1"
         id="path1182" /><g
         id="g1184"
         transform="scale(10)"><text
           transform="matrix(1,0,0,-1,106.6,76.0137)"
           style="font-variant:normal;font-weight:bold;font-size:15px;font-family:Helvetica;-inkscape-font-specification:Helvetica-Bold;writing-mode:lr-tb;fill:#262626;fill-opacity:1;fill-rule:nonzero;stroke:none"
           id="text1192"><tspan
             x="0"
             y="0"
             id="tspan1186">0</tspan><tspan
             x="0"
             y="-44.6609"
             id="tspan1188">1</tspan><tspan
             x="0"
             y="-89.321404"
             id="tspan1190">2</tspan></text><text
           transform="matrix(0,1,1,0,93,117.6)"
           style="font-variant:normal;font-weight:bold;font-size:16.5px;font-family:Helvetica;-inkscape-font-specification:Helvetica-Bold;writing-mode:lr-tb;fill:#262626;fill-opacity:1;fill-rule:nonzero;stroke:none"
           id="text1196"><tspan
             x="0"
             y="0"
             id="tspan1194">b</tspan></text><text
           transform="matrix(0,1,1,0,100.8,127.8)"
           style="font-variant:normal;font-weight:bold;font-size:13.2px;font-family:Helvetica;-inkscape-font-specification:Helvetica-Bold;writing-mode:lr-tb;fill:#262626;fill-opacity:1;fill-rule:nonzero;stroke:none"
           id="text1200"><tspan
             x="0 7.3392"
             y="0"
             sodipodi:role="line"
             id="tspan1198">55</tspan></text></g><path
         d="m 1222.03,1852.31 c 0,0.82 0.25,1.53 0.75,2.16 l 31.22,31.03 -31.22,31.22 c -0.5,0.5 -0.75,1.16 -0.75,1.97 0,0.75 0.3,1.44 0.89,2.06 0.6,0.63 1.3,0.94 2.11,0.94 4.69,0 7.44,-0.31 8.25,-0.94 l 28.03,-28.03 27.94,28.03 c 0.88,0.63 1.63,0.94 2.25,0.94 4.81,0 7.52,-0.3 8.11,-0.89 0.59,-0.6 0.89,-1.3 0.89,-2.11 0,-0.81 -0.25,-1.47 -0.75,-1.97 l -31.22,-31.22 31.22,-31.03 c 0.5,-0.63 0.75,-1.34 0.75,-2.16 0,-0.81 -0.3,-1.51 -0.89,-2.11 -0.59,-0.59 -3.3,-0.89 -8.11,-0.89 -0.75,0 -1.5,0.38 -2.25,1.13 l -27.94,27.84 -28.03,-27.84 c -0.69,-0.75 -3.44,-1.13 -8.25,-1.13 -0.81,0 -1.51,0.32 -2.11,0.94 -0.59,0.63 -0.89,1.31 -0.89,2.06"
         style="fill:#262626;fill-opacity:1;fill-rule:nonzero;stroke:none"
         id="path1202" /><g
         id="g1204"
         transform="scale(10)"><text
           transform="matrix(1,0,0,-1,132.6,184.8)"
           style="font-variant:normal;font-weight:bold;font-size:15px;font-family:Helvetica;-inkscape-font-specification:Helvetica-Bold;writing-mode:lr-tb;fill:#262626;fill-opacity:1;fill-rule:nonzero;stroke:none"
           id="text1208"><tspan
             x="0 8.3400002"
             y="0"
             sodipodi:role="line"
             id="tspan1206">10</tspan></text><text
           transform="matrix(1,0,0,-1,149.4,192)"
           style="font-variant:normal;font-weight:bold;font-size:12px;font-family:Helvetica;-inkscape-font-specification:Helvetica-Bold;writing-mode:lr-tb;fill:#262626;fill-opacity:1;fill-rule:nonzero;stroke:none"
           id="text1212"><tspan
             x="0"
             y="0"
             id="tspan1210">7</tspan></text></g><path
         d="m 1230.84,820.133 30.84,0.008 30.84,0.031 30.84,0.191 30.84,0.797 30.84,2.43 30.84,6.012 30.84,12.757 30.84,24.043 30.84,41.043 30.84,64.239 30.84,92.476 30.84,122.14 30.84,146.5 30.84,156.82 30.84,145.55 30.84,110.99 30.84,59.72 30.84,4.09 30.84,-44.42 30.84,-78.3 30.84,-96.82 30.84,-102.63 30.84,-99.47 30.84,-91.13 30.84,-80.35 30.84,-68.98 30.84,-58.1 30.84,-48.29 30.84,-39.74 30.84,-32.513 30.84,-26.477 30.84,-21.527 30.84,-17.485 30.84,-14.215 30.84,-11.574 30.84,-9.441 30.84,-7.735 30.84,-6.359 30.84,-5.25 30.84,-4.359 30.84,-3.633 30.84,-3.051 30.84,-2.578 30.84,-2.195 30.84,-1.887 30.84,-1.637 30.84,-1.441 30.84,-1.281 30.84,-1.164 30.84,-1.086 30.84,-1.047 30.84,-1.043 30.84,-1.086 30.84,-1.196 30.84,-1.402 30.84,-1.746 30.84,-2.352 30.84,-3.371 30.84,-5.066 30.84,-7.566 30.84,-9.207 30.84,-3.77 30.84,5.563 30.84,7.144 30.84,4.656 30.84,1.797 30.84,0.91 30.84,78.332 30.84,-54.738 30.84,-7.203 30.84,-2.273 30.84,-1.36 30.84,-1.051 30.84,7.332 30.84,1.219 30.84,-4.609 30.84,-1.496 30.84,0.019 30.84,1.082 30.84,3.149 30.84,-3.121 30.84,-0.911 30.84,-0.503 30.84,0.015 30.84,0.891 30.84,0.113 30.84,-0.391 30.84,-0.07 30.84,0.207 30.84,0.289 30.84,0.176 30.84,0.027 30.84,-0.054 30.84,-0.106 30.84,-0.14 30.84,0.195 30.84,-0.141 30.84,-0.211 30.84,-0.527"
         style="fill:none;stroke:#0000ff;stroke-width:19.998;stroke-linecap:butt;stroke-linejoin:round;stroke-miterlimit:10;stroke-dasharray:none;stroke-opacity:1"
         id="path1214" /><path
         d="m 1230.84,820.133 30.84,0.008 30.84,0.031 30.84,0.191 30.84,0.805 30.84,2.43 30.84,6 30.84,12.742 30.84,23.984 30.84,40.875 30.84,63.817 30.84,91.574 30.84,120.43 30.84,143.73 30.84,152.98 30.84,141.32 30.84,107.65 30.84,58.6 30.84,5.89 30.84,-39.67 30.84,-71.91 30.84,-89.61 30.84,-95.97 30.84,-93.34 30.84,-86.43 30.84,-77.1 30.84,-66.35 30.84,-56.9 30.84,-48.24 30.84,-40.09 30.84,-33.506 30.84,-28.074 30.84,-23.254 30.84,-19.16 30.84,-15.797 30.84,-12.805 30.84,-10.312 30.84,-8.371 30.84,-6.707 30.84,-5.336 30.84,-4.367 30.84,-3.793 30.84,-3.414 30.84,-3.149 30.84,-2.945 30.84,-2.774 30.84,-2.586 30.84,-2.347 30.84,-2.031 30.84,-1.664 30.84,-1.297 30.84,-0.977 30.84,-0.742 30.84,-0.609 30.84,-0.543 30.84,-0.567 30.84,-0.617 30.84,-0.691 30.84,-0.711 30.84,-0.7 30.84,-0.621 30.84,-0.523 30.84,-0.402 30.84,-0.293 30.84,-0.235 30.84,-0.234 30.84,-0.262 30.84,-0.312 30.84,-0.348 30.84,-0.363 30.84,-0.336 30.84,-0.27 30.84,-0.207 30.84,-0.168 30.84,-0.156 30.84,-0.176 30.84,-0.199 30.84,-0.227 30.84,-0.238 30.84,-0.223 30.84,-0.175 30.84,-0.133 30.84,-0.094 30.84,-0.062 30.84,0.039 30.84,0.078 30.84,-0.106 30.84,-0.258 30.84,0.176 30.84,-0.203 30.84,0.055 30.84,0.609 30.84,-0.179 30.84,-0.34 30.84,-0.145 30.84,0.121 30.84,-0.433 h 30.84 l 30.84,-0.047 30.84,0.14"
         style="fill:none;stroke:#ff0000;stroke-width:19.998;stroke-linecap:butt;stroke-linejoin:bevel;stroke-miterlimit:10;stroke-dasharray:72, 72;stroke-dashoffset:0;stroke-opacity:1"
         id="path1216" /><path
         d="m 1230.84,820.133 30.84,0.008 30.84,0.031 30.84,0.191 30.84,0.805 30.84,2.43 30.84,6.015 30.84,12.77 30.84,24.07 30.84,41.094 30.84,64.308 30.84,92.585 30.84,122.25 30.84,146.67 30.84,157 30.84,145.77 30.84,111.3 30.84,60.09 30.84,4.48 30.84,-43.85 30.84,-77.82 30.84,-96.3 30.84,-102.39 30.84,-98.91 30.84,-91.01 30.84,-80.48 30.84,-68.7 30.84,-58.46 30.84,-49.08 30.84,-40.44 30.84,-33.466 30.84,-27.84 30.84,-22.973 30.84,-18.863 30.84,-15.57 30.84,-12.903 30.84,-11.07 30.84,-10.758 30.84,-16.14 30.84,40.957 30.84,-16.668 30.84,-9.457 30.84,-5.2 30.84,-3.882 30.84,-3.289 30.84,-3 30.84,-2.688 30.84,-2.508 30.84,-2.281 30.84,-2.109 30.84,-2.106 30.84,-2.535 30.84,-5.277 30.84,4.812 30.84,11.738 30.84,-3.14 30.84,-1.864 30.84,-1.46 30.84,-1.332 30.84,-1.196 30.84,-1.144 30.84,-1.375 30.84,-1.743 30.84,-2.421 30.84,3.839 30.84,6.258 30.84,-1.222 30.84,-1.34 30.84,-1.117 30.84,-1.059 30.84,-1.105 30.84,-1.231 30.84,-1.426 30.84,0.489 30.84,5.023 30.84,0.637 30.84,-1.004 30.84,-1.047 30.84,-1.035 30.84,-1.102 30.84,-1.094 30.84,-0.16 30.84,2.871 30.84,1.645 30.84,-0.52 30.84,-0.949 30.84,-1 30.84,-1.015 30.84,-0.661 30.84,0.938 30.84,2.094 30.84,0.375 30.84,-0.688 30.84,-0.918 30.84,-0.902 30.84,-0.492 30.84,0.793 30.84,1.453 30.84,0.269 30.84,-0.593"
         style="fill:none;stroke:#00ff00;stroke-width:19.998;stroke-linecap:butt;stroke-linejoin:bevel;stroke-miterlimit:10;stroke-dasharray:72, 18, 36, 18;stroke-dashoffset:0;stroke-opacity:1"
         id="path1218" /><path
         d="M 5256,786 H 8340 V 1812 H 5256 Z"
         style="fill:#ffffff;fill-opacity:1;fill-rule:nonzero;stroke:none"
         id="path1220" /><path
         d="M 5256,786 H 8340"
         style="fill:none;stroke:#262626;stroke-width:4.998;stroke-linecap:square;stroke-linejoin:round;stroke-miterlimit:10;stroke-dasharray:none;stroke-opacity:1"
         id="path1222" /><path
         d="M 5256,1812 H 8340"
         style="fill:none;stroke:#262626;stroke-width:4.998;stroke-linecap:square;stroke-linejoin:round;stroke-miterlimit:10;stroke-dasharray:none;stroke-opacity:1"
         id="path1224" /><path
         d="m 5256,786 v 30.84"
         style="fill:none;stroke:#262626;stroke-width:4.998;stroke-linecap:square;stroke-linejoin:round;stroke-miterlimit:10;stroke-dasharray:none;stroke-opacity:1"
         id="path1226" /><path
         d="m 5747.08,786 v 30.84"
         style="fill:none;stroke:#262626;stroke-width:4.998;stroke-linecap:square;stroke-linejoin:round;stroke-miterlimit:10;stroke-dasharray:none;stroke-opacity:1"
         id="path1228" /><path
         d="m 6238.16,786 v 30.84"
         style="fill:none;stroke:#262626;stroke-width:4.998;stroke-linecap:square;stroke-linejoin:round;stroke-miterlimit:10;stroke-dasharray:none;stroke-opacity:1"
         id="path1230" /><path
         d="m 6729.25,786 v 30.84"
         style="fill:none;stroke:#262626;stroke-width:4.998;stroke-linecap:square;stroke-linejoin:round;stroke-miterlimit:10;stroke-dasharray:none;stroke-opacity:1"
         id="path1232" /><path
         d="m 7220.34,786 v 30.84"
         style="fill:none;stroke:#262626;stroke-width:4.998;stroke-linecap:square;stroke-linejoin:round;stroke-miterlimit:10;stroke-dasharray:none;stroke-opacity:1"
         id="path1234" /><path
         d="m 7711.42,786 v 30.84"
         style="fill:none;stroke:#262626;stroke-width:4.998;stroke-linecap:square;stroke-linejoin:round;stroke-miterlimit:10;stroke-dasharray:none;stroke-opacity:1"
         id="path1236" /><path
         d="m 8202.5,786 v 30.84"
         style="fill:none;stroke:#262626;stroke-width:4.998;stroke-linecap:square;stroke-linejoin:round;stroke-miterlimit:10;stroke-dasharray:none;stroke-opacity:1"
         id="path1238" /><path
         d="m 5256,1812 v -30.84"
         style="fill:none;stroke:#262626;stroke-width:4.998;stroke-linecap:square;stroke-linejoin:round;stroke-miterlimit:10;stroke-dasharray:none;stroke-opacity:1"
         id="path1240" /><path
         d="m 5747.08,1812 v -30.84"
         style="fill:none;stroke:#262626;stroke-width:4.998;stroke-linecap:square;stroke-linejoin:round;stroke-miterlimit:10;stroke-dasharray:none;stroke-opacity:1"
         id="path1242" /><path
         d="m 6238.16,1812 v -30.84"
         style="fill:none;stroke:#262626;stroke-width:4.998;stroke-linecap:square;stroke-linejoin:round;stroke-miterlimit:10;stroke-dasharray:none;stroke-opacity:1"
         id="path1244" /><path
         d="m 6729.25,1812 v -30.84"
         style="fill:none;stroke:#262626;stroke-width:4.998;stroke-linecap:square;stroke-linejoin:round;stroke-miterlimit:10;stroke-dasharray:none;stroke-opacity:1"
         id="path1246" /><path
         d="m 7220.34,1812 v -30.84"
         style="fill:none;stroke:#262626;stroke-width:4.998;stroke-linecap:square;stroke-linejoin:round;stroke-miterlimit:10;stroke-dasharray:none;stroke-opacity:1"
         id="path1248" /><path
         d="m 7711.42,1812 v -30.84"
         style="fill:none;stroke:#262626;stroke-width:4.998;stroke-linecap:square;stroke-linejoin:round;stroke-miterlimit:10;stroke-dasharray:none;stroke-opacity:1"
         id="path1250" /><path
         d="m 8202.5,1812 v -30.84"
         style="fill:none;stroke:#262626;stroke-width:4.998;stroke-linecap:square;stroke-linejoin:round;stroke-miterlimit:10;stroke-dasharray:none;stroke-opacity:1"
         id="path1252" /><g
         id="g1254"
         transform="scale(10)"><text
           transform="matrix(1,0,0,-1,521.4,58)"
           style="font-variant:normal;font-weight:bold;font-size:15px;font-family:Helvetica;-inkscape-font-specification:Helvetica-Bold;writing-mode:lr-tb;fill:#262626;fill-opacity:1;fill-rule:nonzero;stroke:none"
           id="text1258"><tspan
             x="0 49.1082 98.2164 147.32504 196.43324 245.54144 294.64966"
             y="0"
             sodipodi:role="line"
             id="tspan1256">0123456</tspan></text></g><path
         d="m 6488.35,364.121 c -6.31,0 -10.89,2.332 -13.74,6.992 -2.84,4.657 -4.26,10.328 -4.26,17.016 0,4.434 0.4,8.777 1.21,13.023 0.82,4.254 2.02,8.551 3.61,12.895 1.6,4.344 3.44,8.422 5.53,12.234 2.1,3.813 4.43,7.5 6.99,11.067 0.5,0.746 1.15,1.121 1.96,1.121 4.69,0 7.26,-0.219 7.7,-0.656 0.43,-0.438 0.65,-0.973 0.65,-1.594 0,-0.625 -0.16,-1.156 -0.47,-1.59 -10.19,-14.066 -15.28,-27.035 -15.28,-38.91 0,-5.125 1.19,-9.547 3.56,-13.266 2.38,-3.719 4,-5.574 4.88,-5.574 4.19,0 8.08,1.234 11.67,3.699 3.59,2.469 6.7,5.61 9.33,9.422 0,2 0.33,5.078 0.98,9.234 0.66,4.157 1.72,7.86 3.19,11.114 1.47,3.246 3.2,4.871 5.2,4.871 6.57,0 9.84,-1.5 9.84,-4.5 0,-1.75 -0.35,-3.949 -1.07,-6.606 -0.72,-2.656 -1.53,-5.129 -2.44,-7.41 -0.91,-2.281 -2.01,-4.89 -3.33,-7.824 1.32,-8 3.32,-12 6,-12 3.88,0 7.77,1.121 11.67,3.371 3.91,2.25 7.37,5.207 10.37,8.863 3,3.657 5.35,7.578 7.07,11.766 1.72,4.184 2.58,8.184 2.58,12 0,3.371 -0.53,5.996 -1.6,7.871 -1.06,1.875 -2.46,3.859 -4.21,5.953 -1.75,2.094 -2.63,3.766 -2.63,5.016 0,2.187 0.94,4.187 2.82,6 1.87,1.812 3.87,2.719 6,2.719 6.68,0 10.6,-1.25 11.76,-3.75 1.16,-2.5 1.74,-5.348 1.74,-8.536 0,-5.121 -1.02,-11.589 -3.05,-19.402 -2.03,-7.812 -4.36,-14.312 -6.98,-19.5 -3.63,-7.062 -8.16,-13.02 -13.6,-17.863 -5.44,-4.844 -13.56,-7.266 -24.37,-7.266 -4.32,0 -7.8,1.297 -10.46,3.895 -2.65,2.593 -3.98,3.886 -3.98,3.886 0,0 -1.97,-1.293 -5.91,-3.886 -3.93,-2.598 -10.24,-3.895 -18.93,-3.895"
         style="fill:#262626;fill-opacity:1;fill-rule:nonzero;stroke:none"
         id="path1260" /><g
         id="g1262"
         transform="scale(10)"><text
           transform="matrix(1,0,0,-1,662.187,36.6)"
           style="font-variant:normal;font-weight:bold;font-size:16.5px;font-family:Helvetica;-inkscape-font-specification:Helvetica-Bold;writing-mode:lr-tb;fill:#262626;fill-opacity:1;fill-rule:nonzero;stroke:none"
           id="text1266"><tspan
             x="0 5.4945002 11.913 21.087 31.168501 35.755501 44.929501"
             y="0"
             sodipodi:role="line"
             id="tspan1264">[rad/s]</tspan></text></g><path
         d="M 5256,786 V 1812"
         style="fill:none;stroke:#262626;stroke-width:4.998;stroke-linecap:square;stroke-linejoin:round;stroke-miterlimit:10;stroke-dasharray:none;stroke-opacity:1"
         id="path1268" /><path
         d="M 8340,786 V 1812"
         style="fill:none;stroke:#262626;stroke-width:4.998;stroke-linecap:square;stroke-linejoin:round;stroke-miterlimit:10;stroke-dasharray:none;stroke-opacity:1"
         id="path1270" /><path
         d="m 5256,786 h 30.84"
         style="fill:none;stroke:#262626;stroke-width:4.998;stroke-linecap:square;stroke-linejoin:round;stroke-miterlimit:10;stroke-dasharray:none;stroke-opacity:1"
         id="path1272" /><path
         d="m 5256,1299 h 30.84"
         style="fill:none;stroke:#262626;stroke-width:4.998;stroke-linecap:square;stroke-linejoin:round;stroke-miterlimit:10;stroke-dasharray:none;stroke-opacity:1"
         id="path1274" /><path
         d="m 5256,1812 h 30.84"
         style="fill:none;stroke:#262626;stroke-width:4.998;stroke-linecap:square;stroke-linejoin:round;stroke-miterlimit:10;stroke-dasharray:none;stroke-opacity:1"
         id="path1276" /><path
         d="m 8340,786 h -30.84"
         style="fill:none;stroke:#262626;stroke-width:4.998;stroke-linecap:square;stroke-linejoin:round;stroke-miterlimit:10;stroke-dasharray:none;stroke-opacity:1"
         id="path1278" /><path
         d="m 8340,1299 h -30.84"
         style="fill:none;stroke:#262626;stroke-width:4.998;stroke-linecap:square;stroke-linejoin:round;stroke-miterlimit:10;stroke-dasharray:none;stroke-opacity:1"
         id="path1280" /><path
         d="m 8340,1812 h -30.84"
         style="fill:none;stroke:#262626;stroke-width:4.998;stroke-linecap:square;stroke-linejoin:round;stroke-miterlimit:10;stroke-dasharray:none;stroke-opacity:1"
         id="path1282" /><g
         id="g1284"
         transform="scale(10)"><text
           transform="matrix(1,0,0,-1,512.2,72.6)"
           style="font-variant:normal;font-weight:bold;font-size:15px;font-family:Helvetica;-inkscape-font-specification:Helvetica-Bold;writing-mode:lr-tb;fill:#262626;fill-opacity:1;fill-rule:nonzero;stroke:none"
           id="text1292"><tspan
             x="0"
             y="0"
             id="tspan1286">0</tspan><tspan
             x="-8.3999996 -0.059999999"
             y="-51.299999"
             sodipodi:role="line"
             id="tspan1288">20</tspan><tspan
             x="-8.3999996 -0.059999999"
             y="-102.6"
             sodipodi:role="line"
             id="tspan1290">40</tspan></text><text
           transform="matrix(0,1,1,0,490.2,117.6)"
           style="font-variant:normal;font-weight:bold;font-size:16.5px;font-family:Helvetica;-inkscape-font-specification:Helvetica-Bold;writing-mode:lr-tb;fill:#262626;fill-opacity:1;fill-rule:nonzero;stroke:none"
           id="text1296"><tspan
             x="0"
             y="0"
             id="tspan1294">b</tspan></text><text
           transform="matrix(0,1,1,0,498,127.8)"
           style="font-variant:normal;font-weight:bold;font-size:13.2px;font-family:Helvetica;-inkscape-font-specification:Helvetica-Bold;writing-mode:lr-tb;fill:#262626;fill-opacity:1;fill-rule:nonzero;stroke:none"
           id="text1300"><tspan
             x="0 7.3392"
             y="0"
             sodipodi:role="line"
             id="tspan1298">66</tspan></text></g><path
         d="m 5286.84,786 h 61.68 l 30.84,0.012 30.84,0.047 30.84,0.164 30.84,0.406 30.84,0.93 30.84,1.867 30.84,3.414 30.84,5.801 30.84,9.218 30.84,13.723 30.84,19.133 30.84,24.906 30.84,30.137 30.84,33.851 30.84,35.473 30.84,35.008 30.84,33.34 30.84,30.98 30.84,28.84 30.84,27.29 30.84,26.6 30.84,26.77 30.84,28.57 30.84,32.34 30.84,38.68 30.84,47.34 30.84,56.62 30.84,63.27 30.84,63.89 30.84,57.66 30.84,47.61 30.84,38.45 30.84,32.61 30.84,28.62 30.84,22.89 30.84,13.44 30.84,1.83 30.84,-9.34 30.84,-18.19 30.84,-24.76 30.84,-29.68 30.84,-33.14 30.84,-35.12 30.84,-35.7 30.84,-35.19 30.84,-34.01 30.84,-32.51 30.84,-31.39 30.84,-31.09 30.84,-31.65 30.84,-32.88 30.84,-34.49 30.84,-36.53 30.84,-39.26 30.84,-43.32 30.84,-49.81 30.84,-59.8 30.84,-63.32 30.84,-3.48 30.84,31.51 30.84,-21.85 30.84,-95.07 30.84,-16.941 30.84,17.84 30.84,-5.161 30.84,-108.269 30.84,121.086 30.84,65.789 30.84,18.246 30.84,19.2 30.84,-121.579 30.84,60.59 30.84,-10.477 30.84,23.286 30.84,-24.551 30.84,-20.75 30.84,31.238 30.84,-42.582 30.84,13.691 30.84,-10.519 30.84,-10.75 30.84,-18.231 30.84,-19.742 30.84,-15.5 30.84,-9.871 30.84,-7.098 30.84,-8.675 30.84,-9.989 30.84,-9.492 30.84,-7.195 30.84,-2.902 30.84,2.328 30.84,9.867 30.84,-4.344 30.84,5.34 30.84,-10.309 30.84,9.188"
         style="fill:none;stroke:#0000ff;stroke-width:19.998;stroke-linecap:butt;stroke-linejoin:round;stroke-miterlimit:10;stroke-dasharray:none;stroke-opacity:1"
         id="path1302" /><path
         d="m 5286.84,786 h 92.52 l 30.84,0.023 30.84,0.098 30.84,0.301 30.84,0.723 30.84,1.543 30.84,2.941 30.84,5.109 30.84,8.239 30.84,12.386 30.84,17.328 30.84,22.633 30.84,27.321 30.84,30.746 30.84,32.207 30.84,32.14 30.84,30.502 30.84,29.03 30.84,27.04 30.84,26.04 30.84,25.85 30.84,25.87 30.84,27.7 30.84,31.07 30.84,36.3 30.84,42.65 30.84,49.5 30.84,54.69 30.84,54.66 30.84,49.12 30.84,42.35 30.84,36.41 30.84,29.91 30.84,23.71 30.84,19.99 30.84,16.98 30.84,9.35 30.84,-2.3 30.84,-11.25 30.84,-13.83 30.84,-15.69 30.84,-19.35 30.84,-24.63 30.84,-27.22 30.84,-25.7 30.84,-23.75 30.84,-22.19 30.84,-22.79 30.84,-22.17 30.84,-21.27 30.84,-20.86 30.84,-21.23 30.84,-21.05 30.84,-21.32 30.84,-21.22 30.84,-20.66 30.84,-19.77 30.84,-18.75 30.84,-16.87 30.84,-15.1 30.84,-13.86 30.84,-12.54 30.84,-11.27 30.84,-9.98 30.84,-8.95 30.84,-8.05 30.84,-7.51 30.84,-7.48 30.84,-7.9 30.84,-8.58 30.84,-9.44 30.84,-10.01 30.84,-10.4 30.84,-10.48 30.84,-10.66 30.84,-11.18 30.84,-11.63 30.84,-12.17 30.84,-12.98 30.84,-14.26 30.84,-15.805 30.84,-17.351 30.84,-25.231 30.84,-7.437 30.84,-24.387 30.84,4.172 30.84,-16.887 30.84,19.219 30.84,6.09 30.84,-10.383 30.84,-9.504 30.84,-27.867 30.84,0.691 30.84,-0.199 30.84,-7.019 30.84,-10.157 30.84,-10.496"
         style="fill:none;stroke:#ff0000;stroke-width:19.998;stroke-linecap:butt;stroke-linejoin:bevel;stroke-miterlimit:10;stroke-dasharray:72, 72;stroke-dashoffset:0;stroke-opacity:1"
         id="path1304" /><path
         d="m 5286.84,786 h 92.52 l 30.84,0.023 30.84,0.102 30.84,0.309 30.84,0.742 30.84,1.59 30.84,3.031 30.84,5.285 30.84,8.551 30.84,12.898 30.84,18.133 30.84,23.82 30.84,28.934 30.84,32.727 30.84,34.429 30.84,34.43 30.84,32.676 30.84,31.06 30.84,28.87 30.84,27.78 30.84,27.56 30.84,27.6 30.84,29.73 30.84,33.76 30.84,40.25 30.84,48.97 30.84,59.26 30.84,70.17 30.84,44.94 30.84,69.3 30.84,51.37 30.84,42.52 30.84,35.64 30.84,29.76 30.84,25.12 30.84,16.41 30.84,-68.66 30.84,65.93 30.84,-19.25 30.84,-24.92 30.84,-28.87 30.84,-34.57 30.84,-46.53 30.84,-51 30.84,-84.42 30.84,40.52 30.84,-51.49 30.84,-113.54 30.84,56.06 30.84,-22.05 30.84,-80.12 30.84,-13.74 30.84,-172.74 30.84,164.96 30.84,-6.87 30.84,-57.48 30.84,-63.35 30.84,33.49 30.84,-34.9 30.84,-71.92 30.84,-10.74 30.84,10.95 30.84,7.96 30.84,-70.69 30.84,14.41 30.84,60.72 30.84,-18.19 30.84,0.96 30.84,-29.72 30.84,-45.95 30.84,6.85 30.84,28.18 30.84,-37.155 30.84,-40.859 30.84,27.558 30.84,-1.422 30.84,-23.511 30.84,-45.192 30.84,-16.847 30.84,30.722 30.84,-6.41 30.84,-28.098 30.84,14.352 30.84,10.926 30.84,-20.821 30.84,-36.328 30.84,5.008 30.84,20.961 30.84,-15.984 30.84,-6.086 30.84,9.926 30.84,-10.25 30.84,-21.922 30.84,6.011 30.84,13.211 30.84,-13.207 30.84,-8.211"
         style="fill:none;stroke:#00ff00;stroke-width:19.998;stroke-linecap:butt;stroke-linejoin:bevel;stroke-miterlimit:10;stroke-dasharray:72, 18, 36, 18;stroke-dashoffset:0;stroke-opacity:1"
         id="path1306" /></g></g></svg>
