<?xml version="1.0" encoding="UTF-8" standalone="no"?>
<svg
   version="1.1"
   id="svg18328"
   xml:space="preserve"
   width="560"
   height="420"
   viewBox="0 0 560 420"
   sodipodi:docname="QTFP_Surge_beta00_diag.svg"
   xmlns:inkscape="http://www.inkscape.org/namespaces/inkscape"
   xmlns:sodipodi="http://sodipodi.sourceforge.net/DTD/sodipodi-0.dtd"
   xmlns="http://www.w3.org/2000/svg"
   xmlns:svg="http://www.w3.org/2000/svg"
   xmlns:rdf="http://www.w3.org/1999/02/22-rdf-syntax-ns#"
   xmlns:cc="http://creativecommons.org/ns#"
   xmlns:dc="http://purl.org/dc/elements/1.1/"><metadata
     id="metadata18334"><rdf:RDF><cc:Work
         rdf:about=""><dc:format>image/svg+xml</dc:format><dc:type
           rdf:resource="http://purl.org/dc/dcmitype/StillImage" /></cc:Work></rdf:RDF></metadata><defs
     id="defs18332" /><sodipodi:namedview
     pagecolor="#ffffff"
     bordercolor="#666666"
     borderopacity="1"
     objecttolerance="10"
     gridtolerance="10"
     guidetolerance="10"
     inkscape:pageopacity="0"
     inkscape:pageshadow="2"
     inkscape:window-width="640"
     inkscape:window-height="480"
     id="namedview18330"
     inkscape:showpageshadow="2"
     inkscape:pagecheckerboard="0"
     inkscape:deskcolor="#d1d1d1" /><g
     id="g18336"
     inkscape:groupmode="layer"
     inkscape:label="ink_ext_XXXXXX"
     transform="matrix(1.3333333,0,0,-1.3333333,0,419.99999)"><g
       id="g18338"
       transform="scale(0.1)"><path
         d="M 0,0 H 4200 V 3150 H 0 Z"
         style="fill:#ffffff;fill-opacity:1;fill-rule:nonzero;stroke:none"
         id="path18340" /><path
         d="M 0,0 H 4200 V 3150 H 0 Z"
         style="fill:#ffffff;fill-opacity:1;fill-rule:nonzero;stroke:none"
         id="path18342" /><path
         d="m 546,2022 h 3258 v 810 H 546 Z"
         style="fill:#ffffff;fill-opacity:1;fill-rule:nonzero;stroke:none"
         id="path18344" /><path
         d="M 546,2022 H 3804"
         style="fill:none;stroke:#262626;stroke-width:4.998;stroke-linecap:square;stroke-linejoin:round;stroke-miterlimit:10;stroke-dasharray:none;stroke-opacity:1"
         id="path18346" /><path
         d="M 546,2832 H 3804"
         style="fill:none;stroke:#262626;stroke-width:4.998;stroke-linecap:square;stroke-linejoin:round;stroke-miterlimit:10;stroke-dasharray:none;stroke-opacity:1"
         id="path18348" /><path
         d="m 1277.25,2022 v 32.58"
         style="fill:none;stroke:#262626;stroke-width:4.998;stroke-linecap:square;stroke-linejoin:round;stroke-miterlimit:10;stroke-dasharray:none;stroke-opacity:1"
         id="path18350" /><path
         d="m 2113.92,2022 v 32.58"
         style="fill:none;stroke:#262626;stroke-width:4.998;stroke-linecap:square;stroke-linejoin:round;stroke-miterlimit:10;stroke-dasharray:none;stroke-opacity:1"
         id="path18352" /><path
         d="m 2950.6,2022 v 32.58"
         style="fill:none;stroke:#262626;stroke-width:4.998;stroke-linecap:square;stroke-linejoin:round;stroke-miterlimit:10;stroke-dasharray:none;stroke-opacity:1"
         id="path18354" /><path
         d="m 3787.27,2022 v 32.58"
         style="fill:none;stroke:#262626;stroke-width:4.998;stroke-linecap:square;stroke-linejoin:round;stroke-miterlimit:10;stroke-dasharray:none;stroke-opacity:1"
         id="path18356" /><path
         d="m 1277.25,2832 v -32.58"
         style="fill:none;stroke:#262626;stroke-width:4.998;stroke-linecap:square;stroke-linejoin:round;stroke-miterlimit:10;stroke-dasharray:none;stroke-opacity:1"
         id="path18358" /><path
         d="m 2113.92,2832 v -32.58"
         style="fill:none;stroke:#262626;stroke-width:4.998;stroke-linecap:square;stroke-linejoin:round;stroke-miterlimit:10;stroke-dasharray:none;stroke-opacity:1"
         id="path18360" /><path
         d="m 2950.6,2832 v -32.58"
         style="fill:none;stroke:#262626;stroke-width:4.998;stroke-linecap:square;stroke-linejoin:round;stroke-miterlimit:10;stroke-dasharray:none;stroke-opacity:1"
         id="path18362" /><path
         d="m 3787.27,2832 v -32.58"
         style="fill:none;stroke:#262626;stroke-width:4.998;stroke-linecap:square;stroke-linejoin:round;stroke-miterlimit:10;stroke-dasharray:none;stroke-opacity:1"
         id="path18364" /><g
         id="g18366"
         transform="scale(10)"><text
           transform="matrix(1,0,0,-1,117.225,181.6)"
           style="font-variant:normal;font-weight:bold;font-size:15px;font-family:Helvetica;-inkscape-font-specification:Helvetica-Bold;writing-mode:lr-tb;fill:#262626;fill-opacity:1;fill-rule:nonzero;stroke:none"
           id="text18370"><tspan
             x="0 8.3400002 12.51 89.967148 167.3343 175.6743 179.8443 257.30145"
             y="0"
             sodipodi:role="line"
             id="tspan18368">0.511.52</tspan></text></g><path
         d="m 1889.21,1629.53 c -6.31,0 -10.89,2.33 -13.73,6.98 -2.84,4.66 -4.27,10.33 -4.27,17.02 0,4.43 0.41,8.77 1.22,13.02 0.82,4.25 2.02,8.56 3.62,12.9 1.59,4.34 3.43,8.42 5.53,12.23 2.09,3.81 4.42,7.5 6.98,11.07 0.5,0.74 1.16,1.12 1.97,1.12 0.69,0 1.25,-0.22 1.68,-0.66 0.45,-0.44 0.67,-0.97 0.67,-1.59 0,-0.63 -0.16,-1.16 -0.48,-1.59 -10.18,-14.07 -15.27,-27.04 -15.27,-38.91 0,-5.13 1.18,-9.55 3.55,-13.27 2.38,-3.71 6,-5.57 10.88,-5.57 4.19,0 8.08,1.23 11.67,3.7 3.6,2.47 6.71,5.61 9.33,9.42 0,2 0.33,5.08 0.99,9.23 0.65,4.16 1.71,7.86 3.18,11.12 1.47,3.24 3.2,4.87 5.2,4.87 2.57,0 3.85,-1.5 3.85,-4.5 0,-1.75 -0.36,-3.95 -1.08,-6.61 -0.72,-2.65 -1.53,-5.12 -2.44,-7.41 -0.9,-2.28 -2.01,-4.89 -3.33,-7.82 1.32,-8 5.32,-12 12,-12 3.88,0 7.77,1.12 11.68,3.37 3.9,2.25 7.35,5.21 10.35,8.86 3,3.66 5.36,7.58 7.09,11.77 1.72,4.18 2.58,8.18 2.58,12 0,3.37 -0.54,5.99 -1.6,7.87 -1.07,1.88 -2.47,3.86 -4.22,5.95 -1.75,2.1 -2.63,3.77 -2.63,5.02 0,2.18 0.94,4.18 2.82,6 1.88,1.81 3.88,2.72 6,2.72 2.68,0 4.61,-1.25 5.76,-3.75 1.16,-2.5 1.74,-5.35 1.74,-8.54 0,-5.12 -1.02,-11.59 -3.05,-19.4 -2.03,-7.81 -4.36,-14.31 -6.99,-19.5 -3.62,-7.06 -8.15,-13.02 -13.58,-17.86 -5.45,-4.84 -11.57,-7.26 -18.38,-7.26 -4.32,0 -7.8,1.29 -10.45,3.89 -2.66,2.59 -4.37,6.13 -5.12,10.63 -3.12,-4.43 -6.68,-7.96 -10.68,-10.59 -4,-2.62 -8.35,-3.93 -13.04,-3.93"
         style="fill:#262626;fill-opacity:1;fill-rule:nonzero;stroke:none"
         id="path18372" /><path
         d="m 1997.37,1589.4 v 168 h 22.97 v -6.75 h -16.22 v -154.5 h 16.22 v -6.75 h -22.97"
         style="fill:#262626;fill-opacity:1;fill-rule:nonzero;stroke:none"
         id="path18374" /><path
         d="m 2036.27,1634.3 c 0,0.63 0.06,1.1 0.19,1.41 l 12.56,50.16 c 0.81,3.12 1.22,5.87 1.22,8.25 0,4.81 -1.63,7.22 -4.88,7.22 -3.5,0 -6.11,-2.1 -7.82,-6.29 -1.72,-4.18 -3.37,-9.49 -4.93,-15.93 0,-0.32 -0.17,-0.57 -0.51,-0.75 -0.35,-0.19 -0.64,-0.28 -0.89,-0.28 h -1.97 c -0.38,0 -0.7,0.2 -0.99,0.61 -0.28,0.4 -0.42,0.76 -0.42,1.08 1.19,4.87 2.34,9.01 3.47,12.42 1.13,3.4 2.88,6.5 5.25,9.28 2.37,2.78 5.34,4.17 8.91,4.17 3.87,0 7.28,-1.12 10.21,-3.37 2.94,-2.25 4.76,-5.19 5.44,-8.82 2.87,3.69 6.12,6.65 9.75,8.86 3.63,2.22 7.6,3.33 11.91,3.33 3.56,0 6.7,-1.04 9.42,-3.14 2.72,-2.09 4.08,-4.89 4.08,-8.39 0,-2.88 -0.89,-5.36 -2.67,-7.45 -1.78,-2.1 -4.14,-3.14 -7.08,-3.14 -1.81,0 -3.33,0.56 -4.55,1.68 -1.22,1.13 -1.83,2.57 -1.83,4.32 0,2.5 0.9,4.72 2.68,6.65 1.78,1.94 3.86,2.91 6.23,2.91 -1.81,1.5 -4,2.25 -6.56,2.25 -4.81,0 -9,-1.72 -12.57,-5.16 -3.56,-3.43 -6.74,-7.78 -9.56,-13.03 l -12,-48.1 c -0.37,-1.5 -1.23,-2.79 -2.57,-3.88 -1.35,-1.1 -2.83,-1.64 -4.46,-1.64 -1.37,0 -2.56,0.43 -3.56,1.31 -1,0.87 -1.5,2.03 -1.5,3.46"
         style="fill:#262626;fill-opacity:1;fill-rule:nonzero;stroke:none"
         id="path18376" /><path
         d="m 2131.61,1629.53 c -7.07,0 -12.65,2.67 -16.74,8.01 -4.09,5.34 -6.14,11.64 -6.14,18.89 0,7.19 1.86,14.63 5.58,22.32 3.72,7.68 8.73,14.09 15.05,19.21 6.3,5.13 13.12,7.69 20.44,7.69 3.31,0 6.27,-0.91 8.9,-2.72 2.62,-1.81 4.69,-4.28 6.19,-7.4 1.25,4.5 3.72,6.75 7.41,6.75 1.37,0 2.54,-0.42 3.51,-1.27 0.97,-0.84 1.45,-1.98 1.45,-3.42 0,-0.32 -0.01,-0.55 -0.05,-0.71 -0.03,-0.15 -0.07,-0.35 -0.14,-0.6 l -11.71,-46.88 c -0.75,-3.38 -1.13,-6.13 -1.13,-8.25 0,-4.81 1.59,-7.22 4.78,-7.22 3.5,0 6.18,2.24 8.02,6.7 1.85,4.47 3.39,9.61 4.64,15.42 0.25,0.69 0.69,1.04 1.31,1.04 h 2.07 c 0.43,0 0.79,-0.19 1.07,-0.56 0.28,-0.38 0.43,-0.75 0.43,-1.13 -2,-7.81 -4.16,-14.08 -6.48,-18.8 -2.31,-4.71 -6.09,-7.07 -11.34,-7.07 -3.75,0 -7.08,1.11 -9.98,3.32 -2.91,2.22 -4.74,5.14 -5.49,8.77 -7.19,-8.06 -14.4,-12.09 -21.65,-12.09 z m 0.09,4.4 c 4.06,0 8,1.52 11.81,4.55 3.81,3.03 7.06,6.61 9.75,10.73 0.13,0.13 0.19,0.28 0.19,0.47 l 9,36.57 0.19,0.46 c -0.63,4 -2.05,7.44 -4.27,10.32 -2.22,2.87 -5.23,4.31 -9.05,4.31 -3.75,0 -7.25,-1.55 -10.5,-4.64 -3.25,-3.1 -6,-6.77 -8.25,-11.02 -2.18,-4.43 -4.27,-10.57 -6.27,-18.42 -2,-7.84 -3,-13.92 -3,-18.23 0,-3.88 0.84,-7.36 2.52,-10.46 1.69,-3.09 4.32,-4.64 7.88,-4.64"
         style="fill:#262626;fill-opacity:1;fill-rule:nonzero;stroke:none"
         id="path18378" /><path
         d="m 2218.82,1629.53 c -7.06,0 -12.64,2.67 -16.73,8.01 -4.1,5.34 -6.14,11.64 -6.14,18.89 0,7.19 1.86,14.63 5.58,22.32 3.71,7.68 8.73,14.09 15.04,19.21 6.32,5.13 13.13,7.69 20.44,7.69 3.25,0 6.2,-0.92 8.86,-2.77 2.65,-1.84 4.73,-4.29 6.23,-7.35 l 9.38,37.5 c 0.43,1.93 0.72,3.43 0.84,4.5 0,1.81 -3.62,2.72 -10.87,2.72 -1.19,0 -1.79,0.75 -1.79,2.25 0.07,0.24 0.2,0.73 0.38,1.45 0.19,0.72 0.44,1.26 0.75,1.64 0.32,0.37 0.75,0.56 1.31,0.56 l 22.6,1.78 c 1.37,0 2.06,-0.69 2.06,-2.06 l -24.19,-96.66 c -0.75,-1.87 -1.12,-4.56 -1.12,-8.06 0,-4.81 1.59,-7.22 4.78,-7.22 3.5,0 6.17,2.24 8.02,6.7 1.84,4.47 3.39,9.61 4.63,15.42 0.26,0.69 0.69,1.04 1.32,1.04 h 2.06 c 0.44,0 0.79,-0.19 1.08,-0.56 0.28,-0.38 0.42,-0.75 0.42,-1.13 -2,-7.81 -4.15,-14.08 -6.47,-18.8 -2.31,-4.71 -6.09,-7.07 -11.34,-7.07 -3.75,0 -7.08,1.11 -9.99,3.32 -2.91,2.22 -4.73,5.14 -5.48,8.77 -7.19,-8.06 -14.41,-12.09 -21.66,-12.09 z m 0.09,4.4 c 4.07,0 8.01,1.52 11.82,4.55 3.81,3.03 7.06,6.61 9.75,10.73 0.13,0.13 0.18,0.34 0.18,0.66 l 9.19,37.03 c -0.62,3.94 -2.06,7.33 -4.31,10.17 -2.25,2.84 -5.25,4.27 -9,4.27 -3.75,0 -7.25,-1.55 -10.5,-4.64 -3.25,-3.1 -6,-6.77 -8.25,-11.02 -2.18,-4.43 -4.28,-10.57 -6.28,-18.42 -2,-7.84 -3,-13.92 -3,-18.23 0,-3.88 0.85,-7.36 2.53,-10.46 1.69,-3.09 4.32,-4.64 7.87,-4.64"
         style="fill:#262626;fill-opacity:1;fill-rule:nonzero;stroke:none"
         id="path18380" /><path
         d="m 2284.92,1592.78 c 0,0.31 0.03,0.53 0.1,0.65 l 58.4,161.91 c 0.25,0.68 0.64,1.2 1.17,1.54 0.54,0.35 1.18,0.52 1.93,0.52 1,0 1.81,-0.29 2.43,-0.89 0.63,-0.59 0.94,-1.42 0.94,-2.48 v -0.66 l -58.41,-161.91 c -0.68,-1.37 -1.75,-2.06 -3.18,-2.06 -0.94,0 -1.74,0.33 -2.39,0.98 -0.66,0.66 -0.99,1.46 -0.99,2.4"
         style="fill:#262626;fill-opacity:1;fill-rule:nonzero;stroke:none"
         id="path18382" /><path
         d="m 2372.57,1641.62 c 3,-5.13 9.04,-7.69 18.1,-7.69 3.94,0 7.69,0.68 11.25,2.02 3.56,1.34 6.5,3.36 8.81,6.05 2.32,2.68 3.47,5.93 3.47,9.75 0,2.87 -1.03,5.24 -3.09,7.12 -2.06,1.87 -4.59,3.12 -7.59,3.75 l -9.1,1.88 c -4.19,1 -7.62,2.92 -10.31,5.76 -2.69,2.85 -4.04,6.3 -4.04,10.36 0,5 1.37,9.4 4.09,13.22 2.72,3.81 6.29,6.73 10.73,8.76 4.44,2.03 9.03,3.05 13.78,3.05 5.06,0 9.62,-1.22 13.65,-3.65 4.02,-2.45 6.04,-6.04 6.04,-10.79 0,-2.56 -0.73,-4.83 -2.2,-6.79 -1.47,-1.97 -3.49,-2.96 -6.05,-2.96 -1.44,0 -2.69,0.47 -3.75,1.41 -1.06,0.94 -1.59,2.16 -1.59,3.66 0,1.31 0.36,2.58 1.07,3.79 0.72,1.22 1.71,2.21 2.96,2.96 1.25,0.75 2.53,1.12 3.84,1.12 -1,2.44 -2.86,4.2 -5.57,5.3 -2.73,1.09 -5.65,1.64 -8.77,1.64 -2.82,0 -5.64,-0.58 -8.48,-1.74 -2.85,-1.15 -5.13,-2.84 -6.85,-5.06 -1.72,-2.22 -2.58,-4.83 -2.58,-7.83 0,-2.06 0.7,-3.86 2.11,-5.39 1.41,-1.53 3.14,-2.61 5.2,-3.23 l 9.85,-1.97 c 3.06,-0.69 5.9,-1.86 8.52,-3.52 2.63,-1.65 4.7,-3.75 6.2,-6.28 1.5,-2.53 2.25,-5.45 2.25,-8.77 0,-4.12 -1.18,-8.21 -3.52,-12.27 -2.34,-4.07 -5.2,-7.29 -8.58,-9.66 -5.94,-4.06 -13.25,-6.09 -21.94,-6.09 -5.93,0 -11.39,1.36 -16.35,4.07 -4.97,2.72 -7.46,6.8 -7.46,12.24 0,3.06 0.89,5.73 2.67,8.01 1.79,2.29 4.21,3.43 7.27,3.43 1.81,0 3.33,-0.55 4.55,-1.65 1.22,-1.09 1.82,-2.54 1.82,-4.35 0,-2.57 -0.95,-4.82 -2.85,-6.75 -1.91,-1.94 -4.15,-2.91 -6.71,-2.91 h -0.85"
         style="fill:#262626;fill-opacity:1;fill-rule:nonzero;stroke:none"
         id="path18384" /><path
         d="m 2438.95,1589.4 v 6.75 h 16.41 v 154.5 h -16.41 v 6.75 h 23.07 v -168 h -23.07"
         style="fill:#262626;fill-opacity:1;fill-rule:nonzero;stroke:none"
         id="path18386" /><path
         d="m 546,2022 v 810"
         style="fill:none;stroke:#262626;stroke-width:4.998;stroke-linecap:square;stroke-linejoin:round;stroke-miterlimit:10;stroke-dasharray:none;stroke-opacity:1"
         id="path18388" /><path
         d="m 3804,2022 v 810"
         style="fill:none;stroke:#262626;stroke-width:4.998;stroke-linecap:square;stroke-linejoin:round;stroke-miterlimit:10;stroke-dasharray:none;stroke-opacity:1"
         id="path18390" /><path
         d="m 546,2022 h 32.578"
         style="fill:none;stroke:#262626;stroke-width:4.998;stroke-linecap:square;stroke-linejoin:round;stroke-miterlimit:10;stroke-dasharray:none;stroke-opacity:1"
         id="path18392" /><path
         d="m 546,2427 h 32.578"
         style="fill:none;stroke:#262626;stroke-width:4.998;stroke-linecap:square;stroke-linejoin:round;stroke-miterlimit:10;stroke-dasharray:none;stroke-opacity:1"
         id="path18394" /><path
         d="m 546,2832 h 32.578"
         style="fill:none;stroke:#262626;stroke-width:4.998;stroke-linecap:square;stroke-linejoin:round;stroke-miterlimit:10;stroke-dasharray:none;stroke-opacity:1"
         id="path18396" /><path
         d="m 3804,2022 h -32.58"
         style="fill:none;stroke:#262626;stroke-width:4.998;stroke-linecap:square;stroke-linejoin:round;stroke-miterlimit:10;stroke-dasharray:none;stroke-opacity:1"
         id="path18398" /><path
         d="m 3804,2427 h -32.58"
         style="fill:none;stroke:#262626;stroke-width:4.998;stroke-linecap:square;stroke-linejoin:round;stroke-miterlimit:10;stroke-dasharray:none;stroke-opacity:1"
         id="path18400" /><path
         d="m 3804,2832 h -32.58"
         style="fill:none;stroke:#262626;stroke-width:4.998;stroke-linecap:square;stroke-linejoin:round;stroke-miterlimit:10;stroke-dasharray:none;stroke-opacity:1"
         id="path18402" /><g
         id="g18404"
         transform="scale(10)"><text
           transform="matrix(1,0,0,-1,27.4,196.2)"
           style="font-variant:normal;font-weight:bold;font-size:15px;font-family:Helvetica;-inkscape-font-specification:Helvetica-Bold;writing-mode:lr-tb;fill:#262626;fill-opacity:1;fill-rule:nonzero;stroke:none"
           id="text18412"><tspan
             x="0 4.9949999 13.335"
             y="0"
             sodipodi:role="line"
             id="tspan18406">-50</tspan><tspan
             x="13.8"
             y="-40.5"
             id="tspan18408">0</tspan><tspan
             x="5.4000001 13.74"
             y="-81"
             sodipodi:role="line"
             id="tspan18410">50</tspan></text><text
           transform="matrix(0,1,1,0,20.4,209.4)"
           style="font-variant:normal;font-weight:bold;font-size:16.5px;font-family:Helvetica;-inkscape-font-specification:Helvetica-Bold;writing-mode:lr-tb;fill:#262626;fill-opacity:1;fill-rule:nonzero;stroke:none"
           id="text18416"><tspan
             x="0 12.837 22.918501 33 42.636002"
             y="0"
             sodipodi:role="line"
             id="tspan18414">QTF+/</tspan></text></g><path
         d="m 235.598,2578.69 c -0.692,0 -1.129,0.06 -1.317,0.19 l -67.129,16.59 c -6,1.62 -11.886,4.35 -17.668,8.2 -5.781,3.85 -10.515,8.5 -14.203,13.97 -3.687,5.47 -5.531,11.24 -5.531,17.3 0,8.87 1.266,15.12 3.797,18.75 2.531,3.62 5.879,6.36 10.031,8.2 4.156,1.84 8.672,2.76 13.543,2.76 5.442,0 11.051,-1.1 16.832,-3.32 5.777,-2.22 11.078,-5.28 15.895,-9.19 4.808,-3.91 8.683,-8.41 11.621,-13.5 2.937,-5.09 4.41,-12.42 4.41,-21.99 0,-3.24 -0.973,-6.32 -2.91,-9.23 -1.938,-2.9 -2.906,-4.36 -2.906,-4.36 l 34.875,-6.37 c 1.562,-0.38 2.843,-1.22 3.843,-2.54 1,-1.31 1.5,-4.77 1.5,-10.4 0,-1.37 -0.422,-2.56 -1.265,-3.56 -0.844,-1 -1.985,-1.5 -3.418,-1.5 z m -34.129,38.53 c 0,5.81 -3.047,10.92 -9.141,15.33 -6.094,4.4 -13.265,7.76 -21.515,10.08 -8.25,2.31 -15.219,3.47 -20.911,3.47 -4.246,0 -7.949,-0.92 -11.105,-2.77 -3.156,-1.85 -4.734,-4.74 -4.734,-8.68 0,-0.87 1.859,-3.17 5.574,-6.88 3.722,-3.72 8.066,-6.71 13.035,-8.96 4.965,-2.25 10.137,-4.09 15.516,-5.53 l 18.843,-4.59 c 4.063,0.75 7.485,2.36 10.266,4.83 2.781,2.46 4.172,3.7 4.172,3.7"
         style="fill:#262626;fill-opacity:1;fill-rule:nonzero;stroke:none"
         id="path18418" /><g
         id="g18420"
         transform="scale(10)"><text
           transform="matrix(0,1,1,0,20.4,266.4)"
           style="font-variant:normal;font-weight:bold;font-size:16.5px;font-family:Helvetica;-inkscape-font-specification:Helvetica-Bold;writing-mode:lr-tb;fill:#262626;fill-opacity:1;fill-rule:nonzero;stroke:none"
           id="text18424"><tspan
             x="0"
             y="0"
             id="tspan18422">g</tspan></text></g><g
         id="g18426"
         transform="scale(10)"><text
           transform="matrix(1,0,0,-1,162.6,289.2)"
           style="font-variant:normal;font-weight:bold;font-size:15px;font-family:Helvetica;-inkscape-font-specification:Helvetica-Bold;writing-mode:lr-tb;fill:#000000;fill-opacity:1;fill-rule:nonzero;stroke:none"
           id="text18430"><tspan
             x="0 11.67 20.834999 30 38.759998 42.93 47.924999 57.09 62.924999"
             y="0"
             sodipodi:role="line"
             id="tspan18428">QTF+ for </tspan></text></g><path
         d="m 2306.15,2892 c -0.87,0 -1.3,0.41 -1.3,1.22 0.06,0.06 0.1,0.12 0.13,0.18 0.04,0.07 0.05,0.16 0.05,0.29 l 51.66,104.06 c 0.44,1.06 1.34,1.6 2.71,1.6 h 2.07 c 5.31,0 8.19,-0.54 8.63,-1.6 l 51.65,-104.06 c 0.06,-0.13 0.11,-0.22 0.14,-0.29 0.03,-0.06 0.05,-0.12 0.05,-0.18 0,-0.81 -2.41,-1.22 -7.22,-1.22 z m 15.85,12 h 73.03 l -37.13,74.72 z"
         style="fill:#000000;fill-opacity:1;fill-rule:nonzero;stroke:none"
         id="path18432" /><g
         id="g18434"
         transform="scale(10)"><text
           transform="matrix(1,0,0,-1,243.6,289.2)"
           style="font-variant:normal;font-weight:bold;font-size:15px;font-family:Helvetica;-inkscape-font-specification:Helvetica-Bold;writing-mode:lr-tb;fill:#000000;fill-opacity:1;fill-rule:nonzero;stroke:none"
           id="text18438"><tspan
             x="0 11.67 20.43"
             y="0"
             sodipodi:role="line"
             id="tspan18436">w=0</tspan></text></g><path
         d="m 546,2427.01 105.422,0.04 103.746,0.21 105.418,0.35 105.426,15.19 105.418,-32.6 105.42,4.17 103.75,2.03 105.42,1.61 105.42,3.78 105.42,4.65 105.42,3.75 103.75,4.02 105.42,2.97 105.42,5.12 105.42,6.24 105.42,6.94 103.75,8.79 105.42,12.59 105.42,14.78 105.42,19.3 105.42,24.08 103.75,27.99 105.42,32 105.42,32.64 105.42,31.42 105.42,26.66 103.75,15.41 105.42,4.43 105.42,-18.55 105.42,-38.05 105.42,-54.79"
         style="fill:none;stroke:#0000ff;stroke-width:19.998;stroke-linecap:butt;stroke-linejoin:round;stroke-miterlimit:10;stroke-dasharray:none;stroke-opacity:1"
         id="path18440" /><path
         d="m 546,2383.74 105.422,24.11 103.746,8.68 105.418,-8.42 105.426,-105.23 105.418,198.57 105.42,-33.45 103.75,-9.95 105.42,-6.39 105.42,-4.91 105.42,-0.95 105.42,1.57 103.75,4.63 105.42,7.16 105.42,8.89 105.42,13.54 105.42,15.04 103.75,16.17 105.42,15.08 105.42,14.57 105.42,8.13 105.42,4.11 103.75,-5.43 105.42,-12.38 105.42,-23.61 105.42,-32.27 105.42,-45.64 103.75,-50.55 105.42,-59.62 105.42,-65.12 105.42,-60.37 105.42,-53.48"
         style="fill:none;stroke:#0000ff;stroke-width:19.998;stroke-linecap:butt;stroke-linejoin:bevel;stroke-miterlimit:10;stroke-dasharray:72, 18, 36, 18;stroke-dashoffset:0;stroke-opacity:1"
         id="path18442" /><path
         d="m 546,2427 105.422,0.05 103.746,0.16 105.418,1.17 105.426,26.25 105.418,-59.36 105.42,3.96 103.75,4.06 105.42,4.05 105.42,4.08 105.42,9.2 105.42,4.95 103.75,-0.93 105.42,16.05 105.42,0.37 105.42,-7.83 105.42,31.07 103.75,-15.64 105.42,29.55 105.42,7.7 105.42,14.91 105.42,40.8 103.75,9.89 105.42,47.87 105.42,17.01 105.42,36.77 105.42,30.61 103.75,-29.71 105.42,47.34 105.42,-47.86 105.42,-40.31 105.42,-42.12"
         style="fill:none;stroke:#ff0000;stroke-width:19.998;stroke-linecap:butt;stroke-linejoin:bevel;stroke-miterlimit:10;stroke-dasharray:72, 72;stroke-dashoffset:0;stroke-opacity:1"
         id="path18444" /><path
         d="m 546,2383.72 105.422,24.06 103.746,13.51 105.418,-27.26 105.426,-186.94 105.418,352.49 105.42,-61.9 103.75,-21.71 105.42,-10.98 105.42,-9.45 105.42,-4.82 105.42,4.93 103.75,-1.54 105.42,2.85 105.42,24.38 105.42,-5.22 105.42,16.86 103.75,29.53 105.42,-15.06 105.42,44.5 105.42,-21.67 105.42,27.69 103.75,-32.86 105.42,10.1 105.42,-49.08 105.42,-1.95 105.42,-67.42 103.75,-43.55 105.42,-69.66 105.42,-67.31 105.42,-23.54 105.42,-41.99"
         style="fill:none;stroke:#ff0000;stroke-width:19.998;stroke-linecap:butt;stroke-linejoin:bevel;stroke-miterlimit:10;stroke-dasharray:18, 18;stroke-dashoffset:0;stroke-opacity:1"
         id="path18446" /><path
         d="m 546,528 h 3258 v 810 H 546 Z"
         style="fill:#ffffff;fill-opacity:1;fill-rule:nonzero;stroke:none"
         id="path18448" /><path
         d="M 546,528 H 3804"
         style="fill:none;stroke:#262626;stroke-width:4.998;stroke-linecap:square;stroke-linejoin:round;stroke-miterlimit:10;stroke-dasharray:none;stroke-opacity:1"
         id="path18450" /><path
         d="M 546,1338 H 3804"
         style="fill:none;stroke:#262626;stroke-width:4.998;stroke-linecap:square;stroke-linejoin:round;stroke-miterlimit:10;stroke-dasharray:none;stroke-opacity:1"
         id="path18452" /><path
         d="m 1192.76,528 v 32.582"
         style="fill:none;stroke:#262626;stroke-width:4.998;stroke-linecap:square;stroke-linejoin:round;stroke-miterlimit:10;stroke-dasharray:none;stroke-opacity:1"
         id="path18454" /><path
         d="m 2057.41,528 v 32.582"
         style="fill:none;stroke:#262626;stroke-width:4.998;stroke-linecap:square;stroke-linejoin:round;stroke-miterlimit:10;stroke-dasharray:none;stroke-opacity:1"
         id="path18456" /><path
         d="m 2922.06,528 v 32.582"
         style="fill:none;stroke:#262626;stroke-width:4.998;stroke-linecap:square;stroke-linejoin:round;stroke-miterlimit:10;stroke-dasharray:none;stroke-opacity:1"
         id="path18458" /><path
         d="m 3786.71,528 v 32.582"
         style="fill:none;stroke:#262626;stroke-width:4.998;stroke-linecap:square;stroke-linejoin:round;stroke-miterlimit:10;stroke-dasharray:none;stroke-opacity:1"
         id="path18460" /><path
         d="m 1192.76,1338 v -32.58"
         style="fill:none;stroke:#262626;stroke-width:4.998;stroke-linecap:square;stroke-linejoin:round;stroke-miterlimit:10;stroke-dasharray:none;stroke-opacity:1"
         id="path18462" /><path
         d="m 2057.41,1338 v -32.58"
         style="fill:none;stroke:#262626;stroke-width:4.998;stroke-linecap:square;stroke-linejoin:round;stroke-miterlimit:10;stroke-dasharray:none;stroke-opacity:1"
         id="path18464" /><path
         d="m 2922.06,1338 v -32.58"
         style="fill:none;stroke:#262626;stroke-width:4.998;stroke-linecap:square;stroke-linejoin:round;stroke-miterlimit:10;stroke-dasharray:none;stroke-opacity:1"
         id="path18466" /><path
         d="m 3786.71,1338 v -32.58"
         style="fill:none;stroke:#262626;stroke-width:4.998;stroke-linecap:square;stroke-linejoin:round;stroke-miterlimit:10;stroke-dasharray:none;stroke-opacity:1"
         id="path18468" /><g
         id="g18470"
         transform="scale(10)"><text
           transform="matrix(1,0,0,-1,108.776,32.2)"
           style="font-variant:normal;font-weight:bold;font-size:15px;font-family:Helvetica;-inkscape-font-specification:Helvetica-Bold;writing-mode:lr-tb;fill:#262626;fill-opacity:1;fill-rule:nonzero;stroke:none"
           id="text18474"><tspan
             x="0 8.3400002 12.51 92.764801 172.93005 181.27005 185.44005 265.69485"
             y="0"
             sodipodi:role="line"
             id="tspan18472">0.511.52</tspan></text></g><path
         d="m 1889.21,135.527 c -6.31,0 -10.89,2.328 -13.73,6.985 -2.84,4.656 -4.27,10.328 -4.27,17.015 0,4.438 0.41,8.778 1.22,13.028 0.82,4.25 2.02,8.55 3.62,12.894 1.59,4.344 3.43,8.422 5.53,12.235 2.09,3.808 4.42,7.5 6.98,11.062 0.5,0.746 1.16,1.121 1.97,1.121 0.69,0 1.25,-0.219 1.68,-0.652 0.45,-0.442 0.67,-0.973 0.67,-1.598 0,-0.625 -0.16,-1.152 -0.48,-1.59 -10.18,-14.062 -15.27,-27.035 -15.27,-38.91 0,-5.125 1.18,-9.547 3.55,-13.265 2.38,-3.715 6,-5.575 10.88,-5.575 4.19,0 8.08,1.235 11.67,3.703 3.6,2.469 6.71,5.61 9.33,9.418 0,2 0.33,5.079 0.99,9.235 0.65,4.156 1.71,7.859 3.18,11.113 1.47,3.246 3.2,4.871 5.2,4.871 2.57,0 3.85,-1.5 3.85,-4.5 0,-1.746 -0.36,-3.949 -1.08,-6.605 -0.72,-2.657 -1.53,-5.125 -2.44,-7.41 -0.9,-2.282 -2.01,-4.887 -3.33,-7.825 1.32,-8 5.32,-12 12,-12 3.88,0 7.77,1.125 11.68,3.371 3.9,2.254 7.35,5.207 10.35,8.864 3,3.656 5.36,7.578 7.09,11.765 1.72,4.184 2.58,8.184 2.58,12 0,3.371 -0.54,5.996 -1.6,7.871 -1.07,1.879 -2.47,3.864 -4.22,5.954 -1.75,2.097 -2.63,3.769 -2.63,5.015 0,2.188 0.94,4.188 2.82,6 1.88,1.813 3.88,2.719 6,2.719 2.68,0 4.61,-1.25 5.76,-3.75 1.16,-2.5 1.74,-5.344 1.74,-8.531 0,-5.125 -1.02,-11.594 -3.05,-19.407 -2.03,-7.808 -4.36,-14.308 -6.99,-19.5 -3.62,-7.062 -8.15,-13.015 -13.58,-17.855 -5.45,-4.844 -11.57,-7.266 -18.38,-7.266 -4.32,0 -7.8,1.297 -10.45,3.891 -2.66,2.59 -4.37,6.137 -5.12,10.637 -3.12,-4.438 -6.68,-7.965 -10.68,-10.59 -4,-2.625 -8.35,-3.938 -13.04,-3.938"
         style="fill:#262626;fill-opacity:1;fill-rule:nonzero;stroke:none"
         id="path18476" /><path
         d="M 1997.37,95.3984 V 263.398 h 22.97 v -6.75 h -16.22 v -154.5 h 16.22 v -6.7496 h -22.97"
         style="fill:#262626;fill-opacity:1;fill-rule:nonzero;stroke:none"
         id="path18478" /><path
         d="m 2036.27,140.305 c 0,0.629 0.06,1.097 0.19,1.41 l 12.56,50.152 c 0.81,3.125 1.22,5.875 1.22,8.25 0,4.813 -1.63,7.219 -4.88,7.219 -3.5,0 -6.11,-2.094 -7.82,-6.281 -1.72,-4.184 -3.37,-9.496 -4.93,-15.938 0,-0.312 -0.17,-0.562 -0.51,-0.75 -0.35,-0.187 -0.64,-0.281 -0.89,-0.281 h -1.97 c -0.38,0 -0.7,0.203 -0.99,0.613 -0.28,0.403 -0.42,0.762 -0.42,1.078 1.19,4.871 2.34,9.012 3.47,12.422 1.13,3.403 2.88,6.496 5.25,9.281 2.37,2.782 5.34,4.168 8.91,4.168 3.87,0 7.28,-1.121 10.21,-3.371 2.94,-2.25 4.76,-5.187 5.44,-8.812 2.87,3.687 6.12,6.64 9.75,8.855 3.63,2.219 7.6,3.328 11.91,3.328 3.56,0 6.7,-1.043 9.42,-3.136 2.72,-2.094 4.08,-4.895 4.08,-8.395 0,-2.875 -0.89,-5.359 -2.67,-7.449 -1.78,-2.094 -4.14,-3.141 -7.08,-3.141 -1.81,0 -3.33,0.563 -4.55,1.688 -1.22,1.125 -1.83,2.562 -1.83,4.312 0,2.5 0.9,4.719 2.68,6.657 1.78,1.933 3.86,2.902 6.23,2.902 -1.81,1.5 -4,2.25 -6.56,2.25 -4.81,0 -9,-1.719 -12.57,-5.152 -3.56,-3.438 -6.74,-7.782 -9.56,-13.036 l -12,-48.093 c -0.37,-1.5 -1.23,-2.797 -2.57,-3.887 -1.35,-1.094 -2.83,-1.641 -4.46,-1.641 -1.37,0 -2.56,0.438 -3.56,1.309 -1,0.875 -1.5,2.031 -1.5,3.469"
         style="fill:#262626;fill-opacity:1;fill-rule:nonzero;stroke:none"
         id="path18480" /><path
         d="m 2131.61,135.527 c -7.07,0 -12.65,2.672 -16.74,8.016 -4.09,5.34 -6.14,11.637 -6.14,18.891 0,7.187 1.86,14.625 5.58,22.312 3.72,7.688 8.73,14.094 15.05,19.219 6.3,5.125 13.12,7.683 20.44,7.683 3.31,0 6.27,-0.906 8.9,-2.714 2.62,-1.813 4.69,-4.282 6.19,-7.407 1.25,4.5 3.72,6.75 7.41,6.75 1.37,0 2.54,-0.422 3.51,-1.265 0.97,-0.844 1.45,-1.985 1.45,-3.426 0,-0.313 -0.01,-0.547 -0.05,-0.703 -0.03,-0.156 -0.07,-0.356 -0.14,-0.606 l -11.71,-46.879 c -0.75,-3.375 -1.13,-6.125 -1.13,-8.25 0,-4.808 1.59,-7.214 4.78,-7.214 3.5,0 6.18,2.234 8.02,6.699 1.85,4.469 3.39,9.609 4.64,15.422 0.25,0.687 0.69,1.031 1.31,1.031 h 2.07 c 0.43,0 0.79,-0.188 1.07,-0.559 0.28,-0.375 0.43,-0.75 0.43,-1.129 -2,-7.808 -4.16,-14.078 -6.48,-18.796 -2.31,-4.715 -6.09,-7.075 -11.34,-7.075 -3.75,0 -7.08,1.11 -9.98,3.325 -2.91,2.218 -4.74,5.14 -5.49,8.765 -7.19,-8.058 -14.4,-12.09 -21.65,-12.09 z m 0.09,4.407 c 4.06,0 8,1.515 11.81,4.546 3.81,3.032 7.06,6.61 9.75,10.735 0.13,0.125 0.19,0.277 0.19,0.469 l 9,36.562 0.19,0.469 c -0.63,4 -2.05,7.437 -4.27,10.312 -2.22,2.871 -5.23,4.309 -9.05,4.309 -3.75,0 -7.25,-1.547 -10.5,-4.637 -3.25,-3.097 -6,-6.769 -8.25,-11.015 -2.18,-4.438 -4.27,-10.579 -6.27,-18.422 -2,-7.844 -3,-13.922 -3,-18.235 0,-3.875 0.84,-7.359 2.52,-10.457 1.69,-3.093 4.32,-4.636 7.88,-4.636"
         style="fill:#262626;fill-opacity:1;fill-rule:nonzero;stroke:none"
         id="path18482" /><path
         d="m 2218.82,135.527 c -7.06,0 -12.64,2.672 -16.73,8.016 -4.1,5.34 -6.14,11.637 -6.14,18.891 0,7.187 1.86,14.625 5.58,22.312 3.71,7.688 8.73,14.094 15.04,19.219 6.32,5.125 13.13,7.683 20.44,7.683 3.25,0 6.2,-0.921 8.86,-2.765 2.65,-1.844 4.73,-4.293 6.23,-7.356 l 9.38,37.5 c 0.43,1.938 0.72,3.438 0.84,4.5 0,1.813 -3.62,2.719 -10.87,2.719 -1.19,0 -1.79,0.75 -1.79,2.25 0.07,0.246 0.2,0.731 0.38,1.453 0.19,0.719 0.44,1.266 0.75,1.637 0.32,0.375 0.75,0.562 1.31,0.562 l 22.6,1.786 c 1.37,0 2.06,-0.692 2.06,-2.067 l -24.19,-96.652 c -0.75,-1.875 -1.12,-4.567 -1.12,-8.067 0,-4.808 1.59,-7.214 4.78,-7.214 3.5,0 6.17,2.234 8.02,6.699 1.84,4.469 3.39,9.609 4.63,15.422 0.26,0.687 0.69,1.031 1.32,1.031 h 2.06 c 0.44,0 0.79,-0.188 1.08,-0.559 0.28,-0.375 0.42,-0.75 0.42,-1.129 -2,-7.808 -4.15,-14.078 -6.47,-18.796 -2.31,-4.715 -6.09,-7.075 -11.34,-7.075 -3.75,0 -7.08,1.11 -9.99,3.325 -2.91,2.218 -4.73,5.14 -5.48,8.765 -7.19,-8.058 -14.41,-12.09 -21.66,-12.09 z m 0.09,4.407 c 4.07,0 8.01,1.515 11.82,4.546 3.81,3.032 7.06,6.61 9.75,10.735 0.13,0.125 0.18,0.34 0.18,0.652 l 9.19,37.031 c -0.62,3.938 -2.06,7.329 -4.31,10.172 -2.25,2.844 -5.25,4.266 -9,4.266 -3.75,0 -7.25,-1.547 -10.5,-4.637 -3.25,-3.097 -6,-6.769 -8.25,-11.015 -2.18,-4.438 -4.28,-10.579 -6.28,-18.422 -2,-7.844 -3,-13.922 -3,-18.235 0,-3.875 0.85,-7.359 2.53,-10.457 1.69,-3.093 4.32,-4.636 7.87,-4.636"
         style="fill:#262626;fill-opacity:1;fill-rule:nonzero;stroke:none"
         id="path18484" /><path
         d="m 2284.92,98.7773 c 0,0.3125 0.03,0.5313 0.1,0.6563 l 58.4,161.9024 c 0.25,0.687 0.64,1.203 1.17,1.547 0.54,0.344 1.18,0.515 1.93,0.515 1,0 1.81,-0.293 2.43,-0.886 0.63,-0.594 0.94,-1.422 0.94,-2.485 v -0.66 L 2291.48,97.4648 c -0.68,-1.375 -1.75,-2.0664 -3.18,-2.0664 -0.94,0 -1.74,0.3282 -2.39,0.9844 -0.66,0.6563 -0.99,1.457 -0.99,2.3945"
         style="fill:#262626;fill-opacity:1;fill-rule:nonzero;stroke:none"
         id="path18486" /><path
         d="m 2372.57,147.617 c 3,-5.125 9.04,-7.683 18.1,-7.683 3.94,0 7.69,0.671 11.25,2.015 3.56,1.344 6.5,3.36 8.81,6.047 2.32,2.688 3.47,5.938 3.47,9.75 0,2.871 -1.03,5.246 -3.09,7.121 -2.06,1.875 -4.59,3.125 -7.59,3.75 l -9.1,1.879 c -4.19,1 -7.62,2.922 -10.31,5.766 -2.69,2.843 -4.04,6.297 -4.04,10.355 0,5 1.37,9.406 4.09,13.219 2.72,3.812 6.29,6.734 10.73,8.766 4.44,2.031 9.03,3.046 13.78,3.046 5.06,0 9.62,-1.214 13.65,-3.652 4.02,-2.441 6.04,-6.035 6.04,-10.781 0,-2.567 -0.73,-4.832 -2.2,-6.797 -1.47,-1.969 -3.49,-2.953 -6.05,-2.953 -1.44,0 -2.69,0.469 -3.75,1.402 -1.06,0.942 -1.59,2.16 -1.59,3.66 0,1.313 0.36,2.578 1.07,3.793 0.72,1.219 1.71,2.207 2.96,2.957 1.25,0.75 2.53,1.121 3.84,1.121 -1,2.438 -2.86,4.204 -5.57,5.301 -2.73,1.09 -5.65,1.637 -8.77,1.637 -2.82,0 -5.64,-0.578 -8.48,-1.734 -2.85,-1.157 -5.13,-2.84 -6.85,-5.059 -1.72,-2.219 -2.58,-4.828 -2.58,-7.828 0,-2.067 0.7,-3.863 2.11,-5.395 1.41,-1.527 3.14,-2.605 5.2,-3.234 l 9.85,-1.969 c 3.06,-0.687 5.9,-1.859 8.52,-3.515 2.63,-1.657 4.7,-3.75 6.2,-6.282 1.5,-2.527 2.25,-5.449 2.25,-8.765 0,-4.125 -1.18,-8.215 -3.52,-12.278 -2.34,-4.062 -5.2,-7.285 -8.58,-9.66 -5.94,-4.058 -13.25,-6.09 -21.94,-6.09 -5.93,0 -11.39,1.36 -16.35,4.075 -4.97,2.718 -7.46,6.796 -7.46,12.234 0,3.062 0.89,5.734 2.67,8.016 1.79,2.285 4.21,3.425 7.27,3.425 1.81,0 3.33,-0.547 4.55,-1.644 1.22,-1.09 1.82,-2.543 1.82,-4.356 0,-2.562 -0.95,-4.812 -2.85,-6.75 -1.91,-1.937 -4.15,-2.91 -6.71,-2.91 h -0.85"
         style="fill:#262626;fill-opacity:1;fill-rule:nonzero;stroke:none"
         id="path18488" /><path
         d="m 2438.95,95.3984 v 6.7496 h 16.41 v 154.5 h -16.41 v 6.75 h 23.07 V 95.3984 h -23.07"
         style="fill:#262626;fill-opacity:1;fill-rule:nonzero;stroke:none"
         id="path18490" /><path
         d="m 546,528 v 810"
         style="fill:none;stroke:#262626;stroke-width:4.998;stroke-linecap:square;stroke-linejoin:round;stroke-miterlimit:10;stroke-dasharray:none;stroke-opacity:1"
         id="path18492" /><path
         d="m 3804,528 v 810"
         style="fill:none;stroke:#262626;stroke-width:4.998;stroke-linecap:square;stroke-linejoin:round;stroke-miterlimit:10;stroke-dasharray:none;stroke-opacity:1"
         id="path18494" /><path
         d="m 546,654.191 h 32.578"
         style="fill:none;stroke:#262626;stroke-width:4.998;stroke-linecap:square;stroke-linejoin:round;stroke-miterlimit:10;stroke-dasharray:none;stroke-opacity:1"
         id="path18496" /><path
         d="m 546,916.648 h 32.578"
         style="fill:none;stroke:#262626;stroke-width:4.998;stroke-linecap:square;stroke-linejoin:round;stroke-miterlimit:10;stroke-dasharray:none;stroke-opacity:1"
         id="path18498" /><path
         d="m 546,1179.1 h 32.578"
         style="fill:none;stroke:#262626;stroke-width:4.998;stroke-linecap:square;stroke-linejoin:round;stroke-miterlimit:10;stroke-dasharray:none;stroke-opacity:1"
         id="path18500" /><path
         d="m 3804,654.191 h -32.58"
         style="fill:none;stroke:#262626;stroke-width:4.998;stroke-linecap:square;stroke-linejoin:round;stroke-miterlimit:10;stroke-dasharray:none;stroke-opacity:1"
         id="path18502" /><path
         d="m 3804,916.648 h -32.58"
         style="fill:none;stroke:#262626;stroke-width:4.998;stroke-linecap:square;stroke-linejoin:round;stroke-miterlimit:10;stroke-dasharray:none;stroke-opacity:1"
         id="path18504" /><path
         d="m 3804,1179.1 h -32.58"
         style="fill:none;stroke:#262626;stroke-width:4.998;stroke-linecap:square;stroke-linejoin:round;stroke-miterlimit:10;stroke-dasharray:none;stroke-opacity:1"
         id="path18506" /><g
         id="g18508"
         transform="scale(10)"><text
           transform="matrix(1,0,0,-1,27.4,59.4191)"
           style="font-variant:normal;font-weight:bold;font-size:15px;font-family:Helvetica;-inkscape-font-specification:Helvetica-Bold;writing-mode:lr-tb;fill:#262626;fill-opacity:1;fill-rule:nonzero;stroke:none"
           id="text18516"><tspan
             x="0 4.9949999 13.335"
             y="0"
             sodipodi:role="line"
             id="tspan18510">-20</tspan><tspan
             x="13.8"
             y="-26.245701"
             id="tspan18512">0</tspan><tspan
             x="5.4000001 13.74"
             y="-52.491001"
             sodipodi:role="line"
             id="tspan18514">20</tspan></text><text
           transform="matrix(0,1,1,0,20.4,60)"
           style="font-variant:normal;font-weight:bold;font-size:16.5px;font-family:Helvetica;-inkscape-font-specification:Helvetica-Bold;writing-mode:lr-tb;fill:#262626;fill-opacity:1;fill-rule:nonzero;stroke:none"
           id="text18520"><tspan
             x="0 12.837 22.918501 33 42.636002"
             y="0"
             sodipodi:role="line"
             id="tspan18518">QTF+/</tspan></text></g><path
         d="m 235.598,1084.69 c -0.692,0 -1.129,0.06 -1.317,0.19 l -67.129,16.59 c -6,1.62 -11.886,4.35 -17.668,8.2 -5.781,3.85 -10.515,8.5 -14.203,13.97 -3.687,5.47 -5.531,11.24 -5.531,17.3 0,8.87 1.266,15.12 3.797,18.75 2.531,3.62 5.879,6.36 10.031,8.2 4.156,1.84 8.672,2.76 13.543,2.76 5.442,0 11.051,-1.1 16.832,-3.32 5.777,-2.22 11.078,-5.28 15.895,-9.19 4.808,-3.91 8.683,-8.41 11.621,-13.5 2.937,-5.09 4.41,-12.42 4.41,-21.99 0,-3.24 -0.973,-6.32 -2.91,-9.23 -1.938,-2.9 -2.906,-4.36 -2.906,-4.36 l 34.875,-6.37 c 1.562,-0.38 2.843,-1.22 3.843,-2.54 1,-1.31 1.5,-4.77 1.5,-10.4 0,-1.37 -0.422,-2.56 -1.265,-3.56 -0.844,-1 -1.985,-1.5 -3.418,-1.5 z m -34.129,38.53 c 0,5.81 -3.047,10.92 -9.141,15.33 -6.094,4.4 -13.265,7.76 -21.515,10.08 -8.25,2.31 -15.219,3.47 -20.911,3.47 -4.246,0 -7.949,-0.92 -11.105,-2.77 -3.156,-1.85 -4.734,-4.74 -4.734,-8.68 0,-0.87 1.859,-3.17 5.574,-6.88 3.722,-3.72 8.066,-6.71 13.035,-8.96 4.965,-2.25 10.137,-4.09 15.516,-5.53 l 18.843,-4.59 c 4.063,0.75 7.485,2.36 10.266,4.83 2.781,2.46 4.172,3.7 4.172,3.7"
         style="fill:#262626;fill-opacity:1;fill-rule:nonzero;stroke:none"
         id="path18522" /><g
         id="g18524"
         transform="scale(10)"><text
           transform="matrix(0,1,1,0,20.4,117)"
           style="font-variant:normal;font-weight:bold;font-size:16.5px;font-family:Helvetica;-inkscape-font-specification:Helvetica-Bold;writing-mode:lr-tb;fill:#262626;fill-opacity:1;fill-rule:nonzero;stroke:none"
           id="text18528"><tspan
             x="0"
             y="0"
             id="tspan18526">g</tspan></text></g><g
         id="g18530"
         transform="scale(10)"><text
           transform="matrix(1,0,0,-1,148.2,139.8)"
           style="font-variant:normal;font-weight:bold;font-size:15px;font-family:Helvetica;-inkscape-font-specification:Helvetica-Bold;writing-mode:lr-tb;fill:#000000;fill-opacity:1;fill-rule:nonzero;stroke:none"
           id="text18534"><tspan
             x="0 11.67 20.834999 30 38.759998 42.93 47.924999 57.09 62.924999"
             y="0"
             sodipodi:role="line"
             id="tspan18532">QTF+ for </tspan></text></g><path
         d="m 2162.15,1398 c -0.87,0 -1.3,0.41 -1.3,1.22 0.06,0.06 0.1,0.12 0.13,0.18 0.04,0.07 0.05,0.16 0.05,0.29 l 51.66,104.06 c 0.44,1.06 1.34,1.6 2.71,1.6 h 2.07 c 5.31,0 8.19,-0.54 8.63,-1.6 l 51.65,-104.06 c 0.06,-0.13 0.11,-0.22 0.14,-0.29 0.03,-0.06 0.05,-0.12 0.05,-0.18 0,-0.81 -2.41,-1.22 -7.22,-1.22 z m 15.85,12 h 73.03 l -37.13,74.72 z"
         style="fill:#000000;fill-opacity:1;fill-rule:nonzero;stroke:none"
         id="path18536" /><g
         id="g18538"
         transform="scale(10)"><text
           transform="matrix(1,0,0,-1,229.2,139.8)"
           style="font-variant:normal;font-weight:bold;font-size:15px;font-family:Helvetica;-inkscape-font-specification:Helvetica-Bold;writing-mode:lr-tb;fill:#000000;fill-opacity:1;fill-rule:nonzero;stroke:none"
           id="text18542"><tspan
             x="0 11.67 20.43 28.77 32.939999 41.279999 49.619999"
             y="0"
             sodipodi:role="line"
             id="tspan18540">w=0.063</tspan></text></g><path
         d="m 546,916.691 107.215,0.114 108.945,0.992 108.949,5.351 108.942,10.446 108.949,-44.621 107.21,7.738 108.95,3.297 108.95,4.234 108.94,7.613 108.95,6.356 107.21,6 108.95,5.008 108.95,4.945 108.94,9.199 108.95,9.262 107.21,12.738 108.95,16.793 108.95,23.694 108.94,27.19 108.95,36.74 107.21,41.26 108.95,48.61 108.95,49.02 108.94,50.08 108.95,39.82 107.21,30.86 108.95,8.57 108.95,-16.84 108.94,-42.25 108.95,-74.23"
         style="fill:none;stroke:#0000ff;stroke-width:19.998;stroke-linecap:butt;stroke-linejoin:round;stroke-miterlimit:10;stroke-dasharray:none;stroke-opacity:1"
         id="path18544" /><path
         d="m 546,867.008 107.215,25.344 108.945,5.378 108.949,-90.125 108.942,42.008 108.949,166.687 107.21,-39.534 108.95,-13.797 108.95,-10.188 108.94,-5.07 108.95,0.836 107.21,4.402 108.95,9.86 108.95,11.554 108.94,16.977 108.95,21.63 107.21,23.16 108.95,22.7 108.95,22.74 108.94,16.92 108.95,9.66 107.21,0.38 108.95,-12.17 108.95,-24.96 108.94,-40.67 108.95,-57.832 107.21,-71.781 108.95,-86.808 108.95,-92.821 108.94,-99.175 L 3804,528"
         style="fill:none;stroke:#0000ff;stroke-width:19.998;stroke-linecap:butt;stroke-linejoin:bevel;stroke-miterlimit:10;stroke-dasharray:72, 18, 36, 18;stroke-dashoffset:0;stroke-opacity:1"
         id="path18546" /><path
         d="m 546,916.691 107.215,0.125 108.945,0.254 108.949,15.09 108.942,9.059 108.949,-79.305 107.21,10.18 108.95,8.441 108.95,6.02 108.94,11.808 108.95,12.965 107.21,-1.219 108.95,13.536 108.95,18.199 108.94,-20.063 108.95,28.278 107.21,15.269 108.95,-7.879 108.95,61.381 108.94,-13.12 108.95,77.94 107.21,4.27 108.95,82.01 108.95,17.09 108.94,79.33 108.95,9.37 107.21,27.26 108.95,-7.07 108.95,-14.93 108.94,-32.52 108.95,-99.83"
         style="fill:none;stroke:#ff0000;stroke-width:19.998;stroke-linecap:butt;stroke-linejoin:bevel;stroke-miterlimit:10;stroke-dasharray:72, 72;stroke-dashoffset:0;stroke-opacity:1"
         id="path18548" /><path
         d="m 546,867.02 107.215,26.441 108.945,14.602 108.949,-190.45 108.942,87.047 108.949,285.44 107.21,-74.69 108.95,-27.515 108.95,-16.957 108.94,-13.231 108.95,2.07 107.21,3.618 108.95,-5.813 108.95,29.484 108.94,13.294 108.95,-3.422 107.21,55.582 108.95,-12.86 108.95,40.81 108.94,-7.82 108.95,12.68 107.21,13.15 108.95,-27.35 108.95,-16.68 108.94,-42.22 108.95,-63.046 107.21,-28.485 108.95,-159.043 108.95,-56.801 108.94,-90.429 108.95,-80.395"
         style="fill:none;stroke:#ff0000;stroke-width:19.998;stroke-linecap:butt;stroke-linejoin:bevel;stroke-miterlimit:10;stroke-dasharray:18, 18;stroke-dashoffset:0;stroke-opacity:1"
         id="path18550" /></g></g></svg>
