<?xml version="1.0" encoding="UTF-8" standalone="no"?>
<svg
   version="1.1"
   id="svg440"
   xml:space="preserve"
   width="560"
   height="420"
   viewBox="0 0 560 420"
   sodipodi:docname="QTFM_Pitch_beta030_diag.svg"
   xmlns:inkscape="http://www.inkscape.org/namespaces/inkscape"
   xmlns:sodipodi="http://sodipodi.sourceforge.net/DTD/sodipodi-0.dtd"
   xmlns="http://www.w3.org/2000/svg"
   xmlns:svg="http://www.w3.org/2000/svg"
   xmlns:rdf="http://www.w3.org/1999/02/22-rdf-syntax-ns#"
   xmlns:cc="http://creativecommons.org/ns#"
   xmlns:dc="http://purl.org/dc/elements/1.1/"><metadata
     id="metadata446"><rdf:RDF><cc:Work
         rdf:about=""><dc:format>image/svg+xml</dc:format><dc:type
           rdf:resource="http://purl.org/dc/dcmitype/StillImage" /></cc:Work></rdf:RDF></metadata><defs
     id="defs444" /><sodipodi:namedview
     pagecolor="#ffffff"
     bordercolor="#666666"
     borderopacity="1"
     objecttolerance="10"
     gridtolerance="10"
     guidetolerance="10"
     inkscape:pageopacity="0"
     inkscape:pageshadow="2"
     inkscape:window-width="640"
     inkscape:window-height="480"
     id="namedview442"
     inkscape:showpageshadow="2"
     inkscape:pagecheckerboard="0"
     inkscape:deskcolor="#d1d1d1" /><g
     id="g448"
     inkscape:groupmode="layer"
     inkscape:label="ink_ext_XXXXXX"
     transform="matrix(1.3333333,0,0,-1.3333333,0,419.99999)"><g
       id="g450"
       transform="scale(0.1)"><path
         d="M 0,0 H 4200 V 3150 H 0 Z"
         style="fill:#ffffff;fill-opacity:1;fill-rule:nonzero;stroke:none"
         id="path452" /><path
         d="M 0,0 H 4200 V 3150 H 0 Z"
         style="fill:#ffffff;fill-opacity:1;fill-rule:nonzero;stroke:none"
         id="path454" /><path
         d="m 594,2022 h 3210 v 810 H 594 Z"
         style="fill:#ffffff;fill-opacity:1;fill-rule:nonzero;stroke:none"
         id="path456" /><path
         d="M 594,2022 H 3804"
         style="fill:none;stroke:#262626;stroke-width:4.998;stroke-linecap:square;stroke-linejoin:round;stroke-miterlimit:10;stroke-dasharray:none;stroke-opacity:1"
         id="path458" /><path
         d="M 594,2832 H 3804"
         style="fill:none;stroke:#262626;stroke-width:4.998;stroke-linecap:square;stroke-linejoin:round;stroke-miterlimit:10;stroke-dasharray:none;stroke-opacity:1"
         id="path460" /><path
         d="m 1049.89,2022 v 32.1"
         style="fill:none;stroke:#262626;stroke-width:4.998;stroke-linecap:square;stroke-linejoin:round;stroke-miterlimit:10;stroke-dasharray:none;stroke-opacity:1"
         id="path462" /><path
         d="m 1571.5,2022 v 32.1"
         style="fill:none;stroke:#262626;stroke-width:4.998;stroke-linecap:square;stroke-linejoin:round;stroke-miterlimit:10;stroke-dasharray:none;stroke-opacity:1"
         id="path464" /><path
         d="m 2093.11,2022 v 32.1"
         style="fill:none;stroke:#262626;stroke-width:4.998;stroke-linecap:square;stroke-linejoin:round;stroke-miterlimit:10;stroke-dasharray:none;stroke-opacity:1"
         id="path466" /><path
         d="m 2614.72,2022 v 32.1"
         style="fill:none;stroke:#262626;stroke-width:4.998;stroke-linecap:square;stroke-linejoin:round;stroke-miterlimit:10;stroke-dasharray:none;stroke-opacity:1"
         id="path468" /><path
         d="m 3136.34,2022 v 32.1"
         style="fill:none;stroke:#262626;stroke-width:4.998;stroke-linecap:square;stroke-linejoin:round;stroke-miterlimit:10;stroke-dasharray:none;stroke-opacity:1"
         id="path470" /><path
         d="m 3657.95,2022 v 32.1"
         style="fill:none;stroke:#262626;stroke-width:4.998;stroke-linecap:square;stroke-linejoin:round;stroke-miterlimit:10;stroke-dasharray:none;stroke-opacity:1"
         id="path472" /><path
         d="m 1049.89,2832 v -32.1"
         style="fill:none;stroke:#262626;stroke-width:4.998;stroke-linecap:square;stroke-linejoin:round;stroke-miterlimit:10;stroke-dasharray:none;stroke-opacity:1"
         id="path474" /><path
         d="m 1571.5,2832 v -32.1"
         style="fill:none;stroke:#262626;stroke-width:4.998;stroke-linecap:square;stroke-linejoin:round;stroke-miterlimit:10;stroke-dasharray:none;stroke-opacity:1"
         id="path476" /><path
         d="m 2093.11,2832 v -32.1"
         style="fill:none;stroke:#262626;stroke-width:4.998;stroke-linecap:square;stroke-linejoin:round;stroke-miterlimit:10;stroke-dasharray:none;stroke-opacity:1"
         id="path478" /><path
         d="m 2614.72,2832 v -32.1"
         style="fill:none;stroke:#262626;stroke-width:4.998;stroke-linecap:square;stroke-linejoin:round;stroke-miterlimit:10;stroke-dasharray:none;stroke-opacity:1"
         id="path480" /><path
         d="m 3136.34,2832 v -32.1"
         style="fill:none;stroke:#262626;stroke-width:4.998;stroke-linecap:square;stroke-linejoin:round;stroke-miterlimit:10;stroke-dasharray:none;stroke-opacity:1"
         id="path482" /><path
         d="m 3657.95,2832 v -32.1"
         style="fill:none;stroke:#262626;stroke-width:4.998;stroke-linecap:square;stroke-linejoin:round;stroke-miterlimit:10;stroke-dasharray:none;stroke-opacity:1"
         id="path484" /><g
         id="g486"
         transform="scale(10)"><text
           transform="matrix(1,0,0,-1,94.4891,181.6)"
           style="font-variant:normal;font-weight:bold;font-size:15px;font-family:Helvetica;-inkscape-font-specification:Helvetica-Bold;writing-mode:lr-tb;fill:#262626;fill-opacity:1;fill-rule:nonzero;stroke:none"
           id="text490"><tspan
             x="0 8.3400002 12.51 58.460999 104.3223 112.6623 116.8323 162.7836 208.64461 216.9846 221.1546 267.1059"
             y="0"
             sodipodi:role="line"
             id="tspan488">0.511.522.53</tspan></text></g><path
         d="m 1913.21,1629.53 c -6.31,0 -10.89,2.33 -13.73,6.98 -2.84,4.66 -4.27,10.33 -4.27,17.02 0,4.43 0.41,8.77 1.22,13.02 0.82,4.25 2.02,8.56 3.62,12.9 1.59,4.34 3.43,8.42 5.53,12.23 2.09,3.81 4.42,7.5 6.98,11.07 0.5,0.74 1.16,1.12 1.97,1.12 0.69,0 1.25,-0.22 1.68,-0.66 0.45,-0.44 0.67,-0.97 0.67,-1.59 0,-0.63 -0.16,-1.16 -0.48,-1.59 -10.18,-14.07 -15.27,-27.04 -15.27,-38.91 0,-5.13 1.18,-9.55 3.55,-13.27 2.38,-3.71 6,-5.57 10.88,-5.57 4.19,0 8.08,1.23 11.67,3.7 3.6,2.47 6.71,5.61 9.33,9.42 0,2 0.33,5.08 0.99,9.23 0.65,4.16 1.71,7.86 3.18,11.12 1.47,3.24 3.2,4.87 5.2,4.87 2.57,0 3.85,-1.5 3.85,-4.5 0,-1.75 -0.36,-3.95 -1.08,-6.61 -0.72,-2.65 -1.53,-5.12 -2.44,-7.41 -0.9,-2.28 -2.01,-4.89 -3.33,-7.82 1.32,-8 5.32,-12 12,-12 3.88,0 7.77,1.12 11.68,3.37 3.9,2.25 7.35,5.21 10.35,8.86 3,3.66 5.36,7.58 7.09,11.77 1.72,4.18 2.58,8.18 2.58,12 0,3.37 -0.54,5.99 -1.6,7.87 -1.07,1.88 -2.47,3.86 -4.22,5.95 -1.75,2.1 -2.63,3.77 -2.63,5.02 0,2.18 0.94,4.18 2.82,6 1.88,1.81 3.88,2.72 6,2.72 2.68,0 4.61,-1.25 5.76,-3.75 1.16,-2.5 1.74,-5.35 1.74,-8.54 0,-5.12 -1.02,-11.59 -3.05,-19.4 -2.03,-7.81 -4.36,-14.31 -6.99,-19.5 -3.62,-7.06 -8.15,-13.02 -13.58,-17.86 -5.45,-4.84 -11.57,-7.26 -18.38,-7.26 -4.32,0 -7.8,1.29 -10.45,3.89 -2.66,2.59 -4.37,6.13 -5.12,10.63 -3.12,-4.43 -6.68,-7.96 -10.68,-10.59 -4,-2.62 -8.35,-3.93 -13.04,-3.93"
         style="fill:#262626;fill-opacity:1;fill-rule:nonzero;stroke:none"
         id="path492" /><path
         d="m 2021.37,1589.4 v 168 h 22.97 v -6.75 h -16.22 v -154.5 h 16.22 v -6.75 h -22.97"
         style="fill:#262626;fill-opacity:1;fill-rule:nonzero;stroke:none"
         id="path494" /><path
         d="m 2060.27,1634.3 c 0,0.63 0.06,1.1 0.19,1.41 l 12.56,50.16 c 0.81,3.12 1.22,5.87 1.22,8.25 0,4.81 -1.63,7.22 -4.88,7.22 -3.5,0 -6.11,-2.1 -7.82,-6.29 -1.72,-4.18 -3.37,-9.49 -4.93,-15.93 0,-0.32 -0.17,-0.57 -0.51,-0.75 -0.35,-0.19 -0.64,-0.28 -0.89,-0.28 h -1.97 c -0.38,0 -0.7,0.2 -0.99,0.61 -0.28,0.4 -0.42,0.76 -0.42,1.08 1.19,4.87 2.34,9.01 3.47,12.42 1.13,3.4 2.88,6.5 5.25,9.28 2.37,2.78 5.34,4.17 8.91,4.17 3.87,0 7.28,-1.12 10.21,-3.37 2.94,-2.25 4.76,-5.19 5.44,-8.82 2.87,3.69 6.12,6.65 9.75,8.86 3.63,2.22 7.6,3.33 11.91,3.33 3.56,0 6.7,-1.04 9.42,-3.14 2.72,-2.09 4.08,-4.89 4.08,-8.39 0,-2.88 -0.89,-5.36 -2.67,-7.45 -1.78,-2.1 -4.14,-3.14 -7.08,-3.14 -1.81,0 -3.33,0.56 -4.55,1.68 -1.22,1.13 -1.83,2.57 -1.83,4.32 0,2.5 0.9,4.72 2.68,6.65 1.78,1.94 3.86,2.91 6.23,2.91 -1.81,1.5 -4,2.25 -6.56,2.25 -4.81,0 -9,-1.72 -12.57,-5.16 -3.56,-3.43 -6.74,-7.78 -9.56,-13.03 l -12,-48.1 c -0.37,-1.5 -1.23,-2.79 -2.57,-3.88 -1.35,-1.1 -2.83,-1.64 -4.46,-1.64 -1.37,0 -2.56,0.43 -3.56,1.31 -1,0.87 -1.5,2.03 -1.5,3.46"
         style="fill:#262626;fill-opacity:1;fill-rule:nonzero;stroke:none"
         id="path496" /><path
         d="m 2155.61,1629.53 c -7.07,0 -12.65,2.67 -16.74,8.01 -4.09,5.34 -6.14,11.64 -6.14,18.89 0,7.19 1.86,14.63 5.58,22.32 3.72,7.68 8.73,14.09 15.05,19.21 6.3,5.13 13.12,7.69 20.44,7.69 3.31,0 6.27,-0.91 8.9,-2.72 2.62,-1.81 4.69,-4.28 6.19,-7.4 1.25,4.5 3.72,6.75 7.41,6.75 1.37,0 2.54,-0.42 3.51,-1.27 0.97,-0.84 1.45,-1.98 1.45,-3.42 0,-0.32 -0.01,-0.55 -0.05,-0.71 -0.03,-0.15 -0.07,-0.35 -0.14,-0.6 l -11.71,-46.88 c -0.75,-3.38 -1.13,-6.13 -1.13,-8.25 0,-4.81 1.59,-7.22 4.78,-7.22 3.5,0 6.18,2.24 8.02,6.7 1.85,4.47 3.39,9.61 4.64,15.42 0.25,0.69 0.69,1.04 1.31,1.04 h 2.07 c 0.43,0 0.79,-0.19 1.07,-0.56 0.28,-0.38 0.43,-0.75 0.43,-1.13 -2,-7.81 -4.16,-14.08 -6.48,-18.8 -2.31,-4.71 -6.09,-7.07 -11.34,-7.07 -3.75,0 -7.08,1.11 -9.98,3.32 -2.91,2.22 -4.74,5.14 -5.49,8.77 -7.19,-8.06 -14.4,-12.09 -21.65,-12.09 z m 0.09,4.4 c 4.06,0 8,1.52 11.81,4.55 3.81,3.03 7.06,6.61 9.75,10.73 0.13,0.13 0.19,0.28 0.19,0.47 l 9,36.57 0.19,0.46 c -0.63,4 -2.05,7.44 -4.27,10.32 -2.22,2.87 -5.23,4.31 -9.05,4.31 -3.75,0 -7.25,-1.55 -10.5,-4.64 -3.25,-3.1 -6,-6.77 -8.25,-11.02 -2.18,-4.43 -4.27,-10.57 -6.27,-18.42 -2,-7.84 -3,-13.92 -3,-18.23 0,-3.88 0.84,-7.36 2.52,-10.46 1.69,-3.09 4.32,-4.64 7.88,-4.64"
         style="fill:#262626;fill-opacity:1;fill-rule:nonzero;stroke:none"
         id="path498" /><path
         d="m 2242.82,1629.53 c -7.06,0 -12.64,2.67 -16.73,8.01 -4.1,5.34 -6.14,11.64 -6.14,18.89 0,7.19 1.86,14.63 5.58,22.32 3.71,7.68 8.73,14.09 15.04,19.21 6.32,5.13 13.13,7.69 20.44,7.69 3.25,0 6.2,-0.92 8.86,-2.77 2.65,-1.84 4.73,-4.29 6.23,-7.35 l 9.38,37.5 c 0.43,1.93 0.72,3.43 0.84,4.5 0,1.81 -3.62,2.72 -10.87,2.72 -1.19,0 -1.79,0.75 -1.79,2.25 0.07,0.24 0.2,0.73 0.38,1.45 0.19,0.72 0.44,1.26 0.75,1.64 0.32,0.37 0.75,0.56 1.31,0.56 l 22.6,1.78 c 1.37,0 2.06,-0.69 2.06,-2.06 l -24.19,-96.66 c -0.75,-1.87 -1.12,-4.56 -1.12,-8.06 0,-4.81 1.59,-7.22 4.78,-7.22 3.5,0 6.17,2.24 8.02,6.7 1.84,4.47 3.39,9.61 4.63,15.42 0.26,0.69 0.69,1.04 1.32,1.04 h 2.06 c 0.44,0 0.79,-0.19 1.08,-0.56 0.28,-0.38 0.42,-0.75 0.42,-1.13 -2,-7.81 -4.15,-14.08 -6.47,-18.8 -2.31,-4.71 -6.09,-7.07 -11.34,-7.07 -3.75,0 -7.08,1.11 -9.99,3.32 -2.91,2.22 -4.73,5.14 -5.48,8.77 -7.19,-8.06 -14.41,-12.09 -21.66,-12.09 z m 0.09,4.4 c 4.07,0 8.01,1.52 11.82,4.55 3.81,3.03 7.06,6.61 9.75,10.73 0.13,0.13 0.18,0.34 0.18,0.66 l 9.19,37.03 c -0.62,3.94 -2.06,7.33 -4.31,10.17 -2.25,2.84 -5.25,4.27 -9,4.27 -3.75,0 -7.25,-1.55 -10.5,-4.64 -3.25,-3.1 -6,-6.77 -8.25,-11.02 -2.18,-4.43 -4.28,-10.57 -6.28,-18.42 -2,-7.84 -3,-13.92 -3,-18.23 0,-3.88 0.85,-7.36 2.53,-10.46 1.69,-3.09 4.32,-4.64 7.87,-4.64"
         style="fill:#262626;fill-opacity:1;fill-rule:nonzero;stroke:none"
         id="path500" /><path
         d="m 2308.92,1592.78 c 0,0.31 0.03,0.53 0.1,0.65 l 58.4,161.91 c 0.25,0.68 0.64,1.2 1.17,1.54 0.54,0.35 1.18,0.52 1.93,0.52 1,0 1.81,-0.29 2.43,-0.89 0.63,-0.59 0.94,-1.42 0.94,-2.48 v -0.66 l -58.41,-161.91 c -0.68,-1.37 -1.75,-2.06 -3.18,-2.06 -0.94,0 -1.74,0.33 -2.39,0.98 -0.66,0.66 -0.99,1.46 -0.99,2.4"
         style="fill:#262626;fill-opacity:1;fill-rule:nonzero;stroke:none"
         id="path502" /><path
         d="m 2396.57,1641.62 c 3,-5.13 9.04,-7.69 18.1,-7.69 3.94,0 7.69,0.68 11.25,2.02 3.56,1.34 6.5,3.36 8.81,6.05 2.32,2.68 3.47,5.93 3.47,9.75 0,2.87 -1.03,5.24 -3.09,7.12 -2.06,1.87 -4.59,3.12 -7.59,3.75 l -9.1,1.88 c -4.19,1 -7.62,2.92 -10.31,5.76 -2.69,2.85 -4.04,6.3 -4.04,10.36 0,5 1.37,9.4 4.09,13.22 2.72,3.81 6.29,6.73 10.73,8.76 4.44,2.03 9.03,3.05 13.78,3.05 5.06,0 9.62,-1.22 13.65,-3.65 4.02,-2.45 6.04,-6.04 6.04,-10.79 0,-2.56 -0.73,-4.83 -2.2,-6.79 -1.47,-1.97 -3.49,-2.96 -6.05,-2.96 -1.44,0 -2.69,0.47 -3.75,1.41 -1.06,0.94 -1.59,2.16 -1.59,3.66 0,1.31 0.36,2.58 1.07,3.79 0.72,1.22 1.71,2.21 2.96,2.96 1.25,0.75 2.53,1.12 3.84,1.12 -1,2.44 -2.86,4.2 -5.57,5.3 -2.73,1.09 -5.65,1.64 -8.77,1.64 -2.82,0 -5.64,-0.58 -8.48,-1.74 -2.85,-1.15 -5.13,-2.84 -6.85,-5.06 -1.72,-2.22 -2.58,-4.83 -2.58,-7.83 0,-2.06 0.7,-3.86 2.11,-5.39 1.41,-1.53 3.14,-2.61 5.2,-3.23 l 9.85,-1.97 c 3.06,-0.69 5.9,-1.86 8.52,-3.52 2.63,-1.65 4.7,-3.75 6.2,-6.28 1.5,-2.53 2.25,-5.45 2.25,-8.77 0,-4.12 -1.18,-8.21 -3.52,-12.27 -2.34,-4.07 -5.2,-7.29 -8.58,-9.66 -5.94,-4.06 -13.25,-6.09 -21.94,-6.09 -5.93,0 -11.39,1.36 -16.35,4.07 -4.97,2.72 -7.46,6.8 -7.46,12.24 0,3.06 0.89,5.73 2.67,8.01 1.79,2.29 4.21,3.43 7.27,3.43 1.81,0 3.33,-0.55 4.55,-1.65 1.22,-1.09 1.82,-2.54 1.82,-4.35 0,-2.57 -0.95,-4.82 -2.85,-6.75 -1.91,-1.94 -4.15,-2.91 -6.71,-2.91 h -0.85"
         style="fill:#262626;fill-opacity:1;fill-rule:nonzero;stroke:none"
         id="path504" /><path
         d="m 2462.95,1589.4 v 6.75 h 16.41 v 154.5 h -16.41 v 6.75 h 23.07 v -168 h -23.07"
         style="fill:#262626;fill-opacity:1;fill-rule:nonzero;stroke:none"
         id="path506" /><path
         d="m 594,2022 v 810"
         style="fill:none;stroke:#262626;stroke-width:4.998;stroke-linecap:square;stroke-linejoin:round;stroke-miterlimit:10;stroke-dasharray:none;stroke-opacity:1"
         id="path508" /><path
         d="m 3804,2022 v 810"
         style="fill:none;stroke:#262626;stroke-width:4.998;stroke-linecap:square;stroke-linejoin:round;stroke-miterlimit:10;stroke-dasharray:none;stroke-opacity:1"
         id="path510" /><path
         d="m 594,2039.7 h 32.102"
         style="fill:none;stroke:#262626;stroke-width:4.998;stroke-linecap:square;stroke-linejoin:round;stroke-miterlimit:10;stroke-dasharray:none;stroke-opacity:1"
         id="path512" /><path
         d="m 594,2266.07 h 32.102"
         style="fill:none;stroke:#262626;stroke-width:4.998;stroke-linecap:square;stroke-linejoin:round;stroke-miterlimit:10;stroke-dasharray:none;stroke-opacity:1"
         id="path514" /><path
         d="m 594,2492.44 h 32.102"
         style="fill:none;stroke:#262626;stroke-width:4.998;stroke-linecap:square;stroke-linejoin:round;stroke-miterlimit:10;stroke-dasharray:none;stroke-opacity:1"
         id="path516" /><path
         d="m 594,2718.82 h 32.102"
         style="fill:none;stroke:#262626;stroke-width:4.998;stroke-linecap:square;stroke-linejoin:round;stroke-miterlimit:10;stroke-dasharray:none;stroke-opacity:1"
         id="path518" /><path
         d="m 3804,2039.7 h -32.1"
         style="fill:none;stroke:#262626;stroke-width:4.998;stroke-linecap:square;stroke-linejoin:round;stroke-miterlimit:10;stroke-dasharray:none;stroke-opacity:1"
         id="path520" /><path
         d="m 3804,2266.07 h -32.1"
         style="fill:none;stroke:#262626;stroke-width:4.998;stroke-linecap:square;stroke-linejoin:round;stroke-miterlimit:10;stroke-dasharray:none;stroke-opacity:1"
         id="path522" /><path
         d="m 3804,2492.44 h -32.1"
         style="fill:none;stroke:#262626;stroke-width:4.998;stroke-linecap:square;stroke-linejoin:round;stroke-miterlimit:10;stroke-dasharray:none;stroke-opacity:1"
         id="path524" /><path
         d="m 3804,2718.82 h -32.1"
         style="fill:none;stroke:#262626;stroke-width:4.998;stroke-linecap:square;stroke-linejoin:round;stroke-miterlimit:10;stroke-dasharray:none;stroke-opacity:1"
         id="path526" /><g
         id="g528"
         transform="scale(10)"><text
           transform="matrix(1,0,0,-1,32.2,197.969)"
           style="font-variant:normal;font-weight:bold;font-size:15px;font-family:Helvetica;-inkscape-font-specification:Helvetica-Bold;writing-mode:lr-tb;fill:#262626;fill-opacity:1;fill-rule:nonzero;stroke:none"
           id="text538"><tspan
             x="0 4.9949999 13.335"
             y="0"
             sodipodi:role="line"
             id="tspan530">-20</tspan><tspan
             x="13.8"
             y="-22.637501"
             id="tspan532">0</tspan><tspan
             x="5.4000001 13.74"
             y="-45.275002"
             sodipodi:role="line"
             id="tspan534">20</tspan><tspan
             x="5.4000001 13.74"
             y="-67.912102"
             sodipodi:role="line"
             id="tspan536">40</tspan></text><text
           transform="matrix(0,1,1,0,25.2,211.2)"
           style="font-variant:normal;font-weight:bold;font-size:16.5px;font-family:Helvetica;-inkscape-font-specification:Helvetica-Bold;writing-mode:lr-tb;fill:#262626;fill-opacity:1;fill-rule:nonzero;stroke:none"
           id="text542"><tspan
             x="0 12.837 22.918501 33 38.494499"
             y="0"
             sodipodi:role="line"
             id="tspan540">QTF-/</tspan></text></g><path
         d="m 283.598,2554.69 c -0.692,0 -1.129,0.06 -1.317,0.19 l -67.129,16.59 c -6,1.62 -11.886,4.35 -17.668,8.2 -5.781,3.85 -10.515,8.5 -14.203,13.97 -3.687,5.47 -5.531,11.24 -5.531,17.3 0,8.87 1.266,15.12 3.797,18.75 2.531,3.62 5.879,6.36 10.031,8.2 4.156,1.84 8.672,2.76 13.543,2.76 5.442,0 11.051,-1.1 16.832,-3.32 5.777,-2.22 11.078,-5.28 15.895,-9.19 4.808,-3.91 8.683,-8.41 11.621,-13.5 2.937,-5.09 4.41,-12.42 4.41,-21.99 0,-3.24 -0.973,-6.32 -2.91,-9.23 -1.938,-2.9 -2.906,-4.36 -2.906,-4.36 l 34.875,-6.37 c 1.562,-0.38 2.843,-1.22 3.843,-2.54 1,-1.31 1.5,-4.77 1.5,-10.4 0,-1.37 -0.422,-2.56 -1.265,-3.56 -0.844,-1 -1.985,-1.5 -3.418,-1.5 z m -34.129,38.53 c 0,5.81 -3.047,10.92 -9.141,15.33 -6.094,4.4 -13.265,7.76 -21.515,10.08 -8.25,2.31 -15.219,3.47 -20.911,3.47 -4.246,0 -7.949,-0.92 -11.105,-2.77 -3.156,-1.85 -4.734,-4.74 -4.734,-8.68 0,-0.87 1.859,-3.17 5.574,-6.88 3.722,-3.72 8.066,-6.71 13.035,-8.96 4.965,-2.25 10.137,-4.09 15.516,-5.53 l 18.843,-4.59 c 4.063,0.75 7.485,2.36 10.266,4.83 2.781,2.46 4.172,3.7 4.172,3.7"
         style="fill:#262626;fill-opacity:1;fill-rule:nonzero;stroke:none"
         id="path544" /><g
         id="g546"
         transform="scale(10)"><text
           transform="matrix(0,1,1,0,25.2,264)"
           style="font-variant:normal;font-weight:bold;font-size:16.5px;font-family:Helvetica;-inkscape-font-specification:Helvetica-Bold;writing-mode:lr-tb;fill:#262626;fill-opacity:1;fill-rule:nonzero;stroke:none"
           id="text550"><tspan
             x="0"
             y="0"
             id="tspan548">g</tspan></text></g><g
         id="g552"
         transform="scale(10)"><text
           transform="matrix(1,0,0,-1,166.8,289.2)"
           style="font-variant:normal;font-weight:bold;font-size:15px;font-family:Helvetica;-inkscape-font-specification:Helvetica-Bold;writing-mode:lr-tb;fill:#000000;fill-opacity:1;fill-rule:nonzero;stroke:none"
           id="text556"><tspan
             x="0 11.67 20.834999 30 34.994999 39.165001 44.16 53.325001 59.16"
             y="0"
             sodipodi:role="line"
             id="tspan554">QTF- for </tspan></text></g><path
         d="m 2312.15,2892 c -0.87,0 -1.3,0.41 -1.3,1.22 0.06,0.06 0.1,0.12 0.13,0.18 0.04,0.07 0.05,0.16 0.05,0.29 l 51.66,104.06 c 0.44,1.06 1.34,1.6 2.71,1.6 h 2.07 c 5.31,0 8.19,-0.54 8.63,-1.6 l 51.65,-104.06 c 0.06,-0.13 0.11,-0.22 0.14,-0.29 0.03,-0.06 0.05,-0.12 0.05,-0.18 0,-0.81 -2.41,-1.22 -7.22,-1.22 z m 15.85,12 h 73.03 l -37.13,74.72 z"
         style="fill:#000000;fill-opacity:1;fill-rule:nonzero;stroke:none"
         id="path558" /><g
         id="g560"
         transform="scale(10)"><text
           transform="matrix(1,0,0,-1,244.2,289.2)"
           style="font-variant:normal;font-weight:bold;font-size:15px;font-family:Helvetica;-inkscape-font-specification:Helvetica-Bold;writing-mode:lr-tb;fill:#000000;fill-opacity:1;fill-rule:nonzero;stroke:none"
           id="text564"><tspan
             x="0 11.67 20.43"
             y="0"
             sodipodi:role="line"
             id="tspan562">w=0</tspan></text></g><path
         d="m 594,2266 65.723,-0.35 64.679,-0.81 65.727,-1.84 65.723,-5.18 65.718,28.87 65.723,-23.4 64.677,3.16 65.73,24.11 65.72,61.8 65.72,111.8 65.73,134.19 64.68,79.2 65.72,-12.22 65.72,-67.2 65.72,-69.69 65.73,-42.58 64.68,-33.36 65.72,-52.91 65.73,-95.9 65.72,-138.03 65.72,84.35 64.68,-9.19 65.72,-61.01 65.73,-58.62 65.72,18.88 65.73,43.97 64.68,-7.79 65.72,43.71 65.72,59.55 65.72,21.76 65.73,24.77 64.68,5.18 65.72,22.44 65.73,-4.18 65.72,-2.96 65.72,-16.41 64.68,-32.82 65.72,-51.33 65.73,2.45 65.72,-18.09 65.72,1.78 64.68,6.18 65.73,35.24 65.72,-14.36 65.72,23.3 65.72,0.2 64.68,-1.95 65.73,-3.79 65.72,-6.65"
         style="fill:none;stroke:#0000ff;stroke-width:19.998;stroke-linecap:butt;stroke-linejoin:round;stroke-miterlimit:10;stroke-dasharray:none;stroke-opacity:1"
         id="path566" /><path
         d="m 594,2266.1 65.723,0.07 64.679,0.2 65.727,0.8 65.723,6.35 65.718,-67.29 65.723,22.76 64.677,-15.17 65.73,-28.26 65.72,-41.68 65.72,-52.11 65.73,-45 64.68,-8.64 65.72,28.36 65.72,33.27 65.72,8.54 65.73,-17.34 64.68,-6.44 65.72,7.46 65.73,-1.43 65.72,74.59 65.72,103.83 64.68,3.8 65.72,-29.54 65.73,-35.84 65.72,-22.65 65.73,-5.61 64.68,-20.75 65.72,29.55 65.72,20.46 65.72,20.91 65.73,29.83 64.68,15.42 65.72,21.41 65.73,3.71 65.72,2.01 65.72,9.27 64.68,-7.16 65.72,-7.07 65.73,19.59 65.72,-50.19 65.72,-15.22 64.68,1.63 65.73,18.26 65.72,-1.15 65.72,4.42 65.72,13.02 64.68,-0.14 65.73,1.93 65.72,-13.44"
         style="fill:none;stroke:#0000ff;stroke-width:19.998;stroke-linecap:butt;stroke-linejoin:bevel;stroke-miterlimit:10;stroke-dasharray:72, 18, 36, 18;stroke-dashoffset:0;stroke-opacity:1"
         id="path568" /><path
         d="m 594,2266 65.723,-0.32 64.679,-0.72 65.727,-1.48 65.723,-3.4 65.718,14.08 65.723,-15.42 64.677,3.94 65.73,24.66 65.72,62.96 65.72,114.1 65.73,140.84 64.68,91.34 65.72,0.42 65.72,-59.27 65.72,-66.57 65.73,-41.57 64.68,-28.69 65.72,-44.53 65.73,-76.83 65.72,-130.92 65.72,62.07 64.68,6.97 65.72,-48.35 65.73,-53.52 65.72,-6.27 65.73,16.95 64.68,-19.66 65.72,22.35 65.72,53.88 65.72,5.96 65.73,21.1 64.68,-2.87 65.72,7.9 65.73,2.27 65.72,-9.27 65.72,-15.73 64.68,-18.78 65.72,-31.63 65.73,1.07 65.72,-22.52 65.72,4.55 64.68,-4.66 65.73,32.86 65.72,11.81 65.72,9.49 65.72,13.34 64.68,6.31 65.73,0.05 65.72,-6.56"
         style="fill:none;stroke:#ff0000;stroke-width:19.998;stroke-linecap:butt;stroke-linejoin:bevel;stroke-miterlimit:10;stroke-dasharray:72, 72;stroke-dashoffset:0;stroke-opacity:1"
         id="path570" /><path
         d="m 594,2266.07 65.723,0.02 64.679,0.08 65.727,0.51 65.723,5.22 65.718,-62.46 65.723,19.04 64.677,-16.98 65.73,-30.39 65.72,-44.08 65.72,-54.38 65.73,-47.85 64.68,-12.8 65.72,24.45 65.72,32.18 65.72,10.75 65.73,-16.92 64.68,-13.5 65.72,-0.61 65.73,-6.33 65.72,52.05 65.72,129.71 64.68,10.53 65.72,-29.74 65.73,-31.51 65.72,-18.98 65.73,-10.73 64.68,-22.99 65.72,5.39 65.72,26.98 65.72,14.4 65.73,17.03 64.68,18.98 65.72,17.49 65.73,21.37 65.72,-0.77 65.72,15.06 64.68,5.12 65.72,-1.42 65.73,17.82 65.72,-21.63 65.72,-12.09 64.68,-3.98 65.73,10.62 65.72,3.29 65.72,1.98 65.72,15.81 64.68,15.21 65.73,-7.11 65.72,-3.14"
         style="fill:none;stroke:#ff0000;stroke-width:19.998;stroke-linecap:butt;stroke-linejoin:bevel;stroke-miterlimit:10;stroke-dasharray:18, 18;stroke-dashoffset:0;stroke-opacity:1"
         id="path572" /><path
         d="m 594,528 h 3210 v 810 H 594 Z"
         style="fill:#ffffff;fill-opacity:1;fill-rule:nonzero;stroke:none"
         id="path574" /><path
         d="M 594,528 H 3804"
         style="fill:none;stroke:#262626;stroke-width:4.998;stroke-linecap:square;stroke-linejoin:round;stroke-miterlimit:10;stroke-dasharray:none;stroke-opacity:1"
         id="path576" /><path
         d="M 594,1338 H 3804"
         style="fill:none;stroke:#262626;stroke-width:4.998;stroke-linecap:square;stroke-linejoin:round;stroke-miterlimit:10;stroke-dasharray:none;stroke-opacity:1"
         id="path578" /><path
         d="m 1009.7,528 v 32.102"
         style="fill:none;stroke:#262626;stroke-width:4.998;stroke-linecap:square;stroke-linejoin:round;stroke-miterlimit:10;stroke-dasharray:none;stroke-opacity:1"
         id="path580" /><path
         d="m 1565.45,528 v 32.102"
         style="fill:none;stroke:#262626;stroke-width:4.998;stroke-linecap:square;stroke-linejoin:round;stroke-miterlimit:10;stroke-dasharray:none;stroke-opacity:1"
         id="path582" /><path
         d="m 2121.2,528 v 32.102"
         style="fill:none;stroke:#262626;stroke-width:4.998;stroke-linecap:square;stroke-linejoin:round;stroke-miterlimit:10;stroke-dasharray:none;stroke-opacity:1"
         id="path584" /><path
         d="m 2676.94,528 v 32.102"
         style="fill:none;stroke:#262626;stroke-width:4.998;stroke-linecap:square;stroke-linejoin:round;stroke-miterlimit:10;stroke-dasharray:none;stroke-opacity:1"
         id="path586" /><path
         d="m 3232.69,528 v 32.102"
         style="fill:none;stroke:#262626;stroke-width:4.998;stroke-linecap:square;stroke-linejoin:round;stroke-miterlimit:10;stroke-dasharray:none;stroke-opacity:1"
         id="path588" /><path
         d="m 3788.44,528 v 32.102"
         style="fill:none;stroke:#262626;stroke-width:4.998;stroke-linecap:square;stroke-linejoin:round;stroke-miterlimit:10;stroke-dasharray:none;stroke-opacity:1"
         id="path590" /><path
         d="m 1009.7,1338 v -32.1"
         style="fill:none;stroke:#262626;stroke-width:4.998;stroke-linecap:square;stroke-linejoin:round;stroke-miterlimit:10;stroke-dasharray:none;stroke-opacity:1"
         id="path592" /><path
         d="m 1565.45,1338 v -32.1"
         style="fill:none;stroke:#262626;stroke-width:4.998;stroke-linecap:square;stroke-linejoin:round;stroke-miterlimit:10;stroke-dasharray:none;stroke-opacity:1"
         id="path594" /><path
         d="m 2121.2,1338 v -32.1"
         style="fill:none;stroke:#262626;stroke-width:4.998;stroke-linecap:square;stroke-linejoin:round;stroke-miterlimit:10;stroke-dasharray:none;stroke-opacity:1"
         id="path596" /><path
         d="m 2676.94,1338 v -32.1"
         style="fill:none;stroke:#262626;stroke-width:4.998;stroke-linecap:square;stroke-linejoin:round;stroke-miterlimit:10;stroke-dasharray:none;stroke-opacity:1"
         id="path598" /><path
         d="m 3232.69,1338 v -32.1"
         style="fill:none;stroke:#262626;stroke-width:4.998;stroke-linecap:square;stroke-linejoin:round;stroke-miterlimit:10;stroke-dasharray:none;stroke-opacity:1"
         id="path600" /><path
         d="m 3788.44,1338 v -32.1"
         style="fill:none;stroke:#262626;stroke-width:4.998;stroke-linecap:square;stroke-linejoin:round;stroke-miterlimit:10;stroke-dasharray:none;stroke-opacity:1"
         id="path602" /><g
         id="g604"
         transform="scale(10)"><text
           transform="matrix(1,0,0,-1,90.4699,32.2)"
           style="font-variant:normal;font-weight:bold;font-size:15px;font-family:Helvetica;-inkscape-font-specification:Helvetica-Bold;writing-mode:lr-tb;fill:#262626;fill-opacity:1;fill-rule:nonzero;stroke:none"
           id="text608"><tspan
             x="0 8.3400002 12.51 61.875 111.14955 119.48955 123.65955 173.02409 222.2991 230.6391 234.8091 284.17365"
             y="0"
             sodipodi:role="line"
             id="tspan606">0.511.522.53</tspan></text></g><path
         d="m 1913.21,135.527 c -6.31,0 -10.89,2.328 -13.73,6.985 -2.84,4.656 -4.27,10.328 -4.27,17.015 0,4.438 0.41,8.778 1.22,13.028 0.82,4.25 2.02,8.55 3.62,12.894 1.59,4.344 3.43,8.422 5.53,12.235 2.09,3.808 4.42,7.5 6.98,11.062 0.5,0.746 1.16,1.121 1.97,1.121 0.69,0 1.25,-0.219 1.68,-0.652 0.45,-0.442 0.67,-0.973 0.67,-1.598 0,-0.625 -0.16,-1.152 -0.48,-1.59 -10.18,-14.062 -15.27,-27.035 -15.27,-38.91 0,-5.125 1.18,-9.547 3.55,-13.265 2.38,-3.715 6,-5.575 10.88,-5.575 4.19,0 8.08,1.235 11.67,3.703 3.6,2.469 6.71,5.61 9.33,9.418 0,2 0.33,5.079 0.99,9.235 0.65,4.156 1.71,7.859 3.18,11.113 1.47,3.246 3.2,4.871 5.2,4.871 2.57,0 3.85,-1.5 3.85,-4.5 0,-1.746 -0.36,-3.949 -1.08,-6.605 -0.72,-2.657 -1.53,-5.125 -2.44,-7.41 -0.9,-2.282 -2.01,-4.887 -3.33,-7.825 1.32,-8 5.32,-12 12,-12 3.88,0 7.77,1.125 11.68,3.371 3.9,2.254 7.35,5.207 10.35,8.864 3,3.656 5.36,7.578 7.09,11.765 1.72,4.184 2.58,8.184 2.58,12 0,3.371 -0.54,5.996 -1.6,7.871 -1.07,1.879 -2.47,3.864 -4.22,5.954 -1.75,2.097 -2.63,3.769 -2.63,5.015 0,2.188 0.94,4.188 2.82,6 1.88,1.813 3.88,2.719 6,2.719 2.68,0 4.61,-1.25 5.76,-3.75 1.16,-2.5 1.74,-5.344 1.74,-8.531 0,-5.125 -1.02,-11.594 -3.05,-19.407 -2.03,-7.808 -4.36,-14.308 -6.99,-19.5 -3.62,-7.062 -8.15,-13.015 -13.58,-17.855 -5.45,-4.844 -11.57,-7.266 -18.38,-7.266 -4.32,0 -7.8,1.297 -10.45,3.891 -2.66,2.59 -4.37,6.137 -5.12,10.637 -3.12,-4.438 -6.68,-7.965 -10.68,-10.59 -4,-2.625 -8.35,-3.938 -13.04,-3.938"
         style="fill:#262626;fill-opacity:1;fill-rule:nonzero;stroke:none"
         id="path610" /><path
         d="M 2021.37,95.3984 V 263.398 h 22.97 v -6.75 h -16.22 v -154.5 h 16.22 v -6.7496 h -22.97"
         style="fill:#262626;fill-opacity:1;fill-rule:nonzero;stroke:none"
         id="path612" /><path
         d="m 2060.27,140.305 c 0,0.629 0.06,1.097 0.19,1.41 l 12.56,50.152 c 0.81,3.125 1.22,5.875 1.22,8.25 0,4.813 -1.63,7.219 -4.88,7.219 -3.5,0 -6.11,-2.094 -7.82,-6.281 -1.72,-4.184 -3.37,-9.496 -4.93,-15.938 0,-0.312 -0.17,-0.562 -0.51,-0.75 -0.35,-0.187 -0.64,-0.281 -0.89,-0.281 h -1.97 c -0.38,0 -0.7,0.203 -0.99,0.613 -0.28,0.403 -0.42,0.762 -0.42,1.078 1.19,4.871 2.34,9.012 3.47,12.422 1.13,3.403 2.88,6.496 5.25,9.281 2.37,2.782 5.34,4.168 8.91,4.168 3.87,0 7.28,-1.121 10.21,-3.371 2.94,-2.25 4.76,-5.187 5.44,-8.812 2.87,3.687 6.12,6.64 9.75,8.855 3.63,2.219 7.6,3.328 11.91,3.328 3.56,0 6.7,-1.043 9.42,-3.136 2.72,-2.094 4.08,-4.895 4.08,-8.395 0,-2.875 -0.89,-5.359 -2.67,-7.449 -1.78,-2.094 -4.14,-3.141 -7.08,-3.141 -1.81,0 -3.33,0.563 -4.55,1.688 -1.22,1.125 -1.83,2.562 -1.83,4.312 0,2.5 0.9,4.719 2.68,6.657 1.78,1.933 3.86,2.902 6.23,2.902 -1.81,1.5 -4,2.25 -6.56,2.25 -4.81,0 -9,-1.719 -12.57,-5.152 -3.56,-3.438 -6.74,-7.782 -9.56,-13.036 l -12,-48.093 c -0.37,-1.5 -1.23,-2.797 -2.57,-3.887 -1.35,-1.094 -2.83,-1.641 -4.46,-1.641 -1.37,0 -2.56,0.438 -3.56,1.309 -1,0.875 -1.5,2.031 -1.5,3.469"
         style="fill:#262626;fill-opacity:1;fill-rule:nonzero;stroke:none"
         id="path614" /><path
         d="m 2155.61,135.527 c -7.07,0 -12.65,2.672 -16.74,8.016 -4.09,5.34 -6.14,11.637 -6.14,18.891 0,7.187 1.86,14.625 5.58,22.312 3.72,7.688 8.73,14.094 15.05,19.219 6.3,5.125 13.12,7.683 20.44,7.683 3.31,0 6.27,-0.906 8.9,-2.714 2.62,-1.813 4.69,-4.282 6.19,-7.407 1.25,4.5 3.72,6.75 7.41,6.75 1.37,0 2.54,-0.422 3.51,-1.265 0.97,-0.844 1.45,-1.985 1.45,-3.426 0,-0.313 -0.01,-0.547 -0.05,-0.703 -0.03,-0.156 -0.07,-0.356 -0.14,-0.606 l -11.71,-46.879 c -0.75,-3.375 -1.13,-6.125 -1.13,-8.25 0,-4.808 1.59,-7.214 4.78,-7.214 3.5,0 6.18,2.234 8.02,6.699 1.85,4.469 3.39,9.609 4.64,15.422 0.25,0.687 0.69,1.031 1.31,1.031 h 2.07 c 0.43,0 0.79,-0.188 1.07,-0.559 0.28,-0.375 0.43,-0.75 0.43,-1.129 -2,-7.808 -4.16,-14.078 -6.48,-18.796 -2.31,-4.715 -6.09,-7.075 -11.34,-7.075 -3.75,0 -7.08,1.11 -9.98,3.325 -2.91,2.218 -4.74,5.14 -5.49,8.765 -7.19,-8.058 -14.4,-12.09 -21.65,-12.09 z m 0.09,4.407 c 4.06,0 8,1.515 11.81,4.546 3.81,3.032 7.06,6.61 9.75,10.735 0.13,0.125 0.19,0.277 0.19,0.469 l 9,36.562 0.19,0.469 c -0.63,4 -2.05,7.437 -4.27,10.312 -2.22,2.871 -5.23,4.309 -9.05,4.309 -3.75,0 -7.25,-1.547 -10.5,-4.637 -3.25,-3.097 -6,-6.769 -8.25,-11.015 -2.18,-4.438 -4.27,-10.579 -6.27,-18.422 -2,-7.844 -3,-13.922 -3,-18.235 0,-3.875 0.84,-7.359 2.52,-10.457 1.69,-3.093 4.32,-4.636 7.88,-4.636"
         style="fill:#262626;fill-opacity:1;fill-rule:nonzero;stroke:none"
         id="path616" /><path
         d="m 2242.82,135.527 c -7.06,0 -12.64,2.672 -16.73,8.016 -4.1,5.34 -6.14,11.637 -6.14,18.891 0,7.187 1.86,14.625 5.58,22.312 3.71,7.688 8.73,14.094 15.04,19.219 6.32,5.125 13.13,7.683 20.44,7.683 3.25,0 6.2,-0.921 8.86,-2.765 2.65,-1.844 4.73,-4.293 6.23,-7.356 l 9.38,37.5 c 0.43,1.938 0.72,3.438 0.84,4.5 0,1.813 -3.62,2.719 -10.87,2.719 -1.19,0 -1.79,0.75 -1.79,2.25 0.07,0.246 0.2,0.731 0.38,1.453 0.19,0.719 0.44,1.266 0.75,1.637 0.32,0.375 0.75,0.562 1.31,0.562 l 22.6,1.786 c 1.37,0 2.06,-0.692 2.06,-2.067 l -24.19,-96.652 c -0.75,-1.875 -1.12,-4.567 -1.12,-8.067 0,-4.808 1.59,-7.214 4.78,-7.214 3.5,0 6.17,2.234 8.02,6.699 1.84,4.469 3.39,9.609 4.63,15.422 0.26,0.687 0.69,1.031 1.32,1.031 h 2.06 c 0.44,0 0.79,-0.188 1.08,-0.559 0.28,-0.375 0.42,-0.75 0.42,-1.129 -2,-7.808 -4.15,-14.078 -6.47,-18.796 -2.31,-4.715 -6.09,-7.075 -11.34,-7.075 -3.75,0 -7.08,1.11 -9.99,3.325 -2.91,2.218 -4.73,5.14 -5.48,8.765 -7.19,-8.058 -14.41,-12.09 -21.66,-12.09 z m 0.09,4.407 c 4.07,0 8.01,1.515 11.82,4.546 3.81,3.032 7.06,6.61 9.75,10.735 0.13,0.125 0.18,0.34 0.18,0.652 l 9.19,37.031 c -0.62,3.938 -2.06,7.329 -4.31,10.172 -2.25,2.844 -5.25,4.266 -9,4.266 -3.75,0 -7.25,-1.547 -10.5,-4.637 -3.25,-3.097 -6,-6.769 -8.25,-11.015 -2.18,-4.438 -4.28,-10.579 -6.28,-18.422 -2,-7.844 -3,-13.922 -3,-18.235 0,-3.875 0.85,-7.359 2.53,-10.457 1.69,-3.093 4.32,-4.636 7.87,-4.636"
         style="fill:#262626;fill-opacity:1;fill-rule:nonzero;stroke:none"
         id="path618" /><path
         d="m 2308.92,98.7773 c 0,0.3125 0.03,0.5313 0.1,0.6563 l 58.4,161.9024 c 0.25,0.687 0.64,1.203 1.17,1.547 0.54,0.344 1.18,0.515 1.93,0.515 1,0 1.81,-0.293 2.43,-0.886 0.63,-0.594 0.94,-1.422 0.94,-2.485 v -0.66 L 2315.48,97.4648 c -0.68,-1.375 -1.75,-2.0664 -3.18,-2.0664 -0.94,0 -1.74,0.3282 -2.39,0.9844 -0.66,0.6563 -0.99,1.457 -0.99,2.3945"
         style="fill:#262626;fill-opacity:1;fill-rule:nonzero;stroke:none"
         id="path620" /><path
         d="m 2396.57,147.617 c 3,-5.125 9.04,-7.683 18.1,-7.683 3.94,0 7.69,0.671 11.25,2.015 3.56,1.344 6.5,3.36 8.81,6.047 2.32,2.688 3.47,5.938 3.47,9.75 0,2.871 -1.03,5.246 -3.09,7.121 -2.06,1.875 -4.59,3.125 -7.59,3.75 l -9.1,1.879 c -4.19,1 -7.62,2.922 -10.31,5.766 -2.69,2.843 -4.04,6.297 -4.04,10.355 0,5 1.37,9.406 4.09,13.219 2.72,3.812 6.29,6.734 10.73,8.766 4.44,2.031 9.03,3.046 13.78,3.046 5.06,0 9.62,-1.214 13.65,-3.652 4.02,-2.441 6.04,-6.035 6.04,-10.781 0,-2.567 -0.73,-4.832 -2.2,-6.797 -1.47,-1.969 -3.49,-2.953 -6.05,-2.953 -1.44,0 -2.69,0.469 -3.75,1.402 -1.06,0.942 -1.59,2.16 -1.59,3.66 0,1.313 0.36,2.578 1.07,3.793 0.72,1.219 1.71,2.207 2.96,2.957 1.25,0.75 2.53,1.121 3.84,1.121 -1,2.438 -2.86,4.204 -5.57,5.301 -2.73,1.09 -5.65,1.637 -8.77,1.637 -2.82,0 -5.64,-0.578 -8.48,-1.734 -2.85,-1.157 -5.13,-2.84 -6.85,-5.059 -1.72,-2.219 -2.58,-4.828 -2.58,-7.828 0,-2.067 0.7,-3.863 2.11,-5.395 1.41,-1.527 3.14,-2.605 5.2,-3.234 l 9.85,-1.969 c 3.06,-0.687 5.9,-1.859 8.52,-3.515 2.63,-1.657 4.7,-3.75 6.2,-6.282 1.5,-2.527 2.25,-5.449 2.25,-8.765 0,-4.125 -1.18,-8.215 -3.52,-12.278 -2.34,-4.062 -5.2,-7.285 -8.58,-9.66 -5.94,-4.058 -13.25,-6.09 -21.94,-6.09 -5.93,0 -11.39,1.36 -16.35,4.075 -4.97,2.718 -7.46,6.796 -7.46,12.234 0,3.062 0.89,5.734 2.67,8.016 1.79,2.285 4.21,3.425 7.27,3.425 1.81,0 3.33,-0.547 4.55,-1.644 1.22,-1.09 1.82,-2.543 1.82,-4.356 0,-2.562 -0.95,-4.812 -2.85,-6.75 -1.91,-1.937 -4.15,-2.91 -6.71,-2.91 h -0.85"
         style="fill:#262626;fill-opacity:1;fill-rule:nonzero;stroke:none"
         id="path622" /><path
         d="m 2462.95,95.3984 v 6.7496 h 16.41 v 154.5 h -16.41 v 6.75 h 23.07 V 95.3984 h -23.07"
         style="fill:#262626;fill-opacity:1;fill-rule:nonzero;stroke:none"
         id="path624" /><path
         d="m 594,528 v 810"
         style="fill:none;stroke:#262626;stroke-width:4.998;stroke-linecap:square;stroke-linejoin:round;stroke-miterlimit:10;stroke-dasharray:none;stroke-opacity:1"
         id="path626" /><path
         d="m 3804,528 v 810"
         style="fill:none;stroke:#262626;stroke-width:4.998;stroke-linecap:square;stroke-linejoin:round;stroke-miterlimit:10;stroke-dasharray:none;stroke-opacity:1"
         id="path628" /><path
         d="m 594,648.5 h 32.102"
         style="fill:none;stroke:#262626;stroke-width:4.998;stroke-linecap:square;stroke-linejoin:round;stroke-miterlimit:10;stroke-dasharray:none;stroke-opacity:1"
         id="path630" /><path
         d="m 594,919.871 h 32.102"
         style="fill:none;stroke:#262626;stroke-width:4.998;stroke-linecap:square;stroke-linejoin:round;stroke-miterlimit:10;stroke-dasharray:none;stroke-opacity:1"
         id="path632" /><path
         d="m 594,1191.25 h 32.102"
         style="fill:none;stroke:#262626;stroke-width:4.998;stroke-linecap:square;stroke-linejoin:round;stroke-miterlimit:10;stroke-dasharray:none;stroke-opacity:1"
         id="path634" /><path
         d="m 3804,648.5 h -32.1"
         style="fill:none;stroke:#262626;stroke-width:4.998;stroke-linecap:square;stroke-linejoin:round;stroke-miterlimit:10;stroke-dasharray:none;stroke-opacity:1"
         id="path636" /><path
         d="m 3804,919.871 h -32.1"
         style="fill:none;stroke:#262626;stroke-width:4.998;stroke-linecap:square;stroke-linejoin:round;stroke-miterlimit:10;stroke-dasharray:none;stroke-opacity:1"
         id="path638" /><path
         d="m 3804,1191.25 h -32.1"
         style="fill:none;stroke:#262626;stroke-width:4.998;stroke-linecap:square;stroke-linejoin:round;stroke-miterlimit:10;stroke-dasharray:none;stroke-opacity:1"
         id="path640" /><g
         id="g642"
         transform="scale(10)"><text
           transform="matrix(1,0,0,-1,23.8,58.8496)"
           style="font-variant:normal;font-weight:bold;font-size:15px;font-family:Helvetica;-inkscape-font-specification:Helvetica-Bold;writing-mode:lr-tb;fill:#262626;fill-opacity:1;fill-rule:nonzero;stroke:none"
           id="text650"><tspan
             x="0 4.9949999 13.335 21.674999"
             y="0"
             sodipodi:role="line"
             id="tspan644">-100</tspan><tspan
             x="8.3999996 13.395 21.735001"
             y="-27.137501"
             sodipodi:role="line"
             id="tspan646">-50</tspan><tspan
             x="22.200001"
             y="-54.275002"
             id="tspan648">0</tspan></text><text
           transform="matrix(0,1,1,0,16.8,61.8)"
           style="font-variant:normal;font-weight:bold;font-size:16.5px;font-family:Helvetica;-inkscape-font-specification:Helvetica-Bold;writing-mode:lr-tb;fill:#262626;fill-opacity:1;fill-rule:nonzero;stroke:none"
           id="text654"><tspan
             x="0 12.837 22.918501 33 38.494499"
             y="0"
             sodipodi:role="line"
             id="tspan652">QTF-/</tspan></text></g><path
         d="m 199.598,1060.69 c -0.692,0 -1.129,0.06 -1.317,0.19 l -67.129,16.59 c -6,1.62 -11.886,4.35 -17.668,8.2 -5.781,3.85 -10.515,8.5 -14.2027,13.97 -3.6875,5.47 -5.5313,11.24 -5.5313,17.3 0,8.87 1.2656,15.12 3.7969,18.75 2.5311,3.62 5.8791,6.36 10.0311,8.2 4.156,1.84 8.672,2.76 13.543,2.76 5.442,0 11.051,-1.1 16.832,-3.32 5.777,-2.22 11.078,-5.28 15.895,-9.19 4.808,-3.91 8.683,-8.41 11.621,-13.5 2.937,-5.09 4.41,-12.42 4.41,-21.99 0,-3.24 -0.973,-6.32 -2.91,-9.23 -1.938,-2.9 -2.906,-4.36 -2.906,-4.36 l 34.875,-6.37 c 1.562,-0.38 2.843,-1.22 3.843,-2.54 1,-1.31 1.5,-4.77 1.5,-10.4 0,-1.37 -0.422,-2.56 -1.265,-3.56 -0.844,-1 -1.985,-1.5 -3.418,-1.5 z m -34.129,38.53 c 0,5.81 -3.047,10.92 -9.141,15.33 -6.094,4.4 -13.265,7.76 -21.515,10.08 -8.25,2.31 -15.219,3.47 -20.911,3.47 -4.246,0 -7.949,-0.92 -11.105,-2.77 -3.1564,-1.85 -4.7345,-4.74 -4.7345,-8.68 0,-0.87 1.8594,-3.17 5.5745,-6.88 3.722,-3.72 8.066,-6.71 13.035,-8.96 4.965,-2.25 10.137,-4.09 15.516,-5.53 l 18.843,-4.59 c 4.063,0.75 7.485,2.36 10.266,4.83 2.781,2.46 4.172,3.7 4.172,3.7"
         style="fill:#262626;fill-opacity:1;fill-rule:nonzero;stroke:none"
         id="path656" /><g
         id="g658"
         transform="scale(10)"><text
           transform="matrix(0,1,1,0,16.8,114.6)"
           style="font-variant:normal;font-weight:bold;font-size:16.5px;font-family:Helvetica;-inkscape-font-specification:Helvetica-Bold;writing-mode:lr-tb;fill:#262626;fill-opacity:1;fill-rule:nonzero;stroke:none"
           id="text662"><tspan
             x="0"
             y="0"
             id="tspan660">g</tspan></text></g><g
         id="g664"
         transform="scale(10)"><text
           transform="matrix(1,0,0,-1,152.4,139.8)"
           style="font-variant:normal;font-weight:bold;font-size:15px;font-family:Helvetica;-inkscape-font-specification:Helvetica-Bold;writing-mode:lr-tb;fill:#000000;fill-opacity:1;fill-rule:nonzero;stroke:none"
           id="text668"><tspan
             x="0 11.67 20.834999 30 34.994999 39.165001 44.16 53.325001 59.16"
             y="0"
             sodipodi:role="line"
             id="tspan666">QTF- for </tspan></text></g><path
         d="m 2168.15,1398 c -0.87,0 -1.3,0.41 -1.3,1.22 0.06,0.06 0.1,0.12 0.13,0.18 0.04,0.07 0.05,0.16 0.05,0.29 l 51.66,104.06 c 0.44,1.06 1.34,1.6 2.71,1.6 h 2.07 c 5.31,0 8.19,-0.54 8.63,-1.6 l 51.65,-104.06 c 0.06,-0.13 0.11,-0.22 0.14,-0.29 0.03,-0.06 0.05,-0.12 0.05,-0.18 0,-0.81 -2.41,-1.22 -7.22,-1.22 z m 15.85,12 h 73.03 l -37.13,74.72 z"
         style="fill:#000000;fill-opacity:1;fill-rule:nonzero;stroke:none"
         id="path670" /><g
         id="g672"
         transform="scale(10)"><text
           transform="matrix(1,0,0,-1,229.8,139.8)"
           style="font-variant:normal;font-weight:bold;font-size:15px;font-family:Helvetica;-inkscape-font-specification:Helvetica-Bold;writing-mode:lr-tb;fill:#000000;fill-opacity:1;fill-rule:nonzero;stroke:none"
           id="text676"><tspan
             x="0 11.67 20.43 28.77 32.939999 41.279999 49.619999"
             y="0"
             sodipodi:role="line"
             id="tspan674">w=0.189</tspan></text></g><path
         d="m 594,1191.78 68.91,-0.76 70.028,-0.03 70.023,-3.6 70.027,-6.19 70.02,43.48 68.922,-27.4 70.02,4.32 70.02,15.46 70.03,21.07 70.02,5.43 68.91,-29.56 70.03,-46.77 70.02,-22.14 70.02,6.32 70.03,9.4 68.91,-14.99 70.02,-57.84 70.03,-25.34 70.02,-50.42 70.03,-75.411 68.91,15.32 70.02,17.027 70.03,27.907 70.03,19.107 70.02,65.34 68.91,43.78 70.03,33.56 70.02,4.78 70.03,63.69 70.02,30.86 68.91,5.55 70.03,-2.53 70.02,-23.69 70.02,-25.53 70.03,-17.25 68.91,-25.39 70.02,-1.57 70.03,-4.93 70.02,5.67 70.03,20.63 68.91,12.07 70.02,4.71 70.03,0.28 70.02,-10.43 70.03,-10 68.91,-4.17"
         style="fill:none;stroke:#0000ff;stroke-width:19.998;stroke-linecap:butt;stroke-linejoin:round;stroke-miterlimit:10;stroke-dasharray:none;stroke-opacity:1"
         id="path678" /><path
         d="m 594,1123.37 68.91,16.97 70.028,114.08 70.023,-23.05 70.027,106.63 70.02,-735.91 68.922,392.297 70.02,10.213 70.02,-46.28 70.03,-72.613 70.02,-76.75 68.91,-58.91 70.03,-16.336 70.02,37.75 70.02,81.043 70.03,94.531 68.91,94.085 70.02,72.13 70.03,42.07 70.02,41.41 70.03,62.13 68.91,8.6 70.02,-50.16 70.03,-14.86 70.03,-8.42 70.02,-21.49 68.91,4.67 70.03,-10.98 70.02,14.01 70.03,11.67 70.02,24.23 68.91,20.24 70.03,11.96 70.02,15.06 70.02,-0.5 70.03,-34.12 68.91,-15.8 70.02,-29.93 70.03,-31.84 70.02,-1.67 70.03,-11.07 68.91,6.53 70.02,25.57 70.03,18.78 70.02,18.65 70.03,7.22 68.91,-2.14"
         style="fill:none;stroke:#0000ff;stroke-width:19.998;stroke-linecap:butt;stroke-linejoin:bevel;stroke-miterlimit:10;stroke-dasharray:72, 18, 36, 18;stroke-dashoffset:0;stroke-opacity:1"
         id="path680" /><path
         d="m 594,1191.79 68.91,-0.89 70.028,-2.11 70.023,-3.09 70.027,-6.05 70.02,35.11 68.922,-24.87 70.02,5.29 70.02,16.39 70.03,20.64 70.02,4.65 68.91,-28.39 70.03,-44.39 70.02,-24.35 70.02,2.29 70.03,6.77 68.91,-14.2 70.02,-56.01 70.03,-27.6 70.02,-45.4 70.03,-72.947 68.91,13.047 70.02,13.601 70.03,24.887 70.03,19.912 70.02,54.24 68.91,45.13 70.03,35.69 70.02,19.65 70.03,49.3 70.02,34.85 68.91,9.79 70.03,6.09 70.02,-16.09 70.02,-17.87 70.03,-17.81 68.91,-12.25 70.02,-16.62 70.03,-4.78 70.02,8.92 70.03,13.38 68.91,13.95 70.02,-1.7 70.03,-8.37 70.02,-9.34 70.03,-13.03 68.91,-6.07"
         style="fill:none;stroke:#ff0000;stroke-width:19.998;stroke-linecap:butt;stroke-linejoin:bevel;stroke-miterlimit:10;stroke-dasharray:72, 72;stroke-dashoffset:0;stroke-opacity:1"
         id="path682" /><path
         d="m 594,1127.62 68.91,18.62 70.028,75.17 70.023,-7.23 70.027,109.01 70.02,-795.19 68.922,418.984 70.02,11.672 70.02,-42.047 70.03,-66.121 70.02,-71.32 68.91,-56.785 70.03,-17.016 70.02,36.172 70.02,81.379 70.03,94.637 68.91,93.715 70.02,73.42 70.03,43.26 70.02,50.73 70.03,59.17 68.91,26.44 70.02,-38.08 70.03,-11.1 70.03,-2.59 70.02,-23.18 68.91,14.57 70.03,-6.49 70.02,1.63 70.03,15.01 70.02,12.38 68.91,17.45 70.03,4.12 70.02,10.54 70.02,3.88 70.03,-32.22 68.91,-17.53 70.02,-33.75 70.03,-29.54 70.02,-8.92 70.03,-7.92 68.91,12.27 70.02,16.04 70.03,25.75 70.02,12.4 70.03,9.65 68.91,-0.36"
         style="fill:none;stroke:#ff0000;stroke-width:19.998;stroke-linecap:butt;stroke-linejoin:bevel;stroke-miterlimit:10;stroke-dasharray:18, 18;stroke-dashoffset:0;stroke-opacity:1"
         id="path684" /></g></g></svg>
