<?xml version="1.0" encoding="UTF-8" standalone="no"?>
<svg
   version="1.1"
   id="svg126"
   xml:space="preserve"
   width="560"
   height="420"
   viewBox="0 0 560 420"
   sodipodi:docname="QTFM_Heave_beta030_diag.svg"
   xmlns:inkscape="http://www.inkscape.org/namespaces/inkscape"
   xmlns:sodipodi="http://sodipodi.sourceforge.net/DTD/sodipodi-0.dtd"
   xmlns="http://www.w3.org/2000/svg"
   xmlns:svg="http://www.w3.org/2000/svg"
   xmlns:rdf="http://www.w3.org/1999/02/22-rdf-syntax-ns#"
   xmlns:cc="http://creativecommons.org/ns#"
   xmlns:dc="http://purl.org/dc/elements/1.1/"><metadata
     id="metadata132"><rdf:RDF><cc:Work
         rdf:about=""><dc:format>image/svg+xml</dc:format><dc:type
           rdf:resource="http://purl.org/dc/dcmitype/StillImage" /></cc:Work></rdf:RDF></metadata><defs
     id="defs130" /><sodipodi:namedview
     pagecolor="#ffffff"
     bordercolor="#666666"
     borderopacity="1"
     objecttolerance="10"
     gridtolerance="10"
     guidetolerance="10"
     inkscape:pageopacity="0"
     inkscape:pageshadow="2"
     inkscape:window-width="640"
     inkscape:window-height="480"
     id="namedview128"
     inkscape:showpageshadow="2"
     inkscape:pagecheckerboard="0"
     inkscape:deskcolor="#d1d1d1" /><g
     id="g134"
     inkscape:groupmode="layer"
     inkscape:label="ink_ext_XXXXXX"
     transform="matrix(1.3333333,0,0,-1.3333333,0,419.99999)"><g
       id="g136"
       transform="scale(0.1)"><path
         d="M 0,0 H 4200 V 3150 H 0 Z"
         style="fill:#ffffff;fill-opacity:1;fill-rule:nonzero;stroke:none"
         id="path138" /><path
         d="M 0,0 H 4200 V 3150 H 0 Z"
         style="fill:#ffffff;fill-opacity:1;fill-rule:nonzero;stroke:none"
         id="path140" /><path
         d="m 546,2022 h 3258 v 810 H 546 Z"
         style="fill:#ffffff;fill-opacity:1;fill-rule:nonzero;stroke:none"
         id="path142" /><path
         d="M 546,2022 H 3804"
         style="fill:none;stroke:#262626;stroke-width:4.998;stroke-linecap:square;stroke-linejoin:round;stroke-miterlimit:10;stroke-dasharray:none;stroke-opacity:1"
         id="path144" /><path
         d="M 546,2832 H 3804"
         style="fill:none;stroke:#262626;stroke-width:4.998;stroke-linecap:square;stroke-linejoin:round;stroke-miterlimit:10;stroke-dasharray:none;stroke-opacity:1"
         id="path146" /><path
         d="m 1008.71,2022 v 32.58"
         style="fill:none;stroke:#262626;stroke-width:4.998;stroke-linecap:square;stroke-linejoin:round;stroke-miterlimit:10;stroke-dasharray:none;stroke-opacity:1"
         id="path148" /><path
         d="m 1538.12,2022 v 32.58"
         style="fill:none;stroke:#262626;stroke-width:4.998;stroke-linecap:square;stroke-linejoin:round;stroke-miterlimit:10;stroke-dasharray:none;stroke-opacity:1"
         id="path150" /><path
         d="m 2067.53,2022 v 32.58"
         style="fill:none;stroke:#262626;stroke-width:4.998;stroke-linecap:square;stroke-linejoin:round;stroke-miterlimit:10;stroke-dasharray:none;stroke-opacity:1"
         id="path152" /><path
         d="m 2596.95,2022 v 32.58"
         style="fill:none;stroke:#262626;stroke-width:4.998;stroke-linecap:square;stroke-linejoin:round;stroke-miterlimit:10;stroke-dasharray:none;stroke-opacity:1"
         id="path154" /><path
         d="m 3126.36,2022 v 32.58"
         style="fill:none;stroke:#262626;stroke-width:4.998;stroke-linecap:square;stroke-linejoin:round;stroke-miterlimit:10;stroke-dasharray:none;stroke-opacity:1"
         id="path156" /><path
         d="m 3655.77,2022 v 32.58"
         style="fill:none;stroke:#262626;stroke-width:4.998;stroke-linecap:square;stroke-linejoin:round;stroke-miterlimit:10;stroke-dasharray:none;stroke-opacity:1"
         id="path158" /><path
         d="m 1008.71,2832 v -32.58"
         style="fill:none;stroke:#262626;stroke-width:4.998;stroke-linecap:square;stroke-linejoin:round;stroke-miterlimit:10;stroke-dasharray:none;stroke-opacity:1"
         id="path160" /><path
         d="m 1538.12,2832 v -32.58"
         style="fill:none;stroke:#262626;stroke-width:4.998;stroke-linecap:square;stroke-linejoin:round;stroke-miterlimit:10;stroke-dasharray:none;stroke-opacity:1"
         id="path162" /><path
         d="m 2067.53,2832 v -32.58"
         style="fill:none;stroke:#262626;stroke-width:4.998;stroke-linecap:square;stroke-linejoin:round;stroke-miterlimit:10;stroke-dasharray:none;stroke-opacity:1"
         id="path164" /><path
         d="m 2596.95,2832 v -32.58"
         style="fill:none;stroke:#262626;stroke-width:4.998;stroke-linecap:square;stroke-linejoin:round;stroke-miterlimit:10;stroke-dasharray:none;stroke-opacity:1"
         id="path166" /><path
         d="m 3126.36,2832 v -32.58"
         style="fill:none;stroke:#262626;stroke-width:4.998;stroke-linecap:square;stroke-linejoin:round;stroke-miterlimit:10;stroke-dasharray:none;stroke-opacity:1"
         id="path168" /><path
         d="m 3655.77,2832 v -32.58"
         style="fill:none;stroke:#262626;stroke-width:4.998;stroke-linecap:square;stroke-linejoin:round;stroke-miterlimit:10;stroke-dasharray:none;stroke-opacity:1"
         id="path170" /><g
         id="g172"
         transform="scale(10)"><text
           transform="matrix(1,0,0,-1,90.3707,181.6)"
           style="font-variant:normal;font-weight:bold;font-size:15px;font-family:Helvetica;-inkscape-font-specification:Helvetica-Bold;writing-mode:lr-tb;fill:#262626;fill-opacity:1;fill-rule:nonzero;stroke:none"
           id="text176"><tspan
             x="0 8.3400002 12.51 59.241001 105.88245 114.22245 118.39245 165.12344 211.76445 220.10445 224.27444 271.00589"
             y="0"
             sodipodi:role="line"
             id="tspan174">0.511.522.53</tspan></text></g><path
         d="m 1889.21,1629.53 c -6.31,0 -10.89,2.33 -13.73,6.98 -2.84,4.66 -4.27,10.33 -4.27,17.02 0,4.43 0.41,8.77 1.22,13.02 0.82,4.25 2.02,8.56 3.62,12.9 1.59,4.34 3.43,8.42 5.53,12.23 2.09,3.81 4.42,7.5 6.98,11.07 0.5,0.74 1.16,1.12 1.97,1.12 0.69,0 1.25,-0.22 1.68,-0.66 0.45,-0.44 0.67,-0.97 0.67,-1.59 0,-0.63 -0.16,-1.16 -0.48,-1.59 -10.18,-14.07 -15.27,-27.04 -15.27,-38.91 0,-5.13 1.18,-9.55 3.55,-13.27 2.38,-3.71 6,-5.57 10.88,-5.57 4.19,0 8.08,1.23 11.67,3.7 3.6,2.47 6.71,5.61 9.33,9.42 0,2 0.33,5.08 0.99,9.23 0.65,4.16 1.71,7.86 3.18,11.12 1.47,3.24 3.2,4.87 5.2,4.87 2.57,0 3.85,-1.5 3.85,-4.5 0,-1.75 -0.36,-3.95 -1.08,-6.61 -0.72,-2.65 -1.53,-5.12 -2.44,-7.41 -0.9,-2.28 -2.01,-4.89 -3.33,-7.82 1.32,-8 5.32,-12 12,-12 3.88,0 7.77,1.12 11.68,3.37 3.9,2.25 7.35,5.21 10.35,8.86 3,3.66 5.36,7.58 7.09,11.77 1.72,4.18 2.58,8.18 2.58,12 0,3.37 -0.54,5.99 -1.6,7.87 -1.07,1.88 -2.47,3.86 -4.22,5.95 -1.75,2.1 -2.63,3.77 -2.63,5.02 0,2.18 0.94,4.18 2.82,6 1.88,1.81 3.88,2.72 6,2.72 2.68,0 4.61,-1.25 5.76,-3.75 1.16,-2.5 1.74,-5.35 1.74,-8.54 0,-5.12 -1.02,-11.59 -3.05,-19.4 -2.03,-7.81 -4.36,-14.31 -6.99,-19.5 -3.62,-7.06 -8.15,-13.02 -13.58,-17.86 -5.45,-4.84 -11.57,-7.26 -18.38,-7.26 -4.32,0 -7.8,1.29 -10.45,3.89 -2.66,2.59 -4.37,6.13 -5.12,10.63 -3.12,-4.43 -6.68,-7.96 -10.68,-10.59 -4,-2.62 -8.35,-3.93 -13.04,-3.93"
         style="fill:#262626;fill-opacity:1;fill-rule:nonzero;stroke:none"
         id="path178" /><path
         d="m 1997.37,1589.4 v 168 h 22.97 v -6.75 h -16.22 v -154.5 h 16.22 v -6.75 h -22.97"
         style="fill:#262626;fill-opacity:1;fill-rule:nonzero;stroke:none"
         id="path180" /><path
         d="m 2036.27,1634.3 c 0,0.63 0.06,1.1 0.19,1.41 l 12.56,50.16 c 0.81,3.12 1.22,5.87 1.22,8.25 0,4.81 -1.63,7.22 -4.88,7.22 -3.5,0 -6.11,-2.1 -7.82,-6.29 -1.72,-4.18 -3.37,-9.49 -4.93,-15.93 0,-0.32 -0.17,-0.57 -0.51,-0.75 -0.35,-0.19 -0.64,-0.28 -0.89,-0.28 h -1.97 c -0.38,0 -0.7,0.2 -0.99,0.61 -0.28,0.4 -0.42,0.76 -0.42,1.08 1.19,4.87 2.34,9.01 3.47,12.42 1.13,3.4 2.88,6.5 5.25,9.28 2.37,2.78 5.34,4.17 8.91,4.17 3.87,0 7.28,-1.12 10.21,-3.37 2.94,-2.25 4.76,-5.19 5.44,-8.82 2.87,3.69 6.12,6.65 9.75,8.86 3.63,2.22 7.6,3.33 11.91,3.33 3.56,0 6.7,-1.04 9.42,-3.14 2.72,-2.09 4.08,-4.89 4.08,-8.39 0,-2.88 -0.89,-5.36 -2.67,-7.45 -1.78,-2.1 -4.14,-3.14 -7.08,-3.14 -1.81,0 -3.33,0.56 -4.55,1.68 -1.22,1.13 -1.83,2.57 -1.83,4.32 0,2.5 0.9,4.72 2.68,6.65 1.78,1.94 3.86,2.91 6.23,2.91 -1.81,1.5 -4,2.25 -6.56,2.25 -4.81,0 -9,-1.72 -12.57,-5.16 -3.56,-3.43 -6.74,-7.78 -9.56,-13.03 l -12,-48.1 c -0.37,-1.5 -1.23,-2.79 -2.57,-3.88 -1.35,-1.1 -2.83,-1.64 -4.46,-1.64 -1.37,0 -2.56,0.43 -3.56,1.31 -1,0.87 -1.5,2.03 -1.5,3.46"
         style="fill:#262626;fill-opacity:1;fill-rule:nonzero;stroke:none"
         id="path182" /><path
         d="m 2131.61,1629.53 c -7.07,0 -12.65,2.67 -16.74,8.01 -4.09,5.34 -6.14,11.64 -6.14,18.89 0,7.19 1.86,14.63 5.58,22.32 3.72,7.68 8.73,14.09 15.05,19.21 6.3,5.13 13.12,7.69 20.44,7.69 3.31,0 6.27,-0.91 8.9,-2.72 2.62,-1.81 4.69,-4.28 6.19,-7.4 1.25,4.5 3.72,6.75 7.41,6.75 1.37,0 2.54,-0.42 3.51,-1.27 0.97,-0.84 1.45,-1.98 1.45,-3.42 0,-0.32 -0.01,-0.55 -0.05,-0.71 -0.03,-0.15 -0.07,-0.35 -0.14,-0.6 l -11.71,-46.88 c -0.75,-3.38 -1.13,-6.13 -1.13,-8.25 0,-4.81 1.59,-7.22 4.78,-7.22 3.5,0 6.18,2.24 8.02,6.7 1.85,4.47 3.39,9.61 4.64,15.42 0.25,0.69 0.69,1.04 1.31,1.04 h 2.07 c 0.43,0 0.79,-0.19 1.07,-0.56 0.28,-0.38 0.43,-0.75 0.43,-1.13 -2,-7.81 -4.16,-14.08 -6.48,-18.8 -2.31,-4.71 -6.09,-7.07 -11.34,-7.07 -3.75,0 -7.08,1.11 -9.98,3.32 -2.91,2.22 -4.74,5.14 -5.49,8.77 -7.19,-8.06 -14.4,-12.09 -21.65,-12.09 z m 0.09,4.4 c 4.06,0 8,1.52 11.81,4.55 3.81,3.03 7.06,6.61 9.75,10.73 0.13,0.13 0.19,0.28 0.19,0.47 l 9,36.57 0.19,0.46 c -0.63,4 -2.05,7.44 -4.27,10.32 -2.22,2.87 -5.23,4.31 -9.05,4.31 -3.75,0 -7.25,-1.55 -10.5,-4.64 -3.25,-3.1 -6,-6.77 -8.25,-11.02 -2.18,-4.43 -4.27,-10.57 -6.27,-18.42 -2,-7.84 -3,-13.92 -3,-18.23 0,-3.88 0.84,-7.36 2.52,-10.46 1.69,-3.09 4.32,-4.64 7.88,-4.64"
         style="fill:#262626;fill-opacity:1;fill-rule:nonzero;stroke:none"
         id="path184" /><path
         d="m 2218.82,1629.53 c -7.06,0 -12.64,2.67 -16.73,8.01 -4.1,5.34 -6.14,11.64 -6.14,18.89 0,7.19 1.86,14.63 5.58,22.32 3.71,7.68 8.73,14.09 15.04,19.21 6.32,5.13 13.13,7.69 20.44,7.69 3.25,0 6.2,-0.92 8.86,-2.77 2.65,-1.84 4.73,-4.29 6.23,-7.35 l 9.38,37.5 c 0.43,1.93 0.72,3.43 0.84,4.5 0,1.81 -3.62,2.72 -10.87,2.72 -1.19,0 -1.79,0.75 -1.79,2.25 0.07,0.24 0.2,0.73 0.38,1.45 0.19,0.72 0.44,1.26 0.75,1.64 0.32,0.37 0.75,0.56 1.31,0.56 l 22.6,1.78 c 1.37,0 2.06,-0.69 2.06,-2.06 l -24.19,-96.66 c -0.75,-1.87 -1.12,-4.56 -1.12,-8.06 0,-4.81 1.59,-7.22 4.78,-7.22 3.5,0 6.17,2.24 8.02,6.7 1.84,4.47 3.39,9.61 4.63,15.42 0.26,0.69 0.69,1.04 1.32,1.04 h 2.06 c 0.44,0 0.79,-0.19 1.08,-0.56 0.28,-0.38 0.42,-0.75 0.42,-1.13 -2,-7.81 -4.15,-14.08 -6.47,-18.8 -2.31,-4.71 -6.09,-7.07 -11.34,-7.07 -3.75,0 -7.08,1.11 -9.99,3.32 -2.91,2.22 -4.73,5.14 -5.48,8.77 -7.19,-8.06 -14.41,-12.09 -21.66,-12.09 z m 0.09,4.4 c 4.07,0 8.01,1.52 11.82,4.55 3.81,3.03 7.06,6.61 9.75,10.73 0.13,0.13 0.18,0.34 0.18,0.66 l 9.19,37.03 c -0.62,3.94 -2.06,7.33 -4.31,10.17 -2.25,2.84 -5.25,4.27 -9,4.27 -3.75,0 -7.25,-1.55 -10.5,-4.64 -3.25,-3.1 -6,-6.77 -8.25,-11.02 -2.18,-4.43 -4.28,-10.57 -6.28,-18.42 -2,-7.84 -3,-13.92 -3,-18.23 0,-3.88 0.85,-7.36 2.53,-10.46 1.69,-3.09 4.32,-4.64 7.87,-4.64"
         style="fill:#262626;fill-opacity:1;fill-rule:nonzero;stroke:none"
         id="path186" /><path
         d="m 2284.92,1592.78 c 0,0.31 0.03,0.53 0.1,0.65 l 58.4,161.91 c 0.25,0.68 0.64,1.2 1.17,1.54 0.54,0.35 1.18,0.52 1.93,0.52 1,0 1.81,-0.29 2.43,-0.89 0.63,-0.59 0.94,-1.42 0.94,-2.48 v -0.66 l -58.41,-161.91 c -0.68,-1.37 -1.75,-2.06 -3.18,-2.06 -0.94,0 -1.74,0.33 -2.39,0.98 -0.66,0.66 -0.99,1.46 -0.99,2.4"
         style="fill:#262626;fill-opacity:1;fill-rule:nonzero;stroke:none"
         id="path188" /><path
         d="m 2372.57,1641.62 c 3,-5.13 9.04,-7.69 18.1,-7.69 3.94,0 7.69,0.68 11.25,2.02 3.56,1.34 6.5,3.36 8.81,6.05 2.32,2.68 3.47,5.93 3.47,9.75 0,2.87 -1.03,5.24 -3.09,7.12 -2.06,1.87 -4.59,3.12 -7.59,3.75 l -9.1,1.88 c -4.19,1 -7.62,2.92 -10.31,5.76 -2.69,2.85 -4.04,6.3 -4.04,10.36 0,5 1.37,9.4 4.09,13.22 2.72,3.81 6.29,6.73 10.73,8.76 4.44,2.03 9.03,3.05 13.78,3.05 5.06,0 9.62,-1.22 13.65,-3.65 4.02,-2.45 6.04,-6.04 6.04,-10.79 0,-2.56 -0.73,-4.83 -2.2,-6.79 -1.47,-1.97 -3.49,-2.96 -6.05,-2.96 -1.44,0 -2.69,0.47 -3.75,1.41 -1.06,0.94 -1.59,2.16 -1.59,3.66 0,1.31 0.36,2.58 1.07,3.79 0.72,1.22 1.71,2.21 2.96,2.96 1.25,0.75 2.53,1.12 3.84,1.12 -1,2.44 -2.86,4.2 -5.57,5.3 -2.73,1.09 -5.65,1.64 -8.77,1.64 -2.82,0 -5.64,-0.58 -8.48,-1.74 -2.85,-1.15 -5.13,-2.84 -6.85,-5.06 -1.72,-2.22 -2.58,-4.83 -2.58,-7.83 0,-2.06 0.7,-3.86 2.11,-5.39 1.41,-1.53 3.14,-2.61 5.2,-3.23 l 9.85,-1.97 c 3.06,-0.69 5.9,-1.86 8.52,-3.52 2.63,-1.65 4.7,-3.75 6.2,-6.28 1.5,-2.53 2.25,-5.45 2.25,-8.77 0,-4.12 -1.18,-8.21 -3.52,-12.27 -2.34,-4.07 -5.2,-7.29 -8.58,-9.66 -5.94,-4.06 -13.25,-6.09 -21.94,-6.09 -5.93,0 -11.39,1.36 -16.35,4.07 -4.97,2.72 -7.46,6.8 -7.46,12.24 0,3.06 0.89,5.73 2.67,8.01 1.79,2.29 4.21,3.43 7.27,3.43 1.81,0 3.33,-0.55 4.55,-1.65 1.22,-1.09 1.82,-2.54 1.82,-4.35 0,-2.57 -0.95,-4.82 -2.85,-6.75 -1.91,-1.94 -4.15,-2.91 -6.71,-2.91 h -0.85"
         style="fill:#262626;fill-opacity:1;fill-rule:nonzero;stroke:none"
         id="path190" /><path
         d="m 2438.95,1589.4 v 6.75 h 16.41 v 154.5 h -16.41 v 6.75 h 23.07 v -168 h -23.07"
         style="fill:#262626;fill-opacity:1;fill-rule:nonzero;stroke:none"
         id="path192" /><path
         d="m 546,2022 v 810"
         style="fill:none;stroke:#262626;stroke-width:4.998;stroke-linecap:square;stroke-linejoin:round;stroke-miterlimit:10;stroke-dasharray:none;stroke-opacity:1"
         id="path194" /><path
         d="m 3804,2022 v 810"
         style="fill:none;stroke:#262626;stroke-width:4.998;stroke-linecap:square;stroke-linejoin:round;stroke-miterlimit:10;stroke-dasharray:none;stroke-opacity:1"
         id="path196" /><path
         d="m 546,2095.1 h 32.578"
         style="fill:none;stroke:#262626;stroke-width:4.998;stroke-linecap:square;stroke-linejoin:round;stroke-miterlimit:10;stroke-dasharray:none;stroke-opacity:1"
         id="path198" /><path
         d="m 546,2292.53 h 32.578"
         style="fill:none;stroke:#262626;stroke-width:4.998;stroke-linecap:square;stroke-linejoin:round;stroke-miterlimit:10;stroke-dasharray:none;stroke-opacity:1"
         id="path200" /><path
         d="m 546,2489.96 h 32.578"
         style="fill:none;stroke:#262626;stroke-width:4.998;stroke-linecap:square;stroke-linejoin:round;stroke-miterlimit:10;stroke-dasharray:none;stroke-opacity:1"
         id="path202" /><path
         d="m 546,2687.4 h 32.578"
         style="fill:none;stroke:#262626;stroke-width:4.998;stroke-linecap:square;stroke-linejoin:round;stroke-miterlimit:10;stroke-dasharray:none;stroke-opacity:1"
         id="path204" /><path
         d="m 3804,2095.1 h -32.58"
         style="fill:none;stroke:#262626;stroke-width:4.998;stroke-linecap:square;stroke-linejoin:round;stroke-miterlimit:10;stroke-dasharray:none;stroke-opacity:1"
         id="path206" /><path
         d="m 3804,2292.53 h -32.58"
         style="fill:none;stroke:#262626;stroke-width:4.998;stroke-linecap:square;stroke-linejoin:round;stroke-miterlimit:10;stroke-dasharray:none;stroke-opacity:1"
         id="path208" /><path
         d="m 3804,2489.96 h -32.58"
         style="fill:none;stroke:#262626;stroke-width:4.998;stroke-linecap:square;stroke-linejoin:round;stroke-miterlimit:10;stroke-dasharray:none;stroke-opacity:1"
         id="path210" /><path
         d="m 3804,2687.4 h -32.58"
         style="fill:none;stroke:#262626;stroke-width:4.998;stroke-linecap:square;stroke-linejoin:round;stroke-miterlimit:10;stroke-dasharray:none;stroke-opacity:1"
         id="path212" /><g
         id="g214"
         transform="scale(10)"><text
           transform="matrix(1,0,0,-1,35.8,203.51)"
           style="font-variant:normal;font-weight:bold;font-size:15px;font-family:Helvetica;-inkscape-font-specification:Helvetica-Bold;writing-mode:lr-tb;fill:#262626;fill-opacity:1;fill-rule:nonzero;stroke:none"
           id="text224"><tspan
             x="0 4.9949999"
             y="0"
             sodipodi:role="line"
             id="tspan216">-1</tspan><tspan
             x="5.4000001"
             y="-19.743401"
             id="tspan218">0</tspan><tspan
             x="5.4000001"
             y="-39.486801"
             id="tspan220">1</tspan><tspan
             x="5.4000001"
             y="-59.230202"
             id="tspan222">2</tspan></text><text
           transform="matrix(0,1,1,0,28.8,211.2)"
           style="font-variant:normal;font-weight:bold;font-size:16.5px;font-family:Helvetica;-inkscape-font-specification:Helvetica-Bold;writing-mode:lr-tb;fill:#262626;fill-opacity:1;fill-rule:nonzero;stroke:none"
           id="text228"><tspan
             x="0 12.837 22.918501 33 38.494499"
             y="0"
             sodipodi:role="line"
             id="tspan226">QTF-/</tspan></text></g><path
         d="m 319.598,2554.69 c -0.692,0 -1.129,0.06 -1.317,0.19 l -67.129,16.59 c -6,1.62 -11.886,4.35 -17.668,8.2 -5.781,3.85 -10.515,8.5 -14.203,13.97 -3.687,5.47 -5.531,11.24 -5.531,17.3 0,8.87 1.266,15.12 3.797,18.75 2.531,3.62 5.879,6.36 10.031,8.2 4.156,1.84 8.672,2.76 13.543,2.76 5.442,0 11.051,-1.1 16.832,-3.32 5.777,-2.22 11.078,-5.28 15.895,-9.19 4.808,-3.91 8.683,-8.41 11.621,-13.5 2.937,-5.09 4.41,-12.42 4.41,-21.99 0,-3.24 -0.973,-6.32 -2.91,-9.23 -1.938,-2.9 -2.906,-4.36 -2.906,-4.36 l 34.875,-6.37 c 1.562,-0.38 2.843,-1.22 3.843,-2.54 1,-1.31 1.5,-4.77 1.5,-10.4 0,-1.37 -0.422,-2.56 -1.265,-3.56 -0.844,-1 -1.985,-1.5 -3.418,-1.5 z m -34.129,38.53 c 0,5.81 -3.047,10.92 -9.141,15.33 -6.094,4.4 -13.265,7.76 -21.515,10.08 -8.25,2.31 -15.219,3.47 -20.911,3.47 -4.246,0 -7.949,-0.92 -11.105,-2.77 -3.156,-1.85 -4.734,-4.74 -4.734,-8.68 0,-0.87 1.859,-3.17 5.574,-6.88 3.722,-3.72 8.066,-6.71 13.035,-8.96 4.965,-2.25 10.137,-4.09 15.516,-5.53 l 18.843,-4.59 c 4.063,0.75 7.485,2.36 10.266,4.83 2.781,2.46 4.172,3.7 4.172,3.7"
         style="fill:#262626;fill-opacity:1;fill-rule:nonzero;stroke:none"
         id="path230" /><g
         id="g232"
         transform="scale(10)"><text
           transform="matrix(0,1,1,0,28.8,264)"
           style="font-variant:normal;font-weight:bold;font-size:16.5px;font-family:Helvetica;-inkscape-font-specification:Helvetica-Bold;writing-mode:lr-tb;fill:#262626;fill-opacity:1;fill-rule:nonzero;stroke:none"
           id="text236"><tspan
             x="0"
             y="0"
             id="tspan234">g</tspan></text></g><g
         id="g238"
         transform="scale(10)"><text
           transform="matrix(1,0,0,-1,164.4,289.2)"
           style="font-variant:normal;font-weight:bold;font-size:15px;font-family:Helvetica;-inkscape-font-specification:Helvetica-Bold;writing-mode:lr-tb;fill:#000000;fill-opacity:1;fill-rule:nonzero;stroke:none"
           id="text242"><tspan
             x="0 11.67 20.834999 30 34.994999 39.165001 44.16 53.325001 59.16"
             y="0"
             sodipodi:role="line"
             id="tspan240">QTF- for </tspan></text></g><path
         d="m 2288.15,2892 c -0.87,0 -1.3,0.41 -1.3,1.22 0.06,0.06 0.1,0.12 0.13,0.18 0.04,0.07 0.05,0.16 0.05,0.29 l 51.66,104.06 c 0.44,1.06 1.34,1.6 2.71,1.6 h 2.07 c 5.31,0 8.19,-0.54 8.63,-1.6 l 51.65,-104.06 c 0.06,-0.13 0.11,-0.22 0.14,-0.29 0.03,-0.06 0.05,-0.12 0.05,-0.18 0,-0.81 -2.41,-1.22 -7.22,-1.22 z m 15.85,12 h 73.03 l -37.13,74.72 z"
         style="fill:#000000;fill-opacity:1;fill-rule:nonzero;stroke:none"
         id="path244" /><g
         id="g246"
         transform="scale(10)"><text
           transform="matrix(1,0,0,-1,241.8,289.2)"
           style="font-variant:normal;font-weight:bold;font-size:15px;font-family:Helvetica;-inkscape-font-specification:Helvetica-Bold;writing-mode:lr-tb;fill:#000000;fill-opacity:1;fill-rule:nonzero;stroke:none"
           id="text250"><tspan
             x="0 11.67 20.43"
             y="0"
             sodipodi:role="line"
             id="tspan248">w=0</tspan></text></g><path
         d="m 546,2376.97 66.707,24.23 65.648,41.76 66.7,64.32 66.711,125.98 66.707,-611.26 66.703,429.45 65.644,44.01 66.71,20.56 66.7,43.03 66.72,83.51 66.69,93.09 65.65,37.68 66.71,-38.68 66.71,-90.02 66.7,-115.28 66.71,-114.72 65.65,-84.31 66.7,-51.38 66.71,-24.2 66.7,17.62 66.71,14.98 65.64,-3.54 66.72,6.99 66.69,13.07 66.72,5.86 66.69,-4.74 65.66,0.25 66.7,2.71 66.71,-18.62 66.71,-10.63 66.7,-11.91 65.65,4.01 66.7,1.17 66.71,-1.98 66.7,10.13 66.71,4.1 65.64,-2.12 66.72,15.64 66.7,-2.06 66.71,7.24 66.7,-2.69 65.65,-5.33 66.71,-2.38 66.7,-0.77 66.7,-5.2 66.71,0.04 65.65,-0.48 66.7,-1.67 66.71,-3.83"
         style="fill:none;stroke:#0000ff;stroke-width:19.998;stroke-linecap:butt;stroke-linejoin:round;stroke-miterlimit:10;stroke-dasharray:none;stroke-opacity:1"
         id="path252" /><path
         d="m 546,2292.55 66.707,0.01 65.648,0.05 66.7,0.1 66.711,0.25 66.707,0.53 66.703,0.94 65.644,-0.2 66.71,-4.26 66.7,-12.87 66.72,-23.45 66.69,-23.42 65.65,-2.99 66.71,18.49 66.71,31.17 66.7,45.71 66.71,40.25 65.65,-4.27 66.7,-39.75 66.71,-47.8 66.7,-30.33 66.71,28.15 65.64,14.36 66.72,14.66 66.69,11.09 66.72,5.07 66.69,3.39 65.66,8.22 66.7,5.81 66.71,-10.57 66.71,-8.86 66.7,-7.59 65.65,-7.57 66.7,-4.86 66.71,-7.19 66.7,6.46 66.71,-2.1 65.64,0.25 66.72,1.52 66.7,-5.58 66.71,12.58 66.7,5.77 65.65,3.08 66.71,-9.17 66.7,0.88 66.7,-3.41 66.71,-0.37 65.65,2.48 66.7,0.1 66.71,3.37"
         style="fill:none;stroke:#0000ff;stroke-width:19.998;stroke-linecap:butt;stroke-linejoin:bevel;stroke-miterlimit:10;stroke-dasharray:72, 18, 36, 18;stroke-dashoffset:0;stroke-opacity:1"
         id="path254" /><path
         d="m 546,2376.99 66.707,24.02 65.648,41.65 66.7,65.41 66.711,151.02 66.707,-118.35 66.703,-32.83 65.644,25.3 66.71,19.24 66.7,47.33 66.72,89.62 66.69,99.82 65.65,42.78 66.71,-36.2 66.71,-92.06 66.7,-123.03 66.71,-127.57 65.65,-97.55 66.7,-64.77 66.71,-46.71 66.7,-33.43 66.71,40.18 65.64,6.93 66.72,-0.97 66.69,4.04 66.72,9.32 66.69,11.28 65.66,5.75 66.7,-2 66.71,13.79 66.71,8.36 66.7,4.04 65.65,-1.69 66.7,-0.39 66.71,1.09 66.7,-2.78 66.71,-2.68 65.64,5.21 66.72,-14.86 66.7,-2.19 66.71,1.98 66.7,2.86 65.65,4.04 66.71,-6.09 66.7,-0.35 66.7,3.1 66.71,2.12 65.65,-2.4 66.7,2.01 66.71,0.93"
         style="fill:none;stroke:#ff0000;stroke-width:19.998;stroke-linecap:butt;stroke-linejoin:bevel;stroke-miterlimit:10;stroke-dasharray:72, 72;stroke-dashoffset:0;stroke-opacity:1"
         id="path256" /><path
         d="m 546,2292.55 66.707,0.01 65.648,0.02 66.7,0.1 66.711,0.39 66.707,0.09 66.703,0.53 65.644,-0.54 66.71,-4.77 66.7,-13.66 66.72,-24.51 66.69,-25.07 65.65,-4.94 66.71,17.03 66.71,30.81 66.7,46.51 66.71,41.43 65.65,-5.94 66.7,-46.29 66.71,-65.36 66.7,-74.24 66.71,47 65.64,28.56 66.72,14.65 66.69,9.5 66.72,4.66 66.69,-0.91 65.66,2.22 66.7,-1.28 66.71,4.9 66.71,12.34 66.7,10.1 65.65,-1.82 66.7,1 66.71,2.66 66.7,-4.1 66.71,-2.91 65.64,3.38 66.72,-0.4 66.7,-5.53 66.71,2.06 66.7,5.03 65.65,-2.1 66.71,4.49 66.7,-3.29 66.7,-6.5 66.71,-4.79 65.65,-6.37 66.7,-1.74 66.71,-1.3"
         style="fill:none;stroke:#ff0000;stroke-width:19.998;stroke-linecap:butt;stroke-linejoin:bevel;stroke-miterlimit:10;stroke-dasharray:18, 18;stroke-dashoffset:0;stroke-opacity:1"
         id="path258" /><path
         d="m 546,528 h 3258 v 810 H 546 Z"
         style="fill:#ffffff;fill-opacity:1;fill-rule:nonzero;stroke:none"
         id="path260" /><path
         d="M 546,528 H 3804"
         style="fill:none;stroke:#262626;stroke-width:4.998;stroke-linecap:square;stroke-linejoin:round;stroke-miterlimit:10;stroke-dasharray:none;stroke-opacity:1"
         id="path262" /><path
         d="M 546,1338 H 3804"
         style="fill:none;stroke:#262626;stroke-width:4.998;stroke-linecap:square;stroke-linejoin:round;stroke-miterlimit:10;stroke-dasharray:none;stroke-opacity:1"
         id="path264" /><path
         d="m 950.281,528 v 32.582"
         style="fill:none;stroke:#262626;stroke-width:4.998;stroke-linecap:square;stroke-linejoin:round;stroke-miterlimit:10;stroke-dasharray:none;stroke-opacity:1"
         id="path266" /><path
         d="m 1490.75,528 v 32.582"
         style="fill:none;stroke:#262626;stroke-width:4.998;stroke-linecap:square;stroke-linejoin:round;stroke-miterlimit:10;stroke-dasharray:none;stroke-opacity:1"
         id="path268" /><path
         d="m 2031.23,528 v 32.582"
         style="fill:none;stroke:#262626;stroke-width:4.998;stroke-linecap:square;stroke-linejoin:round;stroke-miterlimit:10;stroke-dasharray:none;stroke-opacity:1"
         id="path270" /><path
         d="m 2571.71,528 v 32.582"
         style="fill:none;stroke:#262626;stroke-width:4.998;stroke-linecap:square;stroke-linejoin:round;stroke-miterlimit:10;stroke-dasharray:none;stroke-opacity:1"
         id="path272" /><path
         d="m 3112.19,528 v 32.582"
         style="fill:none;stroke:#262626;stroke-width:4.998;stroke-linecap:square;stroke-linejoin:round;stroke-miterlimit:10;stroke-dasharray:none;stroke-opacity:1"
         id="path274" /><path
         d="m 3652.67,528 v 32.582"
         style="fill:none;stroke:#262626;stroke-width:4.998;stroke-linecap:square;stroke-linejoin:round;stroke-miterlimit:10;stroke-dasharray:none;stroke-opacity:1"
         id="path276" /><path
         d="m 950.281,1338 v -32.58"
         style="fill:none;stroke:#262626;stroke-width:4.998;stroke-linecap:square;stroke-linejoin:round;stroke-miterlimit:10;stroke-dasharray:none;stroke-opacity:1"
         id="path278" /><path
         d="m 1490.75,1338 v -32.58"
         style="fill:none;stroke:#262626;stroke-width:4.998;stroke-linecap:square;stroke-linejoin:round;stroke-miterlimit:10;stroke-dasharray:none;stroke-opacity:1"
         id="path280" /><path
         d="m 2031.23,1338 v -32.58"
         style="fill:none;stroke:#262626;stroke-width:4.998;stroke-linecap:square;stroke-linejoin:round;stroke-miterlimit:10;stroke-dasharray:none;stroke-opacity:1"
         id="path282" /><path
         d="m 2571.71,1338 v -32.58"
         style="fill:none;stroke:#262626;stroke-width:4.998;stroke-linecap:square;stroke-linejoin:round;stroke-miterlimit:10;stroke-dasharray:none;stroke-opacity:1"
         id="path284" /><path
         d="m 3112.19,1338 v -32.58"
         style="fill:none;stroke:#262626;stroke-width:4.998;stroke-linecap:square;stroke-linejoin:round;stroke-miterlimit:10;stroke-dasharray:none;stroke-opacity:1"
         id="path286" /><path
         d="m 3652.67,1338 v -32.58"
         style="fill:none;stroke:#262626;stroke-width:4.998;stroke-linecap:square;stroke-linejoin:round;stroke-miterlimit:10;stroke-dasharray:none;stroke-opacity:1"
         id="path288" /><g
         id="g290"
         transform="scale(10)"><text
           transform="matrix(1,0,0,-1,84.5277,32.2)"
           style="font-variant:normal;font-weight:bold;font-size:15px;font-family:Helvetica;-inkscape-font-specification:Helvetica-Bold;writing-mode:lr-tb;fill:#262626;fill-opacity:1;fill-rule:nonzero;stroke:none"
           id="text294"><tspan
             x="0 8.3400002 12.51 60.347698 108.0957 116.4357 120.6057 168.44341 216.1911 224.5311 228.7011 276.53909"
             y="0"
             sodipodi:role="line"
             id="tspan292">0.511.522.53</tspan></text></g><path
         d="m 1889.21,135.527 c -6.31,0 -10.89,2.328 -13.73,6.985 -2.84,4.656 -4.27,10.328 -4.27,17.015 0,4.438 0.41,8.778 1.22,13.028 0.82,4.25 2.02,8.55 3.62,12.894 1.59,4.344 3.43,8.422 5.53,12.235 2.09,3.808 4.42,7.5 6.98,11.062 0.5,0.746 1.16,1.121 1.97,1.121 0.69,0 1.25,-0.219 1.68,-0.652 0.45,-0.442 0.67,-0.973 0.67,-1.598 0,-0.625 -0.16,-1.152 -0.48,-1.59 -10.18,-14.062 -15.27,-27.035 -15.27,-38.91 0,-5.125 1.18,-9.547 3.55,-13.265 2.38,-3.715 6,-5.575 10.88,-5.575 4.19,0 8.08,1.235 11.67,3.703 3.6,2.469 6.71,5.61 9.33,9.418 0,2 0.33,5.079 0.99,9.235 0.65,4.156 1.71,7.859 3.18,11.113 1.47,3.246 3.2,4.871 5.2,4.871 2.57,0 3.85,-1.5 3.85,-4.5 0,-1.746 -0.36,-3.949 -1.08,-6.605 -0.72,-2.657 -1.53,-5.125 -2.44,-7.41 -0.9,-2.282 -2.01,-4.887 -3.33,-7.825 1.32,-8 5.32,-12 12,-12 3.88,0 7.77,1.125 11.68,3.371 3.9,2.254 7.35,5.207 10.35,8.864 3,3.656 5.36,7.578 7.09,11.765 1.72,4.184 2.58,8.184 2.58,12 0,3.371 -0.54,5.996 -1.6,7.871 -1.07,1.879 -2.47,3.864 -4.22,5.954 -1.75,2.097 -2.63,3.769 -2.63,5.015 0,2.188 0.94,4.188 2.82,6 1.88,1.813 3.88,2.719 6,2.719 2.68,0 4.61,-1.25 5.76,-3.75 1.16,-2.5 1.74,-5.344 1.74,-8.531 0,-5.125 -1.02,-11.594 -3.05,-19.407 -2.03,-7.808 -4.36,-14.308 -6.99,-19.5 -3.62,-7.062 -8.15,-13.015 -13.58,-17.855 -5.45,-4.844 -11.57,-7.266 -18.38,-7.266 -4.32,0 -7.8,1.297 -10.45,3.891 -2.66,2.59 -4.37,6.137 -5.12,10.637 -3.12,-4.438 -6.68,-7.965 -10.68,-10.59 -4,-2.625 -8.35,-3.938 -13.04,-3.938"
         style="fill:#262626;fill-opacity:1;fill-rule:nonzero;stroke:none"
         id="path296" /><path
         d="M 1997.37,95.3984 V 263.398 h 22.97 v -6.75 h -16.22 v -154.5 h 16.22 v -6.7496 h -22.97"
         style="fill:#262626;fill-opacity:1;fill-rule:nonzero;stroke:none"
         id="path298" /><path
         d="m 2036.27,140.305 c 0,0.629 0.06,1.097 0.19,1.41 l 12.56,50.152 c 0.81,3.125 1.22,5.875 1.22,8.25 0,4.813 -1.63,7.219 -4.88,7.219 -3.5,0 -6.11,-2.094 -7.82,-6.281 -1.72,-4.184 -3.37,-9.496 -4.93,-15.938 0,-0.312 -0.17,-0.562 -0.51,-0.75 -0.35,-0.187 -0.64,-0.281 -0.89,-0.281 h -1.97 c -0.38,0 -0.7,0.203 -0.99,0.613 -0.28,0.403 -0.42,0.762 -0.42,1.078 1.19,4.871 2.34,9.012 3.47,12.422 1.13,3.403 2.88,6.496 5.25,9.281 2.37,2.782 5.34,4.168 8.91,4.168 3.87,0 7.28,-1.121 10.21,-3.371 2.94,-2.25 4.76,-5.187 5.44,-8.812 2.87,3.687 6.12,6.64 9.75,8.855 3.63,2.219 7.6,3.328 11.91,3.328 3.56,0 6.7,-1.043 9.42,-3.136 2.72,-2.094 4.08,-4.895 4.08,-8.395 0,-2.875 -0.89,-5.359 -2.67,-7.449 -1.78,-2.094 -4.14,-3.141 -7.08,-3.141 -1.81,0 -3.33,0.563 -4.55,1.688 -1.22,1.125 -1.83,2.562 -1.83,4.312 0,2.5 0.9,4.719 2.68,6.657 1.78,1.933 3.86,2.902 6.23,2.902 -1.81,1.5 -4,2.25 -6.56,2.25 -4.81,0 -9,-1.719 -12.57,-5.152 -3.56,-3.438 -6.74,-7.782 -9.56,-13.036 l -12,-48.093 c -0.37,-1.5 -1.23,-2.797 -2.57,-3.887 -1.35,-1.094 -2.83,-1.641 -4.46,-1.641 -1.37,0 -2.56,0.438 -3.56,1.309 -1,0.875 -1.5,2.031 -1.5,3.469"
         style="fill:#262626;fill-opacity:1;fill-rule:nonzero;stroke:none"
         id="path300" /><path
         d="m 2131.61,135.527 c -7.07,0 -12.65,2.672 -16.74,8.016 -4.09,5.34 -6.14,11.637 -6.14,18.891 0,7.187 1.86,14.625 5.58,22.312 3.72,7.688 8.73,14.094 15.05,19.219 6.3,5.125 13.12,7.683 20.44,7.683 3.31,0 6.27,-0.906 8.9,-2.714 2.62,-1.813 4.69,-4.282 6.19,-7.407 1.25,4.5 3.72,6.75 7.41,6.75 1.37,0 2.54,-0.422 3.51,-1.265 0.97,-0.844 1.45,-1.985 1.45,-3.426 0,-0.313 -0.01,-0.547 -0.05,-0.703 -0.03,-0.156 -0.07,-0.356 -0.14,-0.606 l -11.71,-46.879 c -0.75,-3.375 -1.13,-6.125 -1.13,-8.25 0,-4.808 1.59,-7.214 4.78,-7.214 3.5,0 6.18,2.234 8.02,6.699 1.85,4.469 3.39,9.609 4.64,15.422 0.25,0.687 0.69,1.031 1.31,1.031 h 2.07 c 0.43,0 0.79,-0.188 1.07,-0.559 0.28,-0.375 0.43,-0.75 0.43,-1.129 -2,-7.808 -4.16,-14.078 -6.48,-18.796 -2.31,-4.715 -6.09,-7.075 -11.34,-7.075 -3.75,0 -7.08,1.11 -9.98,3.325 -2.91,2.218 -4.74,5.14 -5.49,8.765 -7.19,-8.058 -14.4,-12.09 -21.65,-12.09 z m 0.09,4.407 c 4.06,0 8,1.515 11.81,4.546 3.81,3.032 7.06,6.61 9.75,10.735 0.13,0.125 0.19,0.277 0.19,0.469 l 9,36.562 0.19,0.469 c -0.63,4 -2.05,7.437 -4.27,10.312 -2.22,2.871 -5.23,4.309 -9.05,4.309 -3.75,0 -7.25,-1.547 -10.5,-4.637 -3.25,-3.097 -6,-6.769 -8.25,-11.015 -2.18,-4.438 -4.27,-10.579 -6.27,-18.422 -2,-7.844 -3,-13.922 -3,-18.235 0,-3.875 0.84,-7.359 2.52,-10.457 1.69,-3.093 4.32,-4.636 7.88,-4.636"
         style="fill:#262626;fill-opacity:1;fill-rule:nonzero;stroke:none"
         id="path302" /><path
         d="m 2218.82,135.527 c -7.06,0 -12.64,2.672 -16.73,8.016 -4.1,5.34 -6.14,11.637 -6.14,18.891 0,7.187 1.86,14.625 5.58,22.312 3.71,7.688 8.73,14.094 15.04,19.219 6.32,5.125 13.13,7.683 20.44,7.683 3.25,0 6.2,-0.921 8.86,-2.765 2.65,-1.844 4.73,-4.293 6.23,-7.356 l 9.38,37.5 c 0.43,1.938 0.72,3.438 0.84,4.5 0,1.813 -3.62,2.719 -10.87,2.719 -1.19,0 -1.79,0.75 -1.79,2.25 0.07,0.246 0.2,0.731 0.38,1.453 0.19,0.719 0.44,1.266 0.75,1.637 0.32,0.375 0.75,0.562 1.31,0.562 l 22.6,1.786 c 1.37,0 2.06,-0.692 2.06,-2.067 l -24.19,-96.652 c -0.75,-1.875 -1.12,-4.567 -1.12,-8.067 0,-4.808 1.59,-7.214 4.78,-7.214 3.5,0 6.17,2.234 8.02,6.699 1.84,4.469 3.39,9.609 4.63,15.422 0.26,0.687 0.69,1.031 1.32,1.031 h 2.06 c 0.44,0 0.79,-0.188 1.08,-0.559 0.28,-0.375 0.42,-0.75 0.42,-1.129 -2,-7.808 -4.15,-14.078 -6.47,-18.796 -2.31,-4.715 -6.09,-7.075 -11.34,-7.075 -3.75,0 -7.08,1.11 -9.99,3.325 -2.91,2.218 -4.73,5.14 -5.48,8.765 -7.19,-8.058 -14.41,-12.09 -21.66,-12.09 z m 0.09,4.407 c 4.07,0 8.01,1.515 11.82,4.546 3.81,3.032 7.06,6.61 9.75,10.735 0.13,0.125 0.18,0.34 0.18,0.652 l 9.19,37.031 c -0.62,3.938 -2.06,7.329 -4.31,10.172 -2.25,2.844 -5.25,4.266 -9,4.266 -3.75,0 -7.25,-1.547 -10.5,-4.637 -3.25,-3.097 -6,-6.769 -8.25,-11.015 -2.18,-4.438 -4.28,-10.579 -6.28,-18.422 -2,-7.844 -3,-13.922 -3,-18.235 0,-3.875 0.85,-7.359 2.53,-10.457 1.69,-3.093 4.32,-4.636 7.87,-4.636"
         style="fill:#262626;fill-opacity:1;fill-rule:nonzero;stroke:none"
         id="path304" /><path
         d="m 2284.92,98.7773 c 0,0.3125 0.03,0.5313 0.1,0.6563 l 58.4,161.9024 c 0.25,0.687 0.64,1.203 1.17,1.547 0.54,0.344 1.18,0.515 1.93,0.515 1,0 1.81,-0.293 2.43,-0.886 0.63,-0.594 0.94,-1.422 0.94,-2.485 v -0.66 L 2291.48,97.4648 c -0.68,-1.375 -1.75,-2.0664 -3.18,-2.0664 -0.94,0 -1.74,0.3282 -2.39,0.9844 -0.66,0.6563 -0.99,1.457 -0.99,2.3945"
         style="fill:#262626;fill-opacity:1;fill-rule:nonzero;stroke:none"
         id="path306" /><path
         d="m 2372.57,147.617 c 3,-5.125 9.04,-7.683 18.1,-7.683 3.94,0 7.69,0.671 11.25,2.015 3.56,1.344 6.5,3.36 8.81,6.047 2.32,2.688 3.47,5.938 3.47,9.75 0,2.871 -1.03,5.246 -3.09,7.121 -2.06,1.875 -4.59,3.125 -7.59,3.75 l -9.1,1.879 c -4.19,1 -7.62,2.922 -10.31,5.766 -2.69,2.843 -4.04,6.297 -4.04,10.355 0,5 1.37,9.406 4.09,13.219 2.72,3.812 6.29,6.734 10.73,8.766 4.44,2.031 9.03,3.046 13.78,3.046 5.06,0 9.62,-1.214 13.65,-3.652 4.02,-2.441 6.04,-6.035 6.04,-10.781 0,-2.567 -0.73,-4.832 -2.2,-6.797 -1.47,-1.969 -3.49,-2.953 -6.05,-2.953 -1.44,0 -2.69,0.469 -3.75,1.402 -1.06,0.942 -1.59,2.16 -1.59,3.66 0,1.313 0.36,2.578 1.07,3.793 0.72,1.219 1.71,2.207 2.96,2.957 1.25,0.75 2.53,1.121 3.84,1.121 -1,2.438 -2.86,4.204 -5.57,5.301 -2.73,1.09 -5.65,1.637 -8.77,1.637 -2.82,0 -5.64,-0.578 -8.48,-1.734 -2.85,-1.157 -5.13,-2.84 -6.85,-5.059 -1.72,-2.219 -2.58,-4.828 -2.58,-7.828 0,-2.067 0.7,-3.863 2.11,-5.395 1.41,-1.527 3.14,-2.605 5.2,-3.234 l 9.85,-1.969 c 3.06,-0.687 5.9,-1.859 8.52,-3.515 2.63,-1.657 4.7,-3.75 6.2,-6.282 1.5,-2.527 2.25,-5.449 2.25,-8.765 0,-4.125 -1.18,-8.215 -3.52,-12.278 -2.34,-4.062 -5.2,-7.285 -8.58,-9.66 -5.94,-4.058 -13.25,-6.09 -21.94,-6.09 -5.93,0 -11.39,1.36 -16.35,4.075 -4.97,2.718 -7.46,6.796 -7.46,12.234 0,3.062 0.89,5.734 2.67,8.016 1.79,2.285 4.21,3.425 7.27,3.425 1.81,0 3.33,-0.547 4.55,-1.644 1.22,-1.09 1.82,-2.543 1.82,-4.356 0,-2.562 -0.95,-4.812 -2.85,-6.75 -1.91,-1.937 -4.15,-2.91 -6.71,-2.91 h -0.85"
         style="fill:#262626;fill-opacity:1;fill-rule:nonzero;stroke:none"
         id="path308" /><path
         d="m 2438.95,95.3984 v 6.7496 h 16.41 v 154.5 h -16.41 v 6.75 h 23.07 V 95.3984 h -23.07"
         style="fill:#262626;fill-opacity:1;fill-rule:nonzero;stroke:none"
         id="path310" /><path
         d="m 546,528 v 810"
         style="fill:none;stroke:#262626;stroke-width:4.998;stroke-linecap:square;stroke-linejoin:round;stroke-miterlimit:10;stroke-dasharray:none;stroke-opacity:1"
         id="path312" /><path
         d="m 3804,528 v 810"
         style="fill:none;stroke:#262626;stroke-width:4.998;stroke-linecap:square;stroke-linejoin:round;stroke-miterlimit:10;stroke-dasharray:none;stroke-opacity:1"
         id="path314" /><path
         d="m 546,542.734 h 32.578"
         style="fill:none;stroke:#262626;stroke-width:4.998;stroke-linecap:square;stroke-linejoin:round;stroke-miterlimit:10;stroke-dasharray:none;stroke-opacity:1"
         id="path316" /><path
         d="m 546,756.133 h 32.578"
         style="fill:none;stroke:#262626;stroke-width:4.998;stroke-linecap:square;stroke-linejoin:round;stroke-miterlimit:10;stroke-dasharray:none;stroke-opacity:1"
         id="path318" /><path
         d="m 546,969.527 h 32.578"
         style="fill:none;stroke:#262626;stroke-width:4.998;stroke-linecap:square;stroke-linejoin:round;stroke-miterlimit:10;stroke-dasharray:none;stroke-opacity:1"
         id="path320" /><path
         d="m 546,1182.93 h 32.578"
         style="fill:none;stroke:#262626;stroke-width:4.998;stroke-linecap:square;stroke-linejoin:round;stroke-miterlimit:10;stroke-dasharray:none;stroke-opacity:1"
         id="path322" /><path
         d="m 3804,542.734 h -32.58"
         style="fill:none;stroke:#262626;stroke-width:4.998;stroke-linecap:square;stroke-linejoin:round;stroke-miterlimit:10;stroke-dasharray:none;stroke-opacity:1"
         id="path324" /><path
         d="m 3804,756.133 h -32.58"
         style="fill:none;stroke:#262626;stroke-width:4.998;stroke-linecap:square;stroke-linejoin:round;stroke-miterlimit:10;stroke-dasharray:none;stroke-opacity:1"
         id="path326" /><path
         d="m 3804,969.527 h -32.58"
         style="fill:none;stroke:#262626;stroke-width:4.998;stroke-linecap:square;stroke-linejoin:round;stroke-miterlimit:10;stroke-dasharray:none;stroke-opacity:1"
         id="path328" /><path
         d="m 3804,1182.93 h -32.58"
         style="fill:none;stroke:#262626;stroke-width:4.998;stroke-linecap:square;stroke-linejoin:round;stroke-miterlimit:10;stroke-dasharray:none;stroke-opacity:1"
         id="path330" /><g
         id="g332"
         transform="scale(10)"><text
           transform="matrix(1,0,0,-1,35.8,48.2738)"
           style="font-variant:normal;font-weight:bold;font-size:15px;font-family:Helvetica;-inkscape-font-specification:Helvetica-Bold;writing-mode:lr-tb;fill:#262626;fill-opacity:1;fill-rule:nonzero;stroke:none"
           id="text342"><tspan
             x="0 4.9949999"
             y="0"
             sodipodi:role="line"
             id="tspan334">-1</tspan><tspan
             x="5.4000001"
             y="-21.3395"
             id="tspan336">0</tspan><tspan
             x="5.4000001"
             y="-42.679298"
             id="tspan338">1</tspan><tspan
             x="5.4000001"
             y="-64.018799"
             id="tspan340">2</tspan></text><text
           transform="matrix(0,1,1,0,28.8,61.8)"
           style="font-variant:normal;font-weight:bold;font-size:16.5px;font-family:Helvetica;-inkscape-font-specification:Helvetica-Bold;writing-mode:lr-tb;fill:#262626;fill-opacity:1;fill-rule:nonzero;stroke:none"
           id="text346"><tspan
             x="0 12.837 22.918501 33 38.494499"
             y="0"
             sodipodi:role="line"
             id="tspan344">QTF-/</tspan></text></g><path
         d="m 319.598,1060.69 c -0.692,0 -1.129,0.06 -1.317,0.19 l -67.129,16.59 c -6,1.62 -11.886,4.35 -17.668,8.2 -5.781,3.85 -10.515,8.5 -14.203,13.97 -3.687,5.47 -5.531,11.24 -5.531,17.3 0,8.87 1.266,15.12 3.797,18.75 2.531,3.62 5.879,6.36 10.031,8.2 4.156,1.84 8.672,2.76 13.543,2.76 5.442,0 11.051,-1.1 16.832,-3.32 5.777,-2.22 11.078,-5.28 15.895,-9.19 4.808,-3.91 8.683,-8.41 11.621,-13.5 2.937,-5.09 4.41,-12.42 4.41,-21.99 0,-3.24 -0.973,-6.32 -2.91,-9.23 -1.938,-2.9 -2.906,-4.36 -2.906,-4.36 l 34.875,-6.37 c 1.562,-0.38 2.843,-1.22 3.843,-2.54 1,-1.31 1.5,-4.77 1.5,-10.4 0,-1.37 -0.422,-2.56 -1.265,-3.56 -0.844,-1 -1.985,-1.5 -3.418,-1.5 z m -34.129,38.53 c 0,5.81 -3.047,10.92 -9.141,15.33 -6.094,4.4 -13.265,7.76 -21.515,10.08 -8.25,2.31 -15.219,3.47 -20.911,3.47 -4.246,0 -7.949,-0.92 -11.105,-2.77 -3.156,-1.85 -4.734,-4.74 -4.734,-8.68 0,-0.87 1.859,-3.17 5.574,-6.88 3.722,-3.72 8.066,-6.71 13.035,-8.96 4.965,-2.25 10.137,-4.09 15.516,-5.53 l 18.843,-4.59 c 4.063,0.75 7.485,2.36 10.266,4.83 2.781,2.46 4.172,3.7 4.172,3.7"
         style="fill:#262626;fill-opacity:1;fill-rule:nonzero;stroke:none"
         id="path348" /><g
         id="g350"
         transform="scale(10)"><text
           transform="matrix(0,1,1,0,28.8,114.6)"
           style="font-variant:normal;font-weight:bold;font-size:16.5px;font-family:Helvetica;-inkscape-font-specification:Helvetica-Bold;writing-mode:lr-tb;fill:#262626;fill-opacity:1;fill-rule:nonzero;stroke:none"
           id="text354"><tspan
             x="0"
             y="0"
             id="tspan352">g</tspan></text></g><g
         id="g356"
         transform="scale(10)"><text
           transform="matrix(1,0,0,-1,150,139.8)"
           style="font-variant:normal;font-weight:bold;font-size:15px;font-family:Helvetica;-inkscape-font-specification:Helvetica-Bold;writing-mode:lr-tb;fill:#000000;fill-opacity:1;fill-rule:nonzero;stroke:none"
           id="text360"><tspan
             x="0 11.67 20.834999 30 34.994999 39.165001 44.16 53.325001 59.16"
             y="0"
             sodipodi:role="line"
             id="tspan358">QTF- for </tspan></text></g><path
         d="m 2144.15,1398 c -0.87,0 -1.3,0.41 -1.3,1.22 0.06,0.06 0.1,0.12 0.13,0.18 0.04,0.07 0.05,0.16 0.05,0.29 l 51.66,104.06 c 0.44,1.06 1.34,1.6 2.71,1.6 h 2.07 c 5.31,0 8.19,-0.54 8.63,-1.6 l 51.65,-104.06 c 0.06,-0.13 0.11,-0.22 0.14,-0.29 0.03,-0.06 0.05,-0.12 0.05,-0.18 0,-0.81 -2.41,-1.22 -7.22,-1.22 z m 15.85,12 h 73.03 l -37.13,74.72 z"
         style="fill:#000000;fill-opacity:1;fill-rule:nonzero;stroke:none"
         id="path362" /><g
         id="g364"
         transform="scale(10)"><text
           transform="matrix(1,0,0,-1,227.4,139.8)"
           style="font-variant:normal;font-weight:bold;font-size:15px;font-family:Helvetica;-inkscape-font-specification:Helvetica-Bold;writing-mode:lr-tb;fill:#000000;fill-opacity:1;fill-rule:nonzero;stroke:none"
           id="text368"><tspan
             x="0 11.67 20.43 28.77 32.939999 41.279999 49.619999"
             y="0"
             sodipodi:role="line"
             id="tspan366">w=0.063</tspan></text></g><path
         d="m 546,529.25 67.02,255.855 68.101,107.235 68.098,119.48 68.101,-176.804 68.102,-89.766 67.019,192.813 68.099,34.261 68.1,37.966 68.1,76.87 68.1,109.85 67.02,81.11 68.1,-2.59 68.1,-72.14 68.1,-111.18 68.1,-135.12 67.02,-118.813 68.1,-75.492 68.1,-39.851 68.1,15.101 68.1,3.66 67.02,-1.949 68.1,7.555 68.1,15.793 68.1,12.586 68.1,4.957 67.02,-1.41 68.1,-13.543 68.1,3.718 68.1,-5.882 68.1,-9.879 67.02,-3.496 68.1,-0.473 68.1,5.789 68.1,-4.074 68.1,2.922 67.02,8.757 68.1,3.95 68.1,16.777 68.1,-4.934 68.1,-5.371 67.02,-9.55 68.1,-2.524 68.1,-0.844 68.1,-8.961 68.1,-0.445 67.02,-5.789 68.1,4.379 68.1,1.445"
         style="fill:none;stroke:#0000ff;stroke-width:19.998;stroke-linecap:butt;stroke-linejoin:round;stroke-miterlimit:10;stroke-dasharray:none;stroke-opacity:1"
         id="path370" /><path
         d="m 546,756.449 67.02,-0.015 68.101,0.117 68.098,0.625 68.101,1.355 68.102,-1.179 67.019,2.187 68.099,-1.59 68.1,-7.39 68.1,-15.348 68.1,-22.199 67.02,-28.231 68.1,-22.125 68.1,5.485 68.1,42.086 68.1,59.195 67.02,27.035 68.1,-24.543 68.1,-52.957 68.1,-39.738 68.1,25.492 67.02,15.359 68.1,12.903 68.1,18.715 68.1,18.312 68.1,4.816 67.02,7.344 68.1,12.863 68.1,-6.425 68.1,-10.477 68.1,-13.144 67.02,-11.364 68.1,-7.429 68.1,-8.465 68.1,-3.426 68.1,-1.238 67.02,-6.575 68.1,4.985 68.1,12.937 68.1,6.371 68.1,7.497 67.02,0.246 68.1,-1.004 68.1,-1.41 68.1,-4.375 68.1,-2.055 67.02,0.875 68.1,0.547 68.1,2.601"
         style="fill:none;stroke:#0000ff;stroke-width:19.998;stroke-linecap:butt;stroke-linejoin:bevel;stroke-miterlimit:10;stroke-dasharray:72, 18, 36, 18;stroke-dashoffset:0;stroke-opacity:1"
         id="path372" /><path
         d="m 546,528 67.02,255.848 68.101,107.406 68.098,125.466 68.101,-317.083 68.102,228.047 67.019,57.781 68.099,24.315 68.1,39.41 68.1,82.31 68.1,116.67 67.02,87.87 68.1,1.96 68.1,-71.85 68.1,-116.58 68.1,-147.15 67.02,-134.998 68.1,-92.313 68.1,-58.769 68.1,2.484 68.1,4.086 67.02,-25.172 68.1,2.418 68.1,4.203 68.1,6.786 68.1,10.207 67.02,10.656 68.1,5.211 68.1,16.711 68.1,1.883 68.1,-1.426 67.02,2.679 68.1,5.336 68.1,-4.332 68.1,-0.047 68.1,5.508 67.02,1.938 68.1,-9.426 68.1,3.441 68.1,2.102 68.1,-0.379 67.02,0.926 68.1,0.183 68.1,-5.968 68.1,3.605 68.1,1.086 67.02,3.426 68.1,-0.363 68.1,-1.082"
         style="fill:none;stroke:#ff0000;stroke-width:19.998;stroke-linecap:butt;stroke-linejoin:bevel;stroke-miterlimit:10;stroke-dasharray:72, 72;stroke-dashoffset:0;stroke-opacity:1"
         id="path374" /><path
         d="m 546,756.395 67.02,-0.157 68.101,0.078 68.098,0.883 68.101,2.52 68.102,-0.114 67.019,0.336 68.099,-0.906 68.1,-6.699 68.1,-15.129 68.1,-23.644 67.02,-32.571 68.1,-28.222 68.1,0.703 68.1,40.179 68.1,58.567 67.02,24.84 68.1,-30.161 68.1,-67.16 68.1,-87.89 68.1,3.73 67.02,55.902 68.1,18.036 68.1,11.023 68.1,9.934 68.1,13.718 67.02,11.664 68.1,5.981 68.1,8.465 68.1,13.601 68.1,17.125 67.02,5.414 68.1,0.977 68.1,2.605 68.1,-1.718 68.1,-3.473 67.02,2.148 68.1,-1.464 68.1,-15.664 68.1,3.621 68.1,6.902 67.02,6.223 68.1,0.316 68.1,-8.047 68.1,-2.433 68.1,-3.469 67.02,-9.313 68.1,-9.289 68.1,-1.09"
         style="fill:none;stroke:#ff0000;stroke-width:19.998;stroke-linecap:butt;stroke-linejoin:bevel;stroke-miterlimit:10;stroke-dasharray:18, 18;stroke-dashoffset:0;stroke-opacity:1"
         id="path376" /></g></g></svg>
